Open Sans-Light Condensed.ufo
<glyph name="exclam" format="1">
  <advance width="451"/>
  <unicode hex="0021"/>
  <note>
exclam
</note>
  <outline>
    <contour>
      <point x="197" y="367" type="line"/>
      <point x="162" y="1462" type="line"/>
      <point x="287" y="1462" type="line"/>
      <point x="252" y="367" type="line"/>
    </contour>
    <contour>
      <point x="225.0" y="-16.0" type="qcurve" smooth="yes"/>
      <point x="186.0" y="-16.0"/>
      <point x="147.0" y="36.75"/>
      <point x="147.0" y="90.0" type="qcurve" smooth="yes"/>
      <point x="147.0" y="143.25"/>
      <point x="186.0" y="197.0"/>
      <point x="225.0" y="197.0" type="qcurve" smooth="yes"/>
      <point x="257.25" y="197.0"/>
      <point x="303.0" y="149.25"/>
      <point x="303.0" y="90.0" type="qcurve" smooth="yes"/>
      <point x="303.0" y="33.0"/>
      <point x="257.25" y="-16.0"/>
    </contour>
  </outline>
</glyph>
<glyph name="dollar" format="1">
  <advance width="819"/>
  <unicode hex="0024"/>
  <note>
dollar
</note>
  <outline>
    <contour>
      <point x="367" y="-119" type="line"/>
      <point x="367.0" y="123.0" type="line"/>
      <point x="308.5" y="123.0"/>
      <point x="208.83333333333331" y="134.91666666666666"/>
      <point x="126.5" y="158.5"/>
      <point x="94" y="176" type="qcurve"/>
      <point x="94.0" y="279.0" type="line"/>
      <point x="145.75" y="249.0"/>
      <point x="295.0" y="215.0"/>
      <point x="367" y="215" type="qcurve"/>
      <point x="367" y="709" type="line"/>
      <point x="365.0" y="710.0" type="line"/>
      <point x="272.75" y="749.0"/>
      <point x="161.75" y="836.75"/>
      <point x="134.0" y="893.0" type="qcurve" smooth="yes"/>
      <point x="104.0" y="955.8571428571429"/>
      <point x="104.0" y="1049.0" type="qcurve" smooth="yes"/>
      <point x="104.0" y="1174.25"/>
      <point x="250.75" y="1351.25"/>
      <point x="367" y="1370" type="qcurve"/>
      <point x="367" y="1556" type="line"/>
      <point x="449" y="1556" type="line"/>
      <point x="449.0" y="1374.0" type="line"/>
      <point x="518.75" y="1371.75"/>
      <point x="647.75" y="1341.5"/>
      <point x="707" y="1313" type="qcurve"/>
      <point x="670.0" y="1227.0" type="line"/>
      <point x="553.0335051546392" y="1280.9845360824743"/>
      <point x="449" y="1284" type="qcurve"/>
      <point x="449" y="776" type="line"/>
      <point x="451.0" y="775.0" type="line"/>
      <point x="541.0" y="737.5"/>
      <point x="664.0" y="648.6666666666666"/>
      <point x="727.0" y="528.5"/>
      <point x="727.0" y="444.0" type="qcurve" smooth="yes"/>
      <point x="727.0" y="321.0"/>
      <point x="575.75" y="150.0"/>
      <point x="449" y="129" type="qcurve"/>
      <point x="449" y="-119" type="line"/>
    </contour>
    <contour>
      <point x="449" y="223" type="line"/>
      <point x="530.75" y="241.75"/>
      <point x="629.0" y="360.75"/>
      <point x="629.0" y="438.0" type="qcurve" smooth="yes"/>
      <point x="629.0" y="522.75"/>
      <point x="545.75" y="634.75"/>
      <point x="449" y="676" type="qcurve"/>
    </contour>
    <contour>
      <point x="367" y="809" type="qcurve"/>
      <point x="367.0" y="1278.0" type="line"/>
      <point x="292.0" y="1260.75"/>
      <point x="201.0" y="1138.25"/>
      <point x="201.0" y="1055.0" type="qcurve" smooth="yes"/>
      <point x="201.0" y="959.75"/>
      <point x="280.0" y="851.0"/>
    </contour>
  </outline>
</glyph>
<glyph name="percent" format="1">
  <advance width="1208"/>
  <unicode hex="0025"/>
  <note>
percent
</note>
  <outline>
    <contour>
      <point x="322" y="0" type="line"/>
      <point x="797" y="1462" type="line"/>
      <point x="885" y="1462" type="line"/>
      <point x="410" y="0" type="line"/>
    </contour>
    <contour>
      <point x="295.0" y="565.0" type="qcurve" smooth="yes"/>
      <point x="234.625" y="565.0"/>
      <point x="156.296875" y="645.5572916666666"/>
      <point x="111.953125" y="779.6927083333334"/>
      <point x="94.0" y="943.125"/>
      <point x="94.0" y="1026.0" type="qcurve" smooth="yes"/>
      <point x="94.0" y="1137.0"/>
      <point x="127.41666666666666" y="1347.0"/>
      <point x="214.5" y="1483.0"/>
      <point x="295.0" y="1483.0" type="qcurve" smooth="yes"/>
      <point x="377.5" y="1483.0"/>
      <point x="466.25" y="1347.4166666666667"/>
      <point x="500.0" y="1137.5"/>
      <point x="500.0" y="1026.0" type="qcurve" smooth="yes"/>
      <point x="500.0" y="914.5"/>
      <point x="462.9166666666667" y="702.5833333333333"/>
      <point x="373.5" y="565.0"/>
    </contour>
    <contour>
      <point x="297.0" y="649.0" type="qcurve" smooth="yes"/>
      <point x="327.0" y="649.0"/>
      <point x="370.5" y="695.75"/>
      <point x="384.0" y="743.0" type="qcurve" smooth="yes"/>
      <point x="410.0" y="837.8235294117648"/>
      <point x="410.0" y="1028.0" type="qcurve" smooth="yes"/>
      <point x="410.0" y="1117.25"/>
      <point x="396.75" y="1253.75"/>
      <point x="384.0" y="1301.0" type="qcurve" smooth="yes"/>
      <point x="353.8550724637681" y="1405.0"/>
      <point x="293.0" y="1405.0" type="qcurve" smooth="yes"/>
      <point x="234.5" y="1405.0"/>
      <point x="209.0" y="1312.0" type="qcurve" smooth="yes"/>
      <point x="196.25" y="1264.75"/>
      <point x="184.0" y="1123.25"/>
      <point x="184.0" y="1028.0" type="qcurve" smooth="yes"/>
      <point x="184.0" y="840.3529411764706"/>
      <point x="210.0" y="744.0" type="qcurve" smooth="yes"/>
      <point x="222.75" y="696.75"/>
      <point x="266.25" y="649.0"/>
    </contour>
    <contour>
      <point x="909.0" y="-20.0" type="qcurve" smooth="yes"/>
      <point x="849.375" y="-20.0"/>
      <point x="771.5677083333334" y="61.052083333333336"/>
      <point x="727.1822916666666" y="195.44791666666666"/>
      <point x="709.0" y="358.25"/>
      <point x="709.0" y="440.0" type="qcurve" smooth="yes"/>
      <point x="709.0" y="551.5"/>
      <point x="741.9166666666666" y="761.4166666666665"/>
      <point x="828.5" y="897.0"/>
      <point x="909.0" y="897.0" type="qcurve" smooth="yes"/>
      <point x="991.5" y="897.0"/>
      <point x="1080.25" y="761.4166666666665"/>
      <point x="1114.0" y="551.5"/>
      <point x="1114.0" y="440.0" type="qcurve" smooth="yes"/>
      <point x="1114.0" y="328.0"/>
      <point x="1077.3333333333333" y="116.66666666666666"/>
      <point x="988.0" y="-20.0"/>
    </contour>
    <contour>
      <point x="911.0" y="63.0" type="qcurve" smooth="yes"/>
      <point x="971.1428571428571" y="63.0"/>
      <point x="998.0" y="157.0" type="qcurve" smooth="yes"/>
      <point x="1024.0" y="251.8235294117647"/>
      <point x="1024.0" y="442.0" type="qcurve" smooth="yes"/>
      <point x="1024.0" y="546.25"/>
      <point x="1006.0" y="696.5"/>
      <point x="988.0" y="743.0" type="qcurve" smooth="yes"/>
      <point x="973.75" y="781.25"/>
      <point x="933.25" y="819.0"/>
      <point x="907.0" y="819.0" type="qcurve" smooth="yes"/>
      <point x="848.0" y="819.0"/>
      <point x="824.0" y="726.0" type="qcurve" smooth="yes"/>
      <point x="799.0" y="633.3529411764706"/>
      <point x="799.0" y="442.0" type="qcurve" smooth="yes"/>
      <point x="799.0" y="346.75"/>
      <point x="811.25" y="205.25"/>
      <point x="824.0" y="158.0" type="qcurve" smooth="yes"/>
      <point x="849.6349206349206" y="63.0"/>
    </contour>
  </outline>
</glyph>
<glyph name="ampersand" format="1">
  <advance width="834"/>
  <unicode hex="0026"/>
  <note>
ampersand
</note>
  <outline>
    <contour>
      <point x="328.0" y="-20.0" type="qcurve" smooth="yes"/>
      <point x="246.50000000000003" y="-20.0"/>
      <point x="129.08333333333331" y="69.25"/>
      <point x="66.0" y="237.5"/>
      <point x="66.0" y="356.0" type="qcurve" smooth="yes"/>
      <point x="66.0" y="453.0"/>
      <point x="113.41666666666666" y="599.0833333333333"/>
      <point x="210.5" y="723.5"/>
      <point x="285" y="788" type="qcurve"/>
      <point x="284.0" y="790.0" type="line" smooth="yes"/>
      <point x="235.0" y="880.0"/>
      <point x="184.16666666666669" y="1012.8333333333333"/>
      <point x="166.0" y="1133.0"/>
      <point x="166.0" y="1204.0" type="qcurve" smooth="yes"/>
      <point x="166.0" y="1292.0"/>
      <point x="213.00000000000003" y="1416.833333333333"/>
      <point x="300.0" y="1483.0"/>
      <point x="360.0" y="1483.0" type="qcurve" smooth="yes"/>
      <point x="450.75" y="1483.0"/>
      <point x="555.0" y="1332.0"/>
      <point x="555.0" y="1194.0" type="qcurve" smooth="yes"/>
      <point x="555.0" y="1102.0"/>
      <point x="521.75" y="956.0833333333334"/>
      <point x="449.5" y="832.5"/>
      <point x="391" y="774" type="qcurve"/>
      <point x="627.0" y="352.0" type="line"/>
      <point x="655.5" y="411.25"/>
      <point x="684.0" y="557.25"/>
      <point x="684" y="645" type="qcurve"/>
      <point x="778.0" y="645.0" type="line"/>
      <point x="778.0" y="582.5"/>
      <point x="751.0833333333333" y="440.0"/>
      <point x="706.5" y="307.5"/>
      <point x="680" y="260" type="qcurve"/>
      <point x="836" y="0" type="line"/>
      <point x="727" y="0" type="line"/>
      <point x="629.0" y="178.0" type="line"/>
      <point x="580.5" y="104.5"/>
      <point x="488.08333333333326" y="17.75"/>
      <point x="388.0" y="-20.0"/>
    </contour>
    <contour>
      <point x="336.0" y="74.0" type="qcurve" smooth="yes"/>
      <point x="408.0" y="74.0"/>
      <point x="526.0" y="166.0"/>
      <point x="580" y="262" type="qcurve"/>
      <point x="326.0" y="717.0" type="line"/>
      <point x="262.5" y="658.5"/>
      <point x="191.08333333333331" y="551.3333333333334"/>
      <point x="162.0" y="431.5"/>
      <point x="162.0" y="354.0" type="qcurve" smooth="yes"/>
      <point x="162.0" y="219.0"/>
      <point x="257.25" y="74.0"/>
    </contour>
    <contour>
      <point x="348.0" y="850.0" type="qcurve"/>
      <point x="413.25" y="916.0"/>
      <point x="461.0" y="1088.25"/>
      <point x="461.0" y="1194.0" type="qcurve" smooth="yes"/>
      <point x="461.0" y="1293.75"/>
      <point x="408.5" y="1393.0"/>
      <point x="356.0" y="1393.0" type="qcurve" smooth="yes"/>
      <point x="310.25" y="1393.0"/>
      <point x="260.0" y="1290.75"/>
      <point x="260.0" y="1194.0" type="qcurve" smooth="yes"/>
      <point x="260.0" y="1136.0"/>
      <point x="282.33333333333337" y="1009.9166666666665"/>
      <point x="322.0" y="893.5"/>
    </contour>
  </outline>
</glyph>
<glyph name="parenleft" format="1">
  <advance width="565"/>
  <unicode hex="0028"/>
  <note>
parenleft
</note>
  <outline>
    <contour>
      <point x="401" y="-324" type="line"/>
      <point x="257.75" y="-156.75"/>
      <point x="104.0" y="303.0"/>
      <point x="104.0" y="561.0" type="qcurve" smooth="yes"/>
      <point x="104.0" y="819.75"/>
      <point x="260.0" y="1291.0"/>
      <point x="401" y="1462" type="qcurve"/>
      <point x="481.0" y="1462.0" type="line"/>
      <point x="346.75" y="1264.0"/>
      <point x="209.0" y="800.75"/>
      <point x="209.0" y="563.0" type="qcurve" smooth="yes"/>
      <point x="209.0" y="401.0"/>
      <point x="274.41666666666663" y="79.91666666666666"/>
      <point x="395.5" y="-209.5"/>
      <point x="479" y="-324" type="qcurve"/>
    </contour>
  </outline>
</glyph>
<glyph name="comma" format="1">
  <advance width="422"/>
  <unicode hex="002C"/>
  <outline>
    <contour>
      <point x="78" y="-264" type="line"/>
      <point x="152.2605633802817" y="-11.514084507042256"/>
      <point x="178" y="205" type="qcurve"/>
      <point x="293" y="205" type="line"/>
      <point x="307.0" y="182.0" type="line"/>
      <point x="274.0" y="69.5"/>
      <point x="191.25" y="-153.75"/>
      <point x="141" y="-264" type="qcurve"/>
    </contour>
  </outline>
</glyph>
<glyph name="hyphen" format="1">
  <advance width="516"/>
  <unicode hex="002D"/>
  <outline>
    <contour>
      <point x="53" y="502" type="line"/>
      <point x="53" y="604" type="line"/>
      <point x="463" y="604" type="line"/>
      <point x="463" y="502" type="line"/>
    </contour>
  </outline>
</glyph>
<glyph name="period" format="1">
  <advance width="422"/>
  <unicode hex="002E"/>
  <outline>
    <contour>
      <point x="211.0" y="-16.0" type="qcurve" smooth="yes"/>
      <point x="172.0" y="-16.0"/>
      <point x="133.0" y="36.75"/>
      <point x="133.0" y="90.0" type="qcurve" smooth="yes"/>
      <point x="133.0" y="143.25"/>
      <point x="172.0" y="197.0"/>
      <point x="211.0" y="197.0" type="qcurve" smooth="yes"/>
      <point x="243.25" y="197.0"/>
      <point x="289.0" y="149.25"/>
      <point x="289.0" y="90.0" type="qcurve" smooth="yes"/>
      <point x="289.0" y="33.0"/>
      <point x="243.25" y="-16.0"/>
    </contour>
  </outline>
</glyph>
<glyph name="zero" format="1">
  <advance width="819"/>
  <unicode hex="0030"/>
  <outline>
    <contour>
      <point x="408.0" y="-20.0" type="qcurve" smooth="yes"/>
      <point x="323.25" y="-20.0"/>
      <point x="201.5" y="68.5"/>
      <point x="164.0" y="157.0" type="qcurve" smooth="yes"/>
      <point x="125.75" y="244.75"/>
      <point x="88.0" y="532.75"/>
      <point x="88.0" y="733.0" type="qcurve" smooth="yes"/>
      <point x="88.0" y="937.75"/>
      <point x="136.0" y="1236.0"/>
      <point x="184.0" y="1329.0" type="qcurve" smooth="yes"/>
      <point x="223.75" y="1406.25"/>
      <point x="335.25" y="1483.0"/>
      <point x="408.0" y="1483.0" type="qcurve" smooth="yes"/>
      <point x="491.25" y="1483.0"/>
      <point x="613.0" y="1390.0"/>
      <point x="652.0" y="1297.0" type="qcurve" smooth="yes"/>
      <point x="690.25" y="1204.0"/>
      <point x="729.0" y="922.0"/>
      <point x="729.0" y="733.0" type="qcurve" smooth="yes"/>
      <point x="729.0" y="547.75"/>
      <point x="688.75" y="266.25"/>
      <point x="649.0" y="171.0" type="qcurve" smooth="yes"/>
      <point x="608.5" y="75.75"/>
      <point x="488.25" y="-20.0"/>
    </contour>
    <contour>
      <point x="408.0" y="74.0" type="qcurve" smooth="yes"/>
      <point x="451.5" y="74.0"/>
      <point x="520.75" y="125.25"/>
      <point x="547.0" y="177.0" type="qcurve" smooth="yes"/>
      <point x="573.5" y="229.5"/>
      <point x="609.0833333333334" y="387.91666666666663"/>
      <point x="627.0" y="600.0"/>
      <point x="627.0" y="733.0" type="qcurve" smooth="yes"/>
      <point x="627.0" y="922.75"/>
      <point x="590.75" y="1192.5"/>
      <point x="554.0" y="1272.0" type="qcurve" smooth="yes"/>
      <point x="500.0" y="1389.0"/>
      <point x="408.0" y="1389.0" type="qcurve" smooth="yes"/>
      <point x="351.75" y="1389.0"/>
      <point x="269.25" y="1308.0"/>
      <point x="243.0" y="1227.0" type="qcurve" smooth="yes"/>
      <point x="216.75" y="1146.0"/>
      <point x="190.0" y="898.75"/>
      <point x="190.0" y="733.0" type="qcurve" smooth="yes"/>
      <point x="190.0" y="404.0571428571429"/>
      <point x="243.0" y="239.0" type="qcurve" smooth="yes"/>
      <point x="295.5" y="74.0"/>
    </contour>
  </outline>
</glyph>
<glyph name="one" format="1">
  <advance width="819"/>
  <unicode hex="0031"/>
  <outline>
    <contour>
      <point x="416" y="0" type="line"/>
      <point x="416.0" y="1075.0" type="line" smooth="yes"/>
      <point x="416.0" y="1140.25"/>
      <point x="420.25" y="1282.25"/>
      <point x="424.0" y="1358.0" type="qcurve"/>
      <point x="413.5" y="1343.75"/>
      <point x="364.25" y="1291.25"/>
      <point x="326.0" y="1253.0" type="qcurve" smooth="yes"/>
      <point x="294.5" y="1224.5"/>
      <point x="232.5" y="1167.5"/>
      <point x="201" y="1139" type="qcurve"/>
      <point x="150" y="1202" type="line"/>
      <point x="432" y="1462" type="line"/>
      <point x="512" y="1462" type="line"/>
      <point x="512" y="0" type="line"/>
    </contour>
  </outline>
</glyph>
<glyph name="two" format="1">
  <advance width="819"/>
  <unicode hex="0032"/>
  <outline>
    <contour>
      <point x="74" y="0" type="line"/>
      <point x="74" y="78" type="line"/>
      <point x="369.0" y="524.0" type="line" smooth="yes"/>
      <point x="423.75" y="607.25"/>
      <point x="501.75" y="741.5"/>
      <point x="528.0" y="800.0" type="qcurve" smooth="yes"/>
      <point x="567.75" y="887.75"/>
      <point x="598.0" y="1042.75"/>
      <point x="598.0" y="1135.0" type="qcurve" smooth="yes"/>
      <point x="598.0" y="1252.75"/>
      <point x="476.0" y="1393.0"/>
      <point x="371.0" y="1393.0" type="qcurve" smooth="yes"/>
      <point x="302.0" y="1393.0"/>
      <point x="198.75" y="1352.25"/>
      <point x="147" y="1311" type="qcurve"/>
      <point x="94.0" y="1386.0" type="line"/>
      <point x="163.75" y="1439.25"/>
      <point x="293.0" y="1483.0"/>
      <point x="377.0" y="1483.0" type="qcurve" smooth="yes"/>
      <point x="527.75" y="1483.0"/>
      <point x="696.0" y="1294.75"/>
      <point x="696.0" y="1135.0" type="qcurve" smooth="yes"/>
      <point x="696.0" y="1024.75"/>
      <point x="647.25" y="831.0"/>
      <point x="603.0" y="738.0" type="qcurve" smooth="yes"/>
      <point x="580.5" y="691.5"/>
      <point x="506.75" y="570.25"/>
      <point x="455.0" y="496.0" type="qcurve" smooth="yes"/>
      <point x="387.5" y="396.25"/>
      <point x="253.5" y="197.75"/>
      <point x="186" y="98" type="qcurve"/>
      <point x="186" y="90" type="line"/>
      <point x="729" y="90" type="line"/>
      <point x="729" y="0" type="line"/>
    </contour>
  </outline>
</glyph>
<glyph name="four" format="1">
  <advance width="819"/>
  <unicode hex="0034"/>
  <outline>
    <contour>
      <point x="541" y="0" type="line"/>
      <point x="541" y="332" type="line"/>
      <point x="37" y="332" type="line"/>
      <point x="37" y="416" type="line"/>
      <point x="516" y="1479" type="line"/>
      <point x="637" y="1479" type="line"/>
      <point x="637" y="422" type="line"/>
      <point x="793" y="422" type="line"/>
      <point x="793" y="332" type="line"/>
      <point x="637" y="332" type="line"/>
      <point x="637" y="0" type="line"/>
    </contour>
    <contour>
      <point x="137" y="422" type="line"/>
      <point x="541" y="422" type="line"/>
      <point x="541.0" y="1128.0" type="line" smooth="yes"/>
      <point x="541.0" y="1168.5"/>
      <point x="542.9166666666666" y="1248.6666666666665"/>
      <point x="546.5" y="1327.5"/>
      <point x="549" y="1366" type="qcurve"/>
      <point x="543.0" y="1366.0" type="line"/>
      <point x="524.25" y="1318.75"/>
      <point x="487.75" y="1225.25"/>
      <point x="469" y="1178" type="qcurve" smooth="yes"/>
    </contour>
  </outline>
</glyph>
<glyph name="five" format="1">
  <advance width="819"/>
  <unicode hex="0035"/>
  <outline>
    <contour>
      <point x="342.0" y="-20.0" type="qcurve" smooth="yes"/>
      <point x="264.0" y="-20.0"/>
      <point x="142.25" y="7.25"/>
      <point x="98" y="35" type="qcurve"/>
      <point x="98.0" y="145.0" type="line"/>
      <point x="134.5" y="119.5"/>
      <point x="212.16666666666663" y="85.25"/>
      <point x="294.5" y="68.0"/>
      <point x="338.0" y="68.0" type="qcurve" smooth="yes"/>
      <point x="470.75" y="68.0"/>
      <point x="627.0" y="286.25"/>
      <point x="627.0" y="461.0" type="qcurve" smooth="yes"/>
      <point x="627.0" y="625.25"/>
      <point x="487.25" y="788.0"/>
      <point x="365.0" y="788.0" type="qcurve" smooth="yes"/>
      <point x="263.0" y="788.0"/>
      <point x="158" y="758" type="qcurve"/>
      <point x="109" y="821" type="line"/>
      <point x="152" y="1462" type="line"/>
      <point x="647" y="1462" type="line"/>
      <point x="647" y="1368" type="line"/>
      <point x="233" y="1368" type="line"/>
      <point x="197.0" y="854.0" type="line"/>
      <point x="242.0" y="863.75"/>
      <point x="329.0" y="874.0"/>
      <point x="371.0" y="874.0" type="qcurve" smooth="yes"/>
      <point x="480.5" y="874.0"/>
      <point x="640.25" y="775.75"/>
      <point x="727.0" y="592.5"/>
      <point x="727.0" y="465.0" type="qcurve" smooth="yes"/>
      <point x="727.0" y="317.5"/>
      <point x="631.5833333333333" y="99.58333333333331"/>
      <point x="458.5" y="-20.0"/>
    </contour>
  </outline>
</glyph>
<glyph name="six" format="1">
  <advance width="819"/>
  <unicode hex="0036"/>
  <outline>
    <contour>
      <point x="422.0" y="-20.0" type="qcurve" smooth="yes"/>
      <point x="265.25" y="-20.0"/>
      <point x="100.0" y="310.25"/>
      <point x="100.0" y="623.0" type="qcurve" smooth="yes"/>
      <point x="100.0" y="885.5"/>
      <point x="177.25" y="1246.0"/>
      <point x="253.0" y="1348.0" type="qcurve" smooth="yes"/>
      <point x="353.8791208791209" y="1483.0"/>
      <point x="524.0" y="1483.0" type="qcurve" smooth="yes"/>
      <point x="562.25" y="1483.0"/>
      <point x="626.25" y="1471.25"/>
      <point x="651" y="1460" type="qcurve"/>
      <point x="651.0" y="1364.0" type="line"/>
      <point x="593.6470588235294" y="1389.0"/>
      <point x="516.0" y="1389.0" type="qcurve" smooth="yes"/>
      <point x="444.0" y="1389.0"/>
      <point x="331.5" y="1306.5"/>
      <point x="291.0" y="1224.0" type="qcurve" smooth="yes"/>
      <point x="209.57175840413743" y="1059.6630033247136"/>
      <point x="199" y="741" type="qcurve"/>
      <point x="207.0" y="741.0" type="line"/>
      <point x="240.75" y="816.75"/>
      <point x="358.75" y="903.0"/>
      <point x="436.0" y="903.0" type="qcurve" smooth="yes"/>
      <point x="571.75" y="903.0"/>
      <point x="729.0" y="661.25"/>
      <point x="729.0" y="449.0" type="qcurve" smooth="yes"/>
      <point x="729.0" y="230.0"/>
      <point x="563.0" y="-20.0"/>
    </contour>
    <contour>
      <point x="424.0" y="74.0" type="qcurve" smooth="yes"/>
      <point x="469.75" y="74.0"/>
      <point x="541.5" y="113.0"/>
      <point x="567.0" y="152.0" type="qcurve" smooth="yes"/>
      <point x="629.0" y="244.2439024390244"/>
      <point x="629.0" y="444.0" type="qcurve" smooth="yes"/>
      <point x="629.0" y="621.75"/>
      <point x="524.75" y="811.0"/>
      <point x="422.0" y="811.0" type="qcurve" smooth="yes"/>
      <point x="376.25" y="811.0"/>
      <point x="299.5" y="775.0"/>
      <point x="271.0" y="742.0" type="qcurve" smooth="yes"/>
      <point x="238.0" y="703.75"/>
      <point x="201.0" y="591.5"/>
      <point x="201.0" y="524.0" type="qcurve" smooth="yes"/>
      <point x="201.0" y="398.75"/>
      <point x="258.5" y="183.75"/>
      <point x="308.0" y="129.0" type="qcurve" smooth="yes"/>
      <point x="357.05405405405406" y="74.0"/>
    </contour>
  </outline>
</glyph>
<glyph name="nine" format="1">
  <advance width="819"/>
  <unicode hex="0039"/>
  <outline>
    <contour>
      <point x="281.0" y="-20.0" type="qcurve" smooth="yes"/>
      <point x="244.25" y="-20.0"/>
      <point x="160.75" y="-6.25"/>
      <point x="145" y="2" type="qcurve"/>
      <point x="145.0" y="98.0" type="line"/>
      <point x="200.5" y="74.0"/>
      <point x="289.0" y="74.0" type="qcurve" smooth="yes"/>
      <point x="433.75" y="74.0"/>
      <point x="602.25" y="409.75"/>
      <point x="612" y="721" type="qcurve"/>
      <point x="604.0" y="721.0" type="line"/>
      <point x="570.25" y="645.25"/>
      <point x="452.25" y="559.0"/>
      <point x="375.0" y="559.0" type="qcurve" smooth="yes"/>
      <point x="237.75" y="559.0"/>
      <point x="82.0" y="804.75"/>
      <point x="82.0" y="1014.0" type="qcurve" smooth="yes"/>
      <point x="82.0" y="1232.25"/>
      <point x="251.0" y="1483.0"/>
      <point x="401.0" y="1483.0" type="qcurve" smooth="yes"/>
      <point x="513.5" y="1483.0"/>
      <point x="658.25" y="1307.5"/>
      <point x="689.0" y="1141.0" type="qcurve" smooth="yes"/>
      <point x="699.5" y="1080.25"/>
      <point x="711.0" y="938.25"/>
      <point x="711.0" y="858.0" type="qcurve" smooth="yes"/>
      <point x="711.0" y="318.5090909090909"/>
      <point x="544.0" y="109.0" type="qcurve" smooth="yes"/>
      <point x="442.0" y="-20.0"/>
    </contour>
    <contour>
      <point x="389.0" y="651.0" type="qcurve" smooth="yes"/>
      <point x="452.75" y="651.0"/>
      <point x="549.25" y="722.0"/>
      <point x="577.0" y="785.0" type="qcurve" smooth="yes"/>
      <point x="610.0" y="862.0"/>
      <point x="610.0" y="961.0" type="qcurve" smooth="yes"/>
      <point x="610.0" y="1086.25"/>
      <point x="557.0" y="1286.25"/>
      <point x="509.0" y="1338.0" type="qcurve" smooth="yes"/>
      <point x="461.0" y="1389.0"/>
      <point x="395.0" y="1389.0" type="qcurve" smooth="yes"/>
      <point x="319.0" y="1389.0"/>
      <point x="268.0" y="1335.0" type="qcurve" smooth="yes"/>
      <point x="226.75" y="1290.75"/>
      <point x="182.0" y="1132.75"/>
      <point x="182.0" y="1018.0" type="qcurve" smooth="yes"/>
      <point x="182.0" y="840.25"/>
      <point x="286.25" y="651.0"/>
    </contour>
  </outline>
</glyph>
<glyph name="colon" format="1">
  <advance width="422"/>
  <unicode hex="003A"/>
  <note>
colon
</note>
  <outline>
    <contour>
      <point x="211.0" y="874.0" type="qcurve" smooth="yes"/>
      <point x="133.0" y="874.0"/>
      <point x="133.0" y="981.0" type="qcurve" smooth="yes"/>
      <point x="133.0" y="1087.0"/>
      <point x="211.0" y="1087.0" type="qcurve" smooth="yes"/>
      <point x="289.0" y="1087.0"/>
      <point x="289.0" y="981.0" type="qcurve" smooth="yes"/>
      <point x="289.0" y="924.0"/>
      <point x="243.25" y="874.0"/>
    </contour>
    <contour>
      <point x="211.0" y="-16.0" type="qcurve" smooth="yes"/>
      <point x="133.0" y="-16.0"/>
      <point x="133.0" y="90.0" type="qcurve" smooth="yes"/>
      <point x="133.0" y="197.0"/>
      <point x="211.0" y="197.0" type="qcurve" smooth="yes"/>
      <point x="243.25" y="197.0"/>
      <point x="289.0" y="149.25"/>
      <point x="289.0" y="90.0" type="qcurve" smooth="yes"/>
      <point x="289.0" y="33.0"/>
      <point x="243.25" y="-16.0"/>
    </contour>
  </outline>
</glyph>
<glyph name="question" format="1">
  <advance width="578"/>
  <unicode hex="003F"/>
  <note>
question
</note>
  <outline>
    <contour>
      <point x="190" y="367" type="line"/>
      <point x="190.0" y="418.0" type="line" smooth="yes"/>
      <point x="190.0" y="494.0"/>
      <point x="207.41666666666666" y="607.0"/>
      <point x="250.49999999999997" y="708.0"/>
      <point x="289.0" y="766.0" type="qcurve" smooth="yes"/>
      <point x="301.0" y="784.75"/>
      <point x="323.25" y="819.5"/>
      <point x="333.0" y="836.0" type="qcurve" smooth="yes"/>
      <point x="372.5" y="902.5"/>
      <point x="414.41666666666663" y="1005.3333333333333"/>
      <point x="430.0" y="1099.5"/>
      <point x="430.0" y="1153.0" type="qcurve" smooth="yes"/>
      <point x="430.0" y="1269.25"/>
      <point x="338.75" y="1393.0"/>
      <point x="260.0" y="1393.0" type="qcurve" smooth="yes"/>
      <point x="203.0" y="1393.0"/>
      <point x="123.25" y="1360.75"/>
      <point x="82" y="1333" type="qcurve"/>
      <point x="35.0" y="1409.0" type="line"/>
      <point x="84.5" y="1445.75"/>
      <point x="197.0" y="1483.0"/>
      <point x="260.0" y="1483.0" type="qcurve" smooth="yes"/>
      <point x="346.5" y="1483.0"/>
      <point x="467.08333333333326" y="1408.9166666666665"/>
      <point x="530.0" y="1264.5"/>
      <point x="530.0" y="1159.0" type="qcurve" smooth="yes"/>
      <point x="530.0" y="1101.2447499999998"/>
      <point x="517.75" y="1010.0"/>
      <point x="502.0" y="965.0" type="qcurve" smooth="yes"/>
      <point x="484.75" y="916.25"/>
      <point x="421.25" y="805.5"/>
      <point x="371.0" y="729.0" type="qcurve" smooth="yes"/>
      <point x="336.5" y="677.25"/>
      <point x="292.0" y="590.75"/>
      <point x="280.0" y="545.0" type="qcurve" smooth="yes"/>
      <point x="271.75" y="513.5"/>
      <point x="264.0" y="444.25"/>
      <point x="264" y="403" type="qcurve" smooth="yes"/>
      <point x="264" y="367" type="line"/>
    </contour>
    <contour>
      <point x="233.0" y="-16.0" type="qcurve" smooth="yes"/>
      <point x="194.75" y="-16.0"/>
      <point x="156.0" y="36.75"/>
      <point x="156.0" y="90.0" type="qcurve" smooth="yes"/>
      <point x="156.0" y="143.25"/>
      <point x="194.75" y="197.0"/>
      <point x="233.0" y="197.0" type="qcurve" smooth="yes"/>
      <point x="265.25" y="197.0"/>
      <point x="311.0" y="149.25"/>
      <point x="311.0" y="90.0" type="qcurve" smooth="yes"/>
      <point x="311.0" y="33.0"/>
      <point x="265.25" y="-16.0"/>
    </contour>
  </outline>
</glyph>
<glyph name="A" format="1">
  <advance width="813"/>
  <unicode hex="0041"/>
  <outline>
    <contour>
      <point x="813" y="0" type="line"/>
      <point x="713" y="0" type="line"/>
      <point x="584" y="530" type="line"/>
      <point x="229" y="530" type="line"/>
      <point x="102" y="0" type="line"/>
      <point x="0" y="0" type="line"/>
      <point x="352" y="1462" type="line"/>
      <point x="453" y="1462" type="line"/>
    </contour>
    <contour>
      <point x="248" y="629" type="qcurve"/>
      <point x="561" y="629" type="line"/>
      <point x="432.0" y="1174.0" type="line" smooth="yes"/>
      <point x="422.25" y="1219.75"/>
      <point x="406.25" y="1306.75"/>
      <point x="401.0" y="1348.0" type="qcurve"/>
      <point x="396.5" y="1304.5"/>
      <point x="382.75" y="1217.5"/>
      <point x="373.0" y="1174.0" type="qcurve" smooth="yes"/>
      <point x="341.5" y="1037.5"/>
      <point x="279.5" y="765.5"/>
    </contour>
    <contour>
      <point x="407" y="0" type="move" name="bottom"/>
    </contour>
    <contour>
      <point x="809" y="10" type="move" name="ogonek"/>
    </contour>
    <contour>
      <point x="407" y="1462" type="move" name="top"/>
    </contour>
  </outline>
</glyph>
<glyph name="B" format="1">
  <advance width="907"/>
  <unicode hex="0042"/>
  <outline>
    <contour>
      <point x="160" y="0" type="line"/>
      <point x="160" y="1462" type="line"/>
      <point x="440.0" y="1462.0" type="line" smooth="yes"/>
      <point x="611.75" y="1462.0"/>
      <point x="797.0" y="1285.75"/>
      <point x="797.0" y="1114.0" type="qcurve" smooth="yes"/>
      <point x="797.0" y="965.5"/>
      <point x="688.75" y="795.75"/>
      <point x="580" y="774" type="qcurve"/>
      <point x="580.0" y="766.0" type="line"/>
      <point x="705.25" y="739.75"/>
      <point x="827.0" y="569.0"/>
      <point x="827.0" y="416.0" type="qcurve" smooth="yes"/>
      <point x="827.0" y="220.25"/>
      <point x="652.75" y="0.0"/>
      <point x="496" y="0" type="qcurve" smooth="yes"/>
    </contour>
    <contour>
      <point x="258" y="1372" type="line"/>
      <point x="258" y="811" type="line"/>
      <point x="442.0" y="811.0" type="line" smooth="yes"/>
      <point x="579.25" y="811.0"/>
      <point x="696.0" y="962.25"/>
      <point x="696.0" y="1116.0" type="qcurve" smooth="yes"/>
      <point x="696.0" y="1239.75"/>
      <point x="566.75" y="1372.0"/>
      <point x="440" y="1372" type="qcurve" smooth="yes"/>
    </contour>
    <contour>
      <point x="455" y="721" type="qcurve" smooth="yes"/>
      <point x="258" y="721" type="line"/>
      <point x="258" y="90" type="line"/>
      <point x="483.0" y="90.0" type="line" smooth="yes"/>
      <point x="725.0" y="90.0"/>
      <point x="725.0" y="418.0" type="qcurve" smooth="yes"/>
      <point x="725.0" y="564.25"/>
      <point x="583.25" y="721.0"/>
    </contour>
    <contour>
      <point x="454" y="0" type="move" name="bottom"/>
    </contour>
    <contour>
      <point x="454" y="1462" type="move" name="top"/>
    </contour>
  </outline>
</glyph>
<glyph name="C" format="1">
  <advance width="860"/>
  <unicode hex="0043"/>
  <outline>
    <contour>
      <point x="573.0" y="1391.0" type="qcurve" smooth="yes"/>
      <point x="463.0" y="1391.0"/>
      <point x="301.33333333333337" y="1233.6666666666667"/>
      <point x="213.0" y="939.0"/>
      <point x="213.0" y="733.0" type="qcurve" smooth="yes"/>
      <point x="213.0" y="532.0"/>
      <point x="303.0" y="234.25"/>
      <point x="387.0" y="154.0" type="qcurve" smooth="yes"/>
      <point x="471.52830188679246" y="74.0"/>
      <point x="582.0" y="74.0" type="qcurve" smooth="yes"/>
      <point x="639.0" y="74.0"/>
      <point x="736.75" y="94.75"/>
      <point x="778" y="115" type="qcurve"/>
      <point x="778.0" y="25.0" type="line"/>
      <point x="739.0" y="2.5"/>
      <point x="636.75" y="-20.0"/>
      <point x="573.0" y="-20.0" type="qcurve" smooth="yes"/>
      <point x="480.5" y="-20.0"/>
      <point x="325.0833333333333" y="60.49999999999999"/>
      <point x="206.0" y="217.0"/>
      <point x="168.0" y="331.0" type="qcurve" smooth="yes"/>
      <point x="139.5" y="415.75"/>
      <point x="111.0" y="618.0"/>
      <point x="111.0" y="735.0" type="qcurve" smooth="yes"/>
      <point x="111.0" y="968.5"/>
      <point x="223.41666666666663" y="1304.5833333333333"/>
      <point x="431.5" y="1485.0"/>
      <point x="575.0" y="1485.0" type="qcurve" smooth="yes"/>
      <point x="641.75" y="1485.0"/>
      <point x="758.75" y="1453.75"/>
      <point x="809" y="1423" type="qcurve"/>
      <point x="764.0" y="1337.0" type="line"/>
      <point x="736.0" y="1355.0"/>
      <point x="674.75" y="1379.0"/>
      <point x="608.5" y="1391.0"/>
    </contour>
    <contour>
      <point x="430" y="0" type="move" name="bottom"/>
    </contour>
    <contour>
      <point x="430" y="1462" type="move" name="top"/>
    </contour>
  </outline>
</glyph>
<glyph name="D" format="1">
  <advance width="995"/>
  <unicode hex="0044"/>
  <outline>
    <contour>
      <point x="885.0" y="745.0" type="qcurve" smooth="yes"/>
      <point x="885.0" y="372.25"/>
      <point x="652.5" y="0.0"/>
      <point x="420" y="0" type="qcurve" smooth="yes"/>
      <point x="160" y="0" type="line"/>
      <point x="160" y="1462" type="line"/>
      <point x="426.0" y="1462.0" type="line" smooth="yes"/>
      <point x="576.5" y="1462.0"/>
      <point x="780.9166666666665" y="1298.9166666666665"/>
      <point x="885.0" y="979.5"/>
    </contour>
    <contour>
      <point x="782.0" y="739.0" type="qcurve" smooth="yes"/>
      <point x="782.0" y="1048.0"/>
      <point x="599.75" y="1372.0"/>
      <point x="422" y="1372" type="qcurve" smooth="yes"/>
      <point x="258" y="1372" type="line"/>
      <point x="258" y="90" type="line"/>
      <point x="414.0" y="90.0" type="line" smooth="yes"/>
      <point x="603.75" y="90.0"/>
      <point x="782.0" y="421.75"/>
    </contour>
    <contour>
      <point x="498" y="0" type="move" name="bottom"/>
    </contour>
    <contour>
      <point x="498" y="731" type="move" name="center"/>
    </contour>
    <contour>
      <point x="498" y="1462" type="move" name="top"/>
    </contour>
  </outline>
</glyph>
<glyph name="G" format="1">
  <advance width="1075"/>
  <unicode hex="0047"/>
  <outline>
    <contour>
      <point x="614.0" y="-20.0" type="qcurve" smooth="yes"/>
      <point x="374.75" y="-20.0"/>
      <point x="111.0" y="380.25"/>
      <point x="111.0" y="735.0" type="qcurve" smooth="yes"/>
      <point x="111.0" y="972.0"/>
      <point x="233.5" y="1306.25"/>
      <point x="349.0" y="1394.0" type="qcurve" smooth="yes"/>
      <point x="406.75" y="1437.5"/>
      <point x="548.5" y="1483.0"/>
      <point x="631.0" y="1483.0" type="qcurve" smooth="yes"/>
      <point x="714.25" y="1483.0"/>
      <point x="870.5" y="1436.25"/>
      <point x="944" y="1389" type="qcurve"/>
      <point x="897.0" y="1303.0" type="line"/>
      <point x="759.7796610169491" y="1391.0"/>
      <point x="631.0" y="1391.0" type="qcurve" smooth="yes"/>
      <point x="494.5" y="1391.0"/>
      <point x="309.25" y="1240.3333333333333"/>
      <point x="215.0" y="947.0"/>
      <point x="215.0" y="733.0" type="qcurve" smooth="yes"/>
      <point x="215.0" y="418.75"/>
      <point x="428.0" y="74.0"/>
      <point x="623.0" y="74.0" type="qcurve" smooth="yes"/>
      <point x="692.75" y="74.0"/>
      <point x="812.5" y="92.25"/>
      <point x="862" y="111" type="qcurve"/>
      <point x="862" y="643" type="line"/>
      <point x="641" y="643" type="line"/>
      <point x="641" y="737" type="line"/>
      <point x="961" y="737" type="line"/>
      <point x="961.0" y="45.0" type="line"/>
      <point x="877.75" y="12.75"/>
      <point x="704.0" y="-20.0"/>
    </contour>
    <contour>
      <point x="568" y="0" type="move" name="bottom"/>
    </contour>
    <contour>
      <point x="631" y="1462" type="move" name="top"/>
    </contour>
  </outline>
</glyph>
<glyph name="I" format="1">
  <advance width="418"/>
  <unicode hex="0049"/>
  <outline>
    <contour>
      <point x="258" y="0" type="line"/>
      <point x="160" y="0" type="line"/>
      <point x="160" y="1462" type="line"/>
      <point x="258" y="1462" type="line"/>
    </contour>
    <contour>
      <point x="209" y="0" type="move" name="bottom"/>
    </contour>
    <contour>
      <point x="376" y="10" type="move" name="ogonek"/>
    </contour>
    <contour>
      <point x="209" y="1462" type="move" name="top"/>
    </contour>
    <contour>
      <point x="20" y="1462" type="move" name="topleft"/>
    </contour>
  </outline>
</glyph>
<glyph name="J" format="1">
  <advance width="401"/>
  <unicode hex="004A"/>
  <outline>
    <contour>
      <point x="27.0" y="-369.0" type="qcurve" smooth="yes"/>
      <point x="-41.470588235294116" y="-369.0"/>
      <point x="-90" y="-344" type="qcurve"/>
      <point x="-90.0" y="-252.0" type="line"/>
      <point x="-39.230769230769226" y="-272.0"/>
      <point x="25.0" y="-272.0" type="qcurve" smooth="yes"/>
      <point x="87.76923076923077" y="-272.0"/>
      <point x="119.0" y="-214.0" type="qcurve" smooth="yes"/>
      <point x="150.0" y="-157.9047619047619"/>
      <point x="150" y="-25" type="qcurve" smooth="yes"/>
      <point x="150" y="1462" type="line"/>
      <point x="248" y="1462" type="line"/>
      <point x="248.0" y="-23.0" type="line" smooth="yes"/>
      <point x="248.0" y="-220.75510204081633"/>
      <point x="173.0" y="-308.0" type="qcurve" smooth="yes"/>
      <point x="116.575" y="-369.0"/>
    </contour>
    <contour>
      <point x="201" y="0" type="move" name="bottom"/>
    </contour>
    <contour>
      <point x="201" y="1462" type="move" name="top"/>
    </contour>
  </outline>
</glyph>
<glyph name="K" format="1">
  <advance width="825"/>
  <unicode hex="004B"/>
  <outline>
    <contour>
      <point x="430" y="819" type="line"/>
      <point x="825" y="0" type="line"/>
      <point x="715" y="0" type="line"/>
      <point x="371" y="729" type="line"/>
      <point x="258" y="580" type="line"/>
      <point x="258" y="0" type="line"/>
      <point x="160" y="0" type="line"/>
      <point x="160" y="1462" type="line"/>
      <point x="258" y="1462" type="line"/>
      <point x="258.0" y="688.0" type="line"/>
      <point x="272.25" y="714.25"/>
      <point x="350.25" y="855.25"/>
      <point x="414" y="970" type="qcurve" smooth="yes"/>
      <point x="690" y="1462" type="line"/>
      <point x="797" y="1462" type="line"/>
    </contour>
    <contour>
      <point x="413" y="0" type="move" name="bottom"/>
    </contour>
    <contour>
      <point x="413" y="1462" type="move" name="top"/>
    </contour>
  </outline>
</glyph>
<glyph name="L" format="1">
  <advance width="711"/>
  <unicode hex="004C"/>
  <outline>
    <contour>
      <point x="670" y="0" type="line"/>
      <point x="160" y="0" type="line"/>
      <point x="160" y="1462" type="line"/>
      <point x="258" y="1462" type="line"/>
      <point x="258" y="94" type="line"/>
      <point x="670" y="94" type="line"/>
    </contour>
    <contour>
      <point x="356" y="0" type="move" name="bottom"/>
    </contour>
    <contour>
      <point x="356" y="731" type="move" name="center"/>
    </contour>
    <contour>
      <point x="356" y="1462" type="move" name="top"/>
    </contour>
    <contour>
      <point x="691" y="1462" type="move" name="topright"/>
    </contour>
  </outline>
</glyph>
<glyph name="N" format="1">
  <advance width="1090"/>
  <unicode hex="004E"/>
  <outline>
    <contour>
      <point x="160" y="0" type="line"/>
      <point x="160" y="1462" type="line"/>
      <point x="287" y="1462" type="line"/>
      <point x="836" y="166" type="line"/>
      <point x="842.0" y="166.0" type="line"/>
      <point x="838.25" y="247.75"/>
      <point x="834.0" y="385.25"/>
      <point x="834" y="440" type="qcurve" smooth="yes"/>
      <point x="834" y="1462" type="line"/>
      <point x="930" y="1462" type="line"/>
      <point x="930" y="0" type="line"/>
      <point x="805" y="0" type="line"/>
      <point x="252" y="1311" type="line"/>
      <point x="244.0" y="1311.0" type="line"/>
      <point x="250.0" y="1242.75"/>
      <point x="256.0" y="1112.0"/>
      <point x="256" y="1049" type="qcurve" smooth="yes"/>
      <point x="256" y="0" type="line"/>
    </contour>
    <contour>
      <point x="545" y="0" type="move" name="bottom"/>
    </contour>
    <contour>
      <point x="545" y="1462" type="move" name="top"/>
    </contour>
  </outline>
</glyph>
<glyph name="O" format="1">
  <advance width="1065"/>
  <unicode hex="004F"/>
  <outline>
    <contour>
      <point x="954.0" y="733.0" type="qcurve" smooth="yes"/>
      <point x="954.0" y="490.99999999999994"/>
      <point x="856.7499999999999" y="154.83333333333331"/>
      <point x="668.5" y="-20.0"/>
      <point x="532.0" y="-20.0" type="qcurve" smooth="yes"/>
      <point x="394.0" y="-20.0"/>
      <point x="206.49999999999997" y="156.24999999999997"/>
      <point x="111.0" y="493.5"/>
      <point x="111.0" y="735.0" type="qcurve" smooth="yes"/>
      <point x="111.0" y="987.0"/>
      <point x="205.08333333333334" y="1319.0"/>
      <point x="393.5" y="1483.0"/>
      <point x="535.0" y="1483.0" type="qcurve" smooth="yes"/>
      <point x="671.0" y="1483.0"/>
      <point x="857.8333333333333" y="1308.4166666666665"/>
      <point x="954.0" y="973.5"/>
    </contour>
    <contour>
      <point x="213.0" y="733.0" type="qcurve" smooth="yes"/>
      <point x="213.0" y="406.75"/>
      <point x="376.0" y="74.0"/>
      <point x="532.0" y="74.0" type="qcurve" smooth="yes"/>
      <point x="688.75" y="74.0"/>
      <point x="852.0" y="403.75"/>
      <point x="852.0" y="733.0" type="qcurve" smooth="yes"/>
      <point x="852.0" y="1057.75"/>
      <point x="691.75" y="1389.0"/>
      <point x="535.0" y="1389.0" type="qcurve" smooth="yes"/>
      <point x="373.75" y="1389.0"/>
      <point x="213.0" y="1054.0"/>
    </contour>
    <contour>
      <point x="533" y="0" type="move" name="bottom"/>
    </contour>
    <contour>
      <point x="533" y="731" type="move" name="center"/>
    </contour>
    <contour>
      <point x="958" y="10" type="move" name="ogonek"/>
    </contour>
    <contour>
      <point x="533" y="1462" type="move" name="top"/>
    </contour>
    <contour>
      <point x="180" y="1462" type="move" name="topleft"/>
    </contour>
    <contour>
      <point x="1045" y="1462" type="move" name="topright"/>
    </contour>
  </outline>
</glyph>
<glyph name="Q" format="1">
  <advance width="1065"/>
  <unicode hex="0051"/>
  <outline>
    <contour>
      <point x="768" y="-348" type="line"/>
      <point x="582.0" y="-16.0" type="line"/>
      <point x="559.3333333333334" y="-20.0"/>
      <point x="532.0" y="-20.0" type="qcurve" smooth="yes"/>
      <point x="325.0" y="-20.0"/>
      <point x="111.0" y="372.75"/>
      <point x="111.0" y="735.0" type="qcurve" smooth="yes"/>
      <point x="111.0" y="1113.0"/>
      <point x="322.75" y="1483.0"/>
      <point x="535.0" y="1483.0" type="qcurve" smooth="yes"/>
      <point x="739.0" y="1483.0"/>
      <point x="954.0" y="1093.75"/>
      <point x="954.0" y="733.0" type="qcurve" smooth="yes"/>
      <point x="954.0" y="442.0"/>
      <point x="812.75" y="72.25"/>
      <point x="680" y="10" type="qcurve"/>
      <point x="893" y="-348" type="line"/>
    </contour>
    <contour>
      <point x="532.0" y="74.0" type="qcurve" smooth="yes"/>
      <point x="852.0" y="74.0"/>
      <point x="852.0" y="733.0" type="qcurve" smooth="yes"/>
      <point x="852.0" y="1389.0"/>
      <point x="535.0" y="1389.0" type="qcurve" smooth="yes"/>
      <point x="373.75" y="1389.0"/>
      <point x="213.0" y="1054.0"/>
      <point x="213.0" y="733.0" type="qcurve" smooth="yes"/>
      <point x="213.0" y="406.75"/>
      <point x="376.0" y="74.0"/>
    </contour>
    <contour>
      <point x="533" y="0" type="move" name="bottom"/>
    </contour>
    <contour>
      <point x="533" y="1462" type="move" name="top"/>
    </contour>
  </outline>
</glyph>
<glyph name="R" format="1">
  <advance width="870"/>
  <unicode hex="0052"/>
  <outline>
    <contour>
      <point x="160" y="0" type="line"/>
      <point x="160" y="1462" type="line"/>
      <point x="360.0" y="1462.0" type="line" smooth="yes"/>
      <point x="573.75" y="1462.0"/>
      <point x="772.0" y="1260.0"/>
      <point x="772.0" y="1059.0" type="qcurve" smooth="yes"/>
      <point x="772.0" y="906.75"/>
      <point x="663.75" y="710.75"/>
      <point x="537" y="662" type="qcurve"/>
      <point x="827" y="0" type="line"/>
      <point x="717" y="0" type="line"/>
      <point x="444" y="639" type="line"/>
      <point x="258" y="639" type="line"/>
      <point x="258" y="0" type="line"/>
    </contour>
    <contour>
      <point x="258" y="729" type="line"/>
      <point x="395.0" y="729.0" type="line" smooth="yes"/>
      <point x="527.75" y="729.0"/>
      <point x="672.0" y="893.0"/>
      <point x="672.0" y="1055.0" type="qcurve" smooth="yes"/>
      <point x="672.0" y="1220.0"/>
      <point x="525.25" y="1366.0"/>
      <point x="367" y="1366" type="qcurve" smooth="yes"/>
      <point x="258" y="1366" type="line"/>
    </contour>
    <contour>
      <point x="435" y="0" type="move" name="bottom"/>
    </contour>
    <contour>
      <point x="435" y="1462" type="move" name="top"/>
    </contour>
  </outline>
</glyph>
<glyph name="T" format="1">
  <advance width="711"/>
  <unicode hex="0054"/>
  <outline>
    <contour>
      <point x="403" y="1368" type="line"/>
      <point x="403" y="0" type="line"/>
      <point x="305" y="0" type="line"/>
      <point x="305" y="1368" type="line"/>
      <point x="14" y="1368" type="line"/>
      <point x="14" y="1462" type="line"/>
      <point x="694" y="1462" type="line"/>
      <point x="694" y="1368" type="line"/>
    </contour>
    <contour>
      <point x="342" y="0" type="move" name="bottom"/>
    </contour>
    <contour>
      <point x="356" y="731" type="move" name="center"/>
    </contour>
    <contour>
      <point x="356" y="1462" type="move" name="top"/>
    </contour>
  </outline>
</glyph>
<glyph name="V" format="1">
  <advance width="799"/>
  <unicode hex="0056"/>
  <outline>
    <contour>
      <point x="344" y="0" type="line"/>
      <point x="0" y="1462" type="line"/>
      <point x="102" y="1462" type="line"/>
      <point x="340.0" y="434.0" type="line" smooth="yes"/>
      <point x="358.0" y="355.5"/>
      <point x="377.5" y="258.75"/>
      <point x="389.0" y="177.0"/>
      <point x="395.0" y="121.0" type="qcurve"/>
      <point x="400.5" y="159.5"/>
      <point x="412.08333333333326" y="235.91666666666666"/>
      <point x="424.0" y="304.0"/>
      <point x="430" y="330" type="qcurve" smooth="yes"/>
      <point x="698" y="1462" type="line"/>
      <point x="799" y="1462" type="line"/>
      <point x="453" y="0" type="line"/>
    </contour>
    <contour>
      <point x="400" y="0" type="move" name="bottom"/>
    </contour>
    <contour>
      <point x="400" y="1462" type="move" name="top"/>
    </contour>
  </outline>
</glyph>
<glyph name="W" format="1">
  <advance width="1395"/>
  <unicode hex="0057"/>
  <outline>
    <contour>
      <point x="324" y="0" type="line"/>
      <point x="10" y="1462" type="line"/>
      <point x="113" y="1462" type="line"/>
      <point x="319.0" y="455.0" type="line" smooth="yes"/>
      <point x="336.0" y="373.0"/>
      <point x="360.41666666666663" y="241.74999999999997"/>
      <point x="376.5" y="143.5"/>
      <point x="381.0" y="111.0" type="qcurve"/>
      <point x="386.625" y="151.125"/>
      <point x="399.109375" y="233.66145833333334"/>
      <point x="413.140625" y="318.5885416666667"/>
      <point x="429.0" y="406.0"/>
      <point x="438" y="451" type="qcurve" smooth="yes"/>
      <point x="643" y="1462" type="line"/>
      <point x="754" y="1462" type="line"/>
      <point x="958.0" y="455.0" type="line" smooth="yes"/>
      <point x="971.5" y="389.0"/>
      <point x="990.5833333333333" y="279.6666666666667"/>
      <point x="1006.0" y="173.0"/>
      <point x="1014.0" y="111.0" type="qcurve"/>
      <point x="1028.25" y="216.75"/>
      <point x="1056.75" y="388.25"/>
      <point x="1071" y="455" type="qcurve" smooth="yes"/>
      <point x="1284" y="1462" type="line"/>
      <point x="1384" y="1462" type="line"/>
      <point x="1073" y="0" type="line"/>
      <point x="954" y="0" type="line"/>
      <point x="731.0" y="1094.0" type="line" smooth="yes"/>
      <point x="729.0" y="1103.0"/>
      <point x="719.75" y="1162.2499999999998"/>
      <point x="705.5" y="1262.5"/>
      <point x="696.0" y="1333.0" type="qcurve"/>
      <point x="686.25" y="1261.75"/>
      <point x="667.25" y="1138.0"/>
      <point x="659" y="1096" type="qcurve" smooth="yes"/>
      <point x="440" y="0" type="line"/>
    </contour>
    <contour>
      <point x="698" y="0" type="move" name="bottom"/>
    </contour>
    <contour>
      <point x="698" y="1462" type="move" name="top"/>
    </contour>
  </outline>
</glyph>
<glyph name="X" format="1">
  <advance width="715"/>
  <unicode hex="0058"/>
  <outline>
    <contour>
      <point x="436" y="754" type="line"/>
      <point x="694" y="0" type="line"/>
      <point x="592" y="0" type="line"/>
      <point x="373" y="672" type="line"/>
      <point x="119" y="0" type="line"/>
      <point x="20" y="0" type="line"/>
      <point x="326" y="776" type="line"/>
      <point x="63" y="1462" type="line"/>
      <point x="166" y="1462" type="line"/>
      <point x="383" y="854" type="line"/>
      <point x="594" y="1462" type="line"/>
      <point x="694" y="1462" type="line"/>
    </contour>
    <contour>
      <point x="358" y="0" type="move" name="bottom"/>
    </contour>
    <contour>
      <point x="358" y="1462" type="move" name="top"/>
    </contour>
  </outline>
</glyph>
<glyph name="bracketleft" format="1">
  <advance width="645"/>
  <unicode hex="005B"/>
  <note>
bracketleft
</note>
  <outline>
    <contour>
      <point x="174" y="-324" type="line"/>
      <point x="174" y="1462" type="line"/>
      <point x="571" y="1462" type="line"/>
      <point x="571" y="1372" type="line"/>
      <point x="268" y="1372" type="line"/>
      <point x="268" y="-233" type="line"/>
      <point x="571" y="-233" type="line"/>
      <point x="571" y="-324" type="line"/>
    </contour>
  </outline>
</glyph>
<glyph name="a" format="1">
  <advance width="784"/>
  <unicode hex="0061"/>
  <outline>
    <contour>
      <point x="643" y="0" type="line"/>
      <point x="565" y="0" type="line"/>
      <point x="553" y="152" type="line"/>
      <point x="549.0" y="152.0" type="line"/>
      <point x="471.2260869565217" y="-20.0"/>
      <point x="313.0" y="-20.0" type="qcurve" smooth="yes"/>
      <point x="207.25" y="-20.0"/>
      <point x="78.0" y="149.25"/>
      <point x="78.0" y="291.0" type="qcurve" smooth="yes"/>
      <point x="78.0" y="446.25"/>
      <point x="264.0" y="626.75"/>
      <point x="432" y="635" type="qcurve" smooth="yes"/>
      <point x="549" y="641" type="line"/>
      <point x="549.0" y="731.0" type="line" smooth="yes"/>
      <point x="549.0" y="883.25"/>
      <point x="472.75" y="1022.0"/>
      <point x="385.0" y="1022.0" type="qcurve" smooth="yes"/>
      <point x="291.7073170731707" y="1022.0"/>
      <point x="195" y="961" type="qcurve"/>
      <point x="154.0" y="1036.0" type="line"/>
      <point x="265.70212765957444" y="1106.0"/>
      <point x="391.0" y="1106.0" type="qcurve" smooth="yes"/>
      <point x="525.25" y="1106.0"/>
      <point x="643.0" y="937.0"/>
      <point x="643" y="739" type="qcurve" smooth="yes"/>
    </contour>
    <contour>
      <point x="334.0" y="61.0" type="qcurve" smooth="yes"/>
      <point x="436.0" y="61.0"/>
      <point x="549.0" y="262.25"/>
      <point x="549" y="446" type="qcurve" smooth="yes"/>
      <point x="549" y="559" type="line"/>
      <point x="436.0" y="553.0" type="line" smooth="yes"/>
      <point x="178.0" y="539.7314285714285"/>
      <point x="178.0" y="289.0" type="qcurve" smooth="yes"/>
      <point x="178.0" y="171.25"/>
      <point x="262.0" y="61.0"/>
    </contour>
    <contour>
      <point x="392" y="0" type="move" name="bottom"/>
    </contour>
    <contour>
      <point x="725" y="10" type="move" name="ogonek"/>
    </contour>
    <contour>
      <point x="392" y="1085" type="move" name="top"/>
    </contour>
  </outline>
</glyph>
<glyph name="c" format="1">
  <advance width="635"/>
  <unicode hex="0063"/>
  <outline>
    <contour>
      <point x="424.0" y="-20.0" type="qcurve" smooth="yes"/>
      <point x="261.25" y="-20.0"/>
      <point x="96.0" y="263.25"/>
      <point x="96.0" y="537.0" type="qcurve" smooth="yes"/>
      <point x="96.0" y="815.25"/>
      <point x="263.25" y="1106.0"/>
      <point x="426.0" y="1106.0" type="qcurve" smooth="yes"/>
      <point x="527.4" y="1106.0"/>
      <point x="594" y="1069" type="qcurve"/>
      <point x="557.0" y="985.0" type="line"/>
      <point x="523.25" y="1000.75"/>
      <point x="461.75" y="1016.0"/>
      <point x="434.0" y="1016.0" type="qcurve" smooth="yes"/>
      <point x="374.75" y="1016.0"/>
      <point x="286.0" y="957.5"/>
      <point x="256.0" y="899.0" type="qcurve" smooth="yes"/>
      <point x="225.25" y="839.75"/>
      <point x="195.0" y="659.75"/>
      <point x="195.0" y="539.0" type="qcurve" smooth="yes"/>
      <point x="195.0" y="419.0"/>
      <point x="226.25" y="239.25"/>
      <point x="257.0" y="180.0" type="qcurve" smooth="yes"/>
      <point x="287.0" y="123.0"/>
      <point x="375.5" y="66.0"/>
      <point x="434.0" y="66.0" type="qcurve" smooth="yes"/>
      <point x="469.25" y="66.0"/>
      <point x="546.75" y="82.25"/>
      <point x="588" y="98" type="qcurve"/>
      <point x="588.0" y="18.0" type="line"/>
      <point x="555.0" y="0.0"/>
      <point x="459.25" y="-20.0"/>
    </contour>
    <contour>
      <point x="398" y="0" type="move" name="bottom"/>
    </contour>
    <contour>
      <point x="318" y="1085" type="move" name="top"/>
    </contour>
  </outline>
</glyph>
<glyph name="e" format="1">
  <advance width="803"/>
  <unicode hex="0065"/>
  <outline>
    <contour>
      <point x="453.0" y="-20.0" type="qcurve" smooth="yes"/>
      <point x="281.25" y="-20.0"/>
      <point x="96.0" y="273.25"/>
      <point x="96.0" y="535.0" type="qcurve" smooth="yes"/>
      <point x="96.0" y="720.5"/>
      <point x="169.75" y="975.0833333333334"/>
      <point x="312.5" y="1106.0"/>
      <point x="416.0" y="1106.0" type="qcurve" smooth="yes"/>
      <point x="551.0" y="1106.0"/>
      <point x="707.0" y="849.25"/>
      <point x="707" y="631" type="qcurve" smooth="yes"/>
      <point x="707" y="543" type="line"/>
      <point x="193.0" y="543.0" type="line"/>
      <point x="195.25" y="306.0"/>
      <point x="325.0" y="70.0"/>
      <point x="457.0" y="70.0" type="qcurve" smooth="yes"/>
      <point x="491.0" y="70.0"/>
      <point x="561.5833333333333" y="84.75"/>
      <point x="634.5" y="114.5"/>
      <point x="672" y="137" type="qcurve"/>
      <point x="672.0" y="45.0" type="line"/>
      <point x="620.25" y="12.75"/>
      <point x="510.75" y="-20.0"/>
    </contour>
    <contour>
      <point x="195" y="629" type="qcurve"/>
      <point x="612.0" y="629.0" type="line"/>
      <point x="612.0" y="808.25"/>
      <point x="503.0" y="1020.0"/>
      <point x="410.0" y="1020.0" type="qcurve" smooth="yes"/>
      <point x="311.75" y="1020.0"/>
      <point x="204.75" y="824.75"/>
    </contour>
    <contour>
      <point x="402" y="0" type="move" name="bottom"/>
    </contour>
    <contour>
      <point x="733" y="44" type="move" name="ogonek"/>
    </contour>
    <contour>
      <point x="402" y="1085" type="move" name="top"/>
    </contour>
  </outline>
</glyph>
<glyph name="f" format="1">
  <advance width="453"/>
  <unicode hex="0066"/>
  <outline>
    <contour>
      <point x="158" y="0" type="line"/>
      <point x="158" y="1001" type="line"/>
      <point x="20" y="1001" type="line"/>
      <point x="20" y="1055" type="line"/>
      <point x="158" y="1096" type="line"/>
      <point x="158.0" y="1178.0" type="line" smooth="yes"/>
      <point x="158.0" y="1385.0"/>
      <point x="256.25" y="1567.0"/>
      <point x="377.0" y="1567.0" type="qcurve" smooth="yes"/>
      <point x="412.25" y="1567.0"/>
      <point x="475.5" y="1554.75"/>
      <point x="504" y="1542" type="qcurve"/>
      <point x="471.0" y="1454.0" type="line"/>
      <point x="444.75" y="1466.75"/>
      <point x="396.75" y="1479.0"/>
      <point x="375.0" y="1479.0" type="qcurve" smooth="yes"/>
      <point x="326.25" y="1479.0"/>
      <point x="276.0" y="1421.25"/>
      <point x="264.0" y="1356.0" type="qcurve" smooth="yes"/>
      <point x="258.0" y="1323.75"/>
      <point x="252.0" y="1233.75"/>
      <point x="252" y="1176" type="qcurve" smooth="yes"/>
      <point x="252" y="1085" type="line"/>
      <point x="422" y="1085" type="line"/>
      <point x="422" y="1001" type="line"/>
      <point x="252" y="1001" type="line"/>
      <point x="252" y="0" type="line"/>
    </contour>
    <contour>
      <point x="227" y="0" type="move" name="bottom"/>
    </contour>
    <contour>
      <point x="227" y="1085" type="move" name="top"/>
    </contour>
  </outline>
</glyph>
<glyph name="k" format="1">
  <advance width="711"/>
  <unicode hex="006B"/>
  <outline>
    <contour>
      <point x="145" y="0" type="line"/>
      <point x="145" y="1556" type="line"/>
      <point x="240" y="1556" type="line"/>
      <point x="240.0" y="719.0" type="line" smooth="yes"/>
      <point x="240.0" y="673.25"/>
      <point x="234.5" y="582.75"/>
      <point x="233" y="537" type="qcurve"/>
      <point x="242.0" y="537.0" type="line"/>
      <point x="257.0" y="564.75"/>
      <point x="286.5" y="620.0"/>
      <point x="303" y="647" type="qcurve" smooth="yes"/>
      <point x="571" y="1085" type="line"/>
      <point x="674" y="1085" type="line"/>
      <point x="424" y="686" type="line"/>
      <point x="696" y="0" type="line"/>
      <point x="596" y="0" type="line"/>
      <point x="360" y="598" type="line"/>
      <point x="240" y="440" type="line"/>
      <point x="240" y="0" type="line"/>
    </contour>
    <contour>
      <point x="356" y="0" type="move" name="bottom"/>
    </contour>
    <contour>
      <point x="356" y="1085" type="move" name="top"/>
    </contour>
  </outline>
</glyph>
<glyph name="n" format="1">
  <advance width="870"/>
  <unicode hex="006E"/>
  <outline>
    <contour>
      <point x="145" y="0" type="line"/>
      <point x="145" y="1085" type="line"/>
      <point x="225" y="1085" type="line"/>
      <point x="233" y="934" type="line"/>
      <point x="242.0" y="934.0" type="line"/>
      <point x="275.75" y="1015.75"/>
      <point x="404.25" y="1106.0"/>
      <point x="477.0" y="1106.0" type="qcurve" smooth="yes"/>
      <point x="603.0" y="1106.0"/>
      <point x="729.0" y="936.75"/>
      <point x="729" y="750" type="qcurve" smooth="yes"/>
      <point x="729" y="0" type="line"/>
      <point x="635" y="0" type="line"/>
      <point x="635.0" y="748.0" type="line" smooth="yes"/>
      <point x="635.0" y="883.0"/>
      <point x="555.25" y="1018.0"/>
      <point x="475.0" y="1018.0" type="qcurve" smooth="yes"/>
      <point x="358.57142857142856" y="1018.0"/>
      <point x="301.0" y="925.0" type="qcurve" smooth="yes"/>
      <point x="240.0" y="823.829268292683"/>
      <point x="240" y="596" type="qcurve" smooth="yes"/>
      <point x="240" y="0" type="line"/>
    </contour>
    <contour>
      <point x="435" y="0" type="move" name="bottom"/>
    </contour>
    <contour>
      <point x="435" y="1085" type="move" name="top"/>
    </contour>
  </outline>
</glyph>
<glyph name="o" format="1">
  <advance width="850"/>
  <unicode hex="006F"/>
  <outline>
    <contour>
      <point x="422.0" y="-20.0" type="qcurve" smooth="yes"/>
      <point x="298.5" y="-20.0"/>
      <point x="155.08333333333331" y="137.91666666666666"/>
      <point x="94.0" y="395.5"/>
      <point x="94.0" y="545.0" type="qcurve" smooth="yes"/>
      <point x="94.0" y="1106.0"/>
      <point x="426.0" y="1106.0" type="qcurve" smooth="yes"/>
      <point x="582.0" y="1106.0"/>
      <point x="756.0" y="812.0"/>
      <point x="756.0" y="545.0" type="qcurve" smooth="yes"/>
      <point x="756.0" y="271.25"/>
      <point x="583.25" y="-20.0"/>
    </contour>
    <contour>
      <point x="424.0" y="70.0" type="qcurve" smooth="yes"/>
      <point x="541.9756097560976" y="70.0"/>
      <point x="600.0" y="192.0" type="qcurve" smooth="yes"/>
      <point x="657.0" y="310.5"/>
      <point x="657.0" y="545.0" type="qcurve" smooth="yes"/>
      <point x="657.0" y="803.1702127659574"/>
      <point x="586.0" y="921.0" type="qcurve" smooth="yes"/>
      <point x="528.6984126984127" y="1016.0"/>
      <point x="424.0" y="1016.0" type="qcurve" smooth="yes"/>
      <point x="291.1894736842105" y="1016.0"/>
      <point x="237.0" y="873.0" type="qcurve" smooth="yes"/>
      <point x="193.0" y="758.6"/>
      <point x="193.0" y="545.0" type="qcurve" smooth="yes"/>
      <point x="193.0" y="324.3030303030303"/>
      <point x="242.0" y="207.0" type="qcurve" smooth="yes"/>
      <point x="299.2087912087912" y="70.0"/>
    </contour>
    <contour>
      <point x="425" y="0" type="move" name="bottom"/>
    </contour>
    <contour>
      <point x="425" y="543" type="move" name="center"/>
    </contour>
    <contour>
      <point x="765" y="10" type="move" name="ogonek"/>
    </contour>
    <contour>
      <point x="425" y="1085" type="move" name="top"/>
    </contour>
    <contour>
      <point x="830" y="1085" type="move" name="topright"/>
    </contour>
  </outline>
</glyph>
<glyph name="p" format="1">
  <advance width="893"/>
  <unicode hex="0070"/>
  <outline>
    <contour>
      <point x="145" y="-492" type="line"/>
      <point x="145" y="1085" type="line"/>
      <point x="223" y="1085" type="line"/>
      <point x="233" y="936" type="line"/>
      <point x="242.0" y="936.0" type="line"/>
      <point x="281.75" y="1017.75"/>
      <point x="406.75" y="1106.0"/>
      <point x="481.0" y="1106.0" type="qcurve" smooth="yes"/>
      <point x="640.0" y="1106.0"/>
      <point x="799.0" y="825.5"/>
      <point x="799.0" y="545.0" type="qcurve" smooth="yes"/>
      <point x="799.0" y="274.25"/>
      <point x="643.25" y="-20.0"/>
      <point x="494.0" y="-20.0" type="qcurve" smooth="yes"/>
      <point x="412.25" y="-20.0"/>
      <point x="277.25" y="71.25"/>
      <point x="242" y="150" type="qcurve"/>
      <point x="233.0" y="150.0" type="line"/>
      <point x="234.5" y="120.0"/>
      <point x="238.5" y="61.0"/>
      <point x="240" y="31" type="qcurve" smooth="yes"/>
      <point x="240" y="-492" type="line"/>
    </contour>
    <contour>
      <point x="479.0" y="66.0" type="qcurve" smooth="yes"/>
      <point x="571.0" y="66.0"/>
      <point x="666.1666666666667" y="203.41666666666666"/>
      <point x="700.0" y="422.5"/>
      <point x="700.0" y="545.0" type="qcurve" smooth="yes"/>
      <point x="700.0" y="672.0"/>
      <point x="665.8333333333334" y="886.3333333333334"/>
      <point x="569.0" y="1016.0"/>
      <point x="475.0" y="1016.0" type="qcurve" smooth="yes"/>
      <point x="380.5" y="1016.0"/>
      <point x="278.75" y="897.75"/>
      <point x="240.0" y="700.5"/>
      <point x="240" y="582" type="qcurve" smooth="yes"/>
      <point x="240.0" y="551.0" type="line" smooth="yes"/>
      <point x="240.0" y="421.5"/>
      <point x="278.66666666666663" y="200.58333333333334"/>
      <point x="382.0" y="66.0"/>
    </contour>
    <contour>
      <point x="447" y="0" type="move" name="bottom"/>
    </contour>
    <contour>
      <point x="447" y="1085" type="move" name="top"/>
    </contour>
  </outline>
</glyph>
<glyph name="q" format="1">
  <advance width="893"/>
  <unicode hex="0071"/>
  <outline>
    <contour>
      <point x="653" y="-492" type="line"/>
      <point x="653.0" y="-23.0" type="line" smooth="yes"/>
      <point x="653.0" y="10.75"/>
      <point x="657.5" y="101.0"/>
      <point x="662" y="158" type="qcurve"/>
      <point x="653.0" y="158.0" type="line"/>
      <point x="610.25" y="68.75"/>
      <point x="486.25" y="-20.0"/>
      <point x="406.0" y="-20.0" type="qcurve" smooth="yes"/>
      <point x="255.25" y="-20.0"/>
      <point x="94.0" y="256.75"/>
      <point x="94.0" y="541.0" type="qcurve" smooth="yes"/>
      <point x="94.0" y="732.5"/>
      <point x="169.91666666666669" y="983.0833333333333"/>
      <point x="311.5" y="1106.0"/>
      <point x="410.0" y="1106.0" type="qcurve" smooth="yes"/>
      <point x="566.7477477477478" y="1106.0"/>
      <point x="649" y="940" type="qcurve"/>
      <point x="657" y="940" type="line"/>
      <point x="672" y="1085" type="line"/>
      <point x="748" y="1085" type="line"/>
      <point x="748" y="-492" type="line"/>
    </contour>
    <contour>
      <point x="420.0" y="66.0" type="qcurve" smooth="yes"/>
      <point x="482.25" y="66.0"/>
      <point x="576.0" y="134.5"/>
      <point x="606.0" y="202.0" type="qcurve" smooth="yes"/>
      <point x="653.0" y="308.1290322580645"/>
      <point x="653" y="492" type="qcurve" smooth="yes"/>
      <point x="653.0" y="541.0" type="line" smooth="yes"/>
      <point x="653.0" y="785.95"/>
      <point x="594.0" y="901.0" type="qcurve" smooth="yes"/>
      <point x="535.025641025641" y="1016.0"/>
      <point x="412.0" y="1016.0" type="qcurve" smooth="yes"/>
      <point x="295.0" y="1016.0"/>
      <point x="193.0" y="770.75"/>
      <point x="193.0" y="539.0" type="qcurve" smooth="yes"/>
      <point x="193.0" y="410.5"/>
      <point x="227.75" y="195.41666666666663"/>
      <point x="325.5" y="66.0"/>
    </contour>
    <contour>
      <point x="447" y="0" type="move" name="bottom"/>
    </contour>
    <contour>
      <point x="447" y="1085" type="move" name="top"/>
    </contour>
  </outline>
</glyph>
<glyph name="r" format="1">
  <advance width="559"/>
  <unicode hex="0072"/>
  <outline>
    <contour>
      <point x="145" y="0" type="line"/>
      <point x="145" y="1085" type="line"/>
      <point x="223" y="1085" type="line"/>
      <point x="233" y="895" type="line"/>
      <point x="240.0" y="895.0" type="line"/>
      <point x="316.3191489361702" y="1106.0"/>
      <point x="446.0" y="1106.0" type="qcurve" smooth="yes"/>
      <point x="495.8888888888889" y="1106.0"/>
      <point x="541" y="1092" type="qcurve"/>
      <point x="518.0" y="997.0" type="line"/>
      <point x="482.0" y="1012.0"/>
      <point x="444.0" y="1012.0" type="qcurve" smooth="yes"/>
      <point x="389.25" y="1012.0"/>
      <point x="294.0" y="899.25"/>
      <point x="267.0" y="798.0" type="qcurve" smooth="yes"/>
      <point x="240.0" y="697.5"/>
      <point x="240" y="575" type="qcurve" smooth="yes"/>
      <point x="240" y="0" type="line"/>
    </contour>
    <contour>
      <point x="280" y="0" type="move" name="bottom"/>
    </contour>
    <contour>
      <point x="280" y="1085" type="move" name="top"/>
    </contour>
  </outline>
</glyph>
<glyph name="s" format="1">
  <advance width="645"/>
  <unicode hex="0073"/>
  <outline>
    <contour>
      <point x="289.0" y="-20.0" type="qcurve" smooth="yes"/>
      <point x="217.0" y="-20.0"/>
      <point x="104.75" y="17.75"/>
      <point x="74" y="41" type="qcurve"/>
      <point x="74.0" y="152.0" type="line"/>
      <point x="109.25" y="116.0"/>
      <point x="233.75" y="70.0"/>
      <point x="293.0" y="70.0" type="qcurve" smooth="yes"/>
      <point x="383.0" y="70.0"/>
      <point x="477.0" y="181.5"/>
      <point x="477.0" y="276.0" type="qcurve" smooth="yes"/>
      <point x="477.0" y="323.0"/>
      <point x="448.16666666666663" y="393.91666666666663"/>
      <point x="376.0" y="462.5"/>
      <point x="311.0" y="506.0" type="qcurve" smooth="yes"/>
      <point x="242.0" y="552.0"/>
      <point x="161.08333333333334" y="611.5"/>
      <point x="114.5" y="669.0"/>
      <point x="97.0" y="712.0" type="qcurve" smooth="yes"/>
      <point x="86.5" y="737.5"/>
      <point x="74.0" y="797.5"/>
      <point x="74.0" y="832.0" type="qcurve" smooth="yes"/>
      <point x="74.0" y="952.0"/>
      <point x="229.0" y="1106.0"/>
      <point x="361.0" y="1106.0" type="qcurve" smooth="yes"/>
      <point x="420.25" y="1106.0"/>
      <point x="531.75" y="1073.25"/>
      <point x="573" y="1044" type="qcurve"/>
      <point x="524.0" y="961.0" type="line"/>
      <point x="482.75" y="988.75"/>
      <point x="395.25" y="1016.0"/>
      <point x="351.0" y="1016.0" type="qcurve" smooth="yes"/>
      <point x="266.25" y="1016.0"/>
      <point x="166.0" y="918.5"/>
      <point x="166.0" y="827.0" type="qcurve" smooth="yes"/>
      <point x="166.0" y="800.0"/>
      <point x="175.75" y="755.5"/>
      <point x="187.0" y="736.0" type="qcurve" smooth="yes"/>
      <point x="205.75" y="702.25"/>
      <point x="281.75" y="639.0"/>
      <point x="344.0" y="597.0" type="qcurve" smooth="yes"/>
      <point x="431.75" y="538.5"/>
      <point x="528.0" y="456.25"/>
      <point x="552.0" y="391.0" type="qcurve" smooth="yes"/>
      <point x="571.0" y="339.84615384615387"/>
      <point x="571.0" y="272.0" type="qcurve" smooth="yes"/>
      <point x="571.0" y="134.75"/>
      <point x="427.0" y="-20.0"/>
    </contour>
    <contour>
      <point x="291" y="0" type="move" name="bottom"/>
    </contour>
    <contour>
      <point x="323" y="1085" type="move" name="top"/>
    </contour>
  </outline>
</glyph>
<glyph name="t" format="1">
  <advance width="449"/>
  <unicode hex="0074"/>
  <outline>
    <contour>
      <point x="309.0" y="-20.0" type="qcurve" smooth="yes"/>
      <point x="141.0" y="-20.0"/>
      <point x="141" y="231" type="qcurve" smooth="yes"/>
      <point x="141" y="1001" type="line"/>
      <point x="43" y="1001" type="line"/>
      <point x="43" y="1057" type="line"/>
      <point x="139" y="1085" type="line"/>
      <point x="170" y="1343" type="line"/>
      <point x="236" y="1343" type="line"/>
      <point x="236" y="1085" type="line"/>
      <point x="408" y="1085" type="line"/>
      <point x="408" y="1001" type="line"/>
      <point x="236" y="1001" type="line"/>
      <point x="236.0" y="258.0" type="line" smooth="yes"/>
      <point x="236.0" y="147.75"/>
      <point x="284.0" y="68.0"/>
      <point x="344.0" y="68.0" type="qcurve" smooth="yes"/>
      <point x="387.5" y="68.0"/>
      <point x="422" y="80" type="qcurve"/>
      <point x="422.0" y="0.0" type="line"/>
      <point x="377.38461538461536" y="-20.0"/>
    </contour>
    <contour>
      <point x="255" y="0" type="move" name="bottom"/>
    </contour>
    <contour>
      <point x="225" y="543" type="move" name="center"/>
    </contour>
    <contour>
      <point x="225" y="1085" type="move" name="top"/>
    </contour>
    <contour>
      <point x="429" y="1085" type="move" name="topright"/>
    </contour>
  </outline>
</glyph>
<glyph name="u" format="1">
  <advance width="870"/>
  <unicode hex="0075"/>
  <outline>
    <contour>
      <point x="393.0" y="-20.0" type="qcurve" smooth="yes"/>
      <point x="261.75" y="-20.0"/>
      <point x="141.0" y="166.25"/>
      <point x="141" y="377" type="qcurve" smooth="yes"/>
      <point x="141" y="1085" type="line"/>
      <point x="236" y="1085" type="line"/>
      <point x="236.0" y="377.0" type="line" smooth="yes"/>
      <point x="236.0" y="215.75"/>
      <point x="312.75" y="68.0"/>
      <point x="393.0" y="68.0" type="qcurve" smooth="yes"/>
      <point x="508.1525423728814" y="68.0"/>
      <point x="565.0" y="154.0" type="qcurve" smooth="yes"/>
      <point x="631.0" y="253.73333333333335"/>
      <point x="631" y="489" type="qcurve" smooth="yes"/>
      <point x="631" y="1085" type="line"/>
      <point x="725" y="1085" type="line"/>
      <point x="725" y="0" type="line"/>
      <point x="645" y="0" type="line"/>
      <point x="633" y="152" type="line"/>
      <point x="625.0" y="152.0" type="line"/>
      <point x="589.75" y="68.75"/>
      <point x="465.75" y="-20.0"/>
    </contour>
    <contour>
      <point x="435" y="0" type="move" name="bottom"/>
    </contour>
    <contour>
      <point x="806" y="10" type="move" name="ogonek"/>
    </contour>
    <contour>
      <point x="435" y="1085" type="move" name="top"/>
    </contour>
    <contour>
      <point x="850" y="1085" type="move" name="topright"/>
    </contour>
  </outline>
</glyph>
<glyph name="w" format="1">
  <advance width="1123"/>
  <unicode hex="0077"/>
  <outline>
    <contour>
      <point x="255" y="0" type="line"/>
      <point x="20" y="1086" type="line"/>
      <point x="114" y="1086" type="line"/>
      <point x="250.0" y="454.0" type="line" smooth="yes"/>
      <point x="251.125" y="449.5"/>
      <point x="264.8697916666667" y="379.5416666666667"/>
      <point x="284.3802083333333" y="276.9583333333333"/>
      <point x="304.5" y="167.25"/>
      <point x="312" y="123" type="qcurve"/>
      <point x="318.0" y="123.0" type="line"/>
      <point x="322.875" y="159.0"/>
      <point x="334.9479166666667" y="236.359375"/>
      <point x="349.5520833333333" y="319.390625"/>
      <point x="366.875" y="408.375"/>
      <point x="377" y="456" type="qcurve" smooth="yes"/>
      <point x="512" y="1086" type="line"/>
      <point x="613" y="1086" type="line"/>
      <point x="749.0" y="454.0" type="line" smooth="yes"/>
      <point x="755.75" y="423.25"/>
      <point x="788.0" y="239.25"/>
      <point x="806" y="123" type="qcurve"/>
      <point x="811.0" y="123.0" type="line"/>
      <point x="814.0" y="148.0"/>
      <point x="821.0" y="191.0"/>
      <point x="832.0" y="245.99999999999997"/>
      <point x="841" y="289" type="qcurve" smooth="yes"/>
      <point x="1010" y="1086" type="line"/>
      <point x="1104" y="1086" type="line"/>
      <point x="860" y="0" type="line"/>
      <point x="748" y="0" type="line"/>
      <point x="598.0" y="735.0" type="line" smooth="yes"/>
      <point x="597.0" y="740.0"/>
      <point x="585.0833333333333" y="809.9166666666665"/>
      <point x="569.5" y="903.5"/>
      <point x="563" y="944" type="qcurve"/>
      <point x="561.0" y="944.0" type="line"/>
      <point x="553.5" y="896.0"/>
      <point x="542.4166666666665" y="831.1666666666666"/>
      <point x="531.0" y="773.0"/>
      <point x="523" y="735" type="qcurve" smooth="yes"/>
      <point x="370" y="0" type="line"/>
    </contour>
    <contour>
      <point x="561" y="0" type="move" name="bottom"/>
    </contour>
    <contour>
      <point x="561" y="1086" type="move" name="top"/>
    </contour>
  </outline>
</glyph>
<glyph name="x" format="1">
  <advance width="676"/>
  <unicode hex="0078"/>
  <outline>
    <contour>
      <point x="35" y="0" type="line"/>
      <point x="293" y="563" type="line"/>
      <point x="55" y="1085" type="line"/>
      <point x="158" y="1085" type="line"/>
      <point x="340" y="645" type="line"/>
      <point x="530" y="1085" type="line"/>
      <point x="629" y="1085" type="line"/>
      <point x="387" y="551" type="line"/>
      <point x="641" y="0" type="line"/>
      <point x="541" y="0" type="line"/>
      <point x="338" y="469" type="line"/>
      <point x="133" y="0" type="line"/>
    </contour>
    <contour>
      <point x="338" y="0" type="move" name="bottom"/>
    </contour>
    <contour>
      <point x="338" y="1085" type="move" name="top"/>
    </contour>
  </outline>
</glyph>
<glyph name="y" format="1">
  <advance width="653"/>
  <unicode hex="0079"/>
  <outline>
    <contour>
      <point x="88.0" y="-492.0" type="qcurve" smooth="yes"/>
      <point x="47.45454545454545" y="-492.0"/>
      <point x="-2" y="-475" type="qcurve"/>
      <point x="-2.0" y="-389.0" type="line"/>
      <point x="18.25" y="-395.75"/>
      <point x="57.5" y="-403.0"/>
      <point x="74.0" y="-403.0" type="qcurve" smooth="yes"/>
      <point x="137.0" y="-403.0"/>
      <point x="203.0" y="-297.0"/>
      <point x="233.0" y="-186.0" type="qcurve" smooth="yes"/>
      <point x="245.75" y="-138.75"/>
      <point x="264.5" y="-66.25"/>
      <point x="281" y="2" type="qcurve"/>
      <point x="10" y="1085" type="line"/>
      <point x="106" y="1085" type="line"/>
      <point x="270.0" y="408.0" type="line" smooth="yes"/>
      <point x="278.0" y="374.5"/>
      <point x="297.5833333333333" y="282.99999999999994"/>
      <point x="317.5" y="181.5"/>
      <point x="326" y="133" type="qcurve"/>
      <point x="334.0" y="133.0" type="line"/>
      <point x="340.0" y="173.875"/>
      <point x="351.9166666666667" y="244.50520833333334"/>
      <point x="364.5833333333333" y="309.7447916666667"/>
      <point x="378.75" y="374.75"/>
      <point x="387" y="410" type="qcurve" smooth="yes"/>
      <point x="547" y="1085" type="line"/>
      <point x="643" y="1085" type="line"/>
      <point x="326.0" y="-205.0" type="line" smooth="yes"/>
      <point x="303.5" y="-296.5"/>
      <point x="239.91666666666669" y="-424.75"/>
      <point x="150.0" y="-492.0"/>
    </contour>
    <contour>
      <point x="447" y="0" type="move" name="bottom"/>
    </contour>
    <contour>
      <point x="327" y="1085" type="move" name="top"/>
    </contour>
  </outline>
</glyph>
<glyph name="braceleft" format="1">
  <advance width="737"/>
  <unicode hex="007B"/>
  <note>
braceleft
</note>
  <outline>
    <contour>
      <point x="633" y="-324" type="line"/>
      <point x="534.0" y="-321.75"/>
      <point x="393.5" y="-246.5"/>
      <point x="356.0" y="-179.0" type="qcurve" smooth="yes"/>
      <point x="315.0" y="-106.11111111111111"/>
      <point x="315" y="-4" type="qcurve" smooth="yes"/>
      <point x="315.0" y="319.0" type="line" smooth="yes"/>
      <point x="315.0" y="408.25"/>
      <point x="276.25" y="494.0"/>
      <point x="232.0" y="515.0" type="qcurve" smooth="yes"/>
      <point x="210.25" y="524.75"/>
      <point x="148.75" y="535.0"/>
      <point x="109" y="535" type="qcurve"/>
      <point x="109.0" y="604.0" type="line"/>
      <point x="186.25" y="604.0"/>
      <point x="274.75" y="644.25"/>
      <point x="295.0" y="687.0" type="qcurve" smooth="yes"/>
      <point x="315.0" y="730.0769230769231"/>
      <point x="315" y="819" type="qcurve" smooth="yes"/>
      <point x="315.0" y="1143.0" type="line" smooth="yes"/>
      <point x="315.0" y="1239.75"/>
      <point x="388.5" y="1379.0"/>
      <point x="456.0" y="1418.0" type="qcurve" smooth="yes"/>
      <point x="492.0" y="1438.25"/>
      <point x="581.25" y="1460.5"/>
      <point x="633" y="1462" type="qcurve"/>
      <point x="633.0" y="1382.0" type="line"/>
      <point x="577.5" y="1380.5"/>
      <point x="537.0" y="1367.0" type="qcurve" smooth="yes"/>
      <point x="474.75" y="1345.25"/>
      <point x="414.0" y="1237.0"/>
      <point x="414" y="1147" type="qcurve" smooth="yes"/>
      <point x="414.0" y="831.0" type="line" smooth="yes"/>
      <point x="414.0" y="710.25"/>
      <point x="323.25" y="593.25"/>
      <point x="219" y="573" type="qcurve"/>
      <point x="219.0" y="565.0" type="line"/>
      <point x="324.75" y="544.75"/>
      <point x="414.0" y="427.75"/>
      <point x="414" y="307" type="qcurve" smooth="yes"/>
      <point x="414.0" y="-8.0" type="line" smooth="yes"/>
      <point x="414.0" y="-94.25"/>
      <point x="470.0" y="-201.0"/>
      <point x="527.0" y="-225.0" type="qcurve" smooth="yes"/>
      <point x="569.1533477321814" y="-242.4427645788337"/>
      <point x="633" y="-244" type="qcurve"/>
    </contour>
  </outline>
</glyph>
<glyph name="braceright" format="1">
  <advance width="737"/>
  <unicode hex="007D"/>
  <note>
braceright
</note>
  <outline>
    <contour>
      <point x="104" y="-324" type="qcurve"/>
      <point x="104.0" y="-244.0" type="line"/>
      <point x="206.99196787148594" y="-242.5073627844712"/>
      <point x="261.0" y="-193.0" type="qcurve" smooth="yes"/>
      <point x="324.0" y="-136.0"/>
      <point x="324" y="-8" type="qcurve" smooth="yes"/>
      <point x="324.0" y="307.0" type="line" smooth="yes"/>
      <point x="324.0" y="427.75"/>
      <point x="413.0" y="544.75"/>
      <point x="518" y="565" type="qcurve"/>
      <point x="518.0" y="573.0" type="line"/>
      <point x="415.25" y="593.25"/>
      <point x="324.0" y="710.25"/>
      <point x="324" y="831" type="qcurve" smooth="yes"/>
      <point x="324.0" y="1147.0" type="line" smooth="yes"/>
      <point x="324.0" y="1304.2615384615385"/>
      <point x="227.0" y="1355.0" type="qcurve" smooth="yes"/>
      <point x="179.0" y="1380.5"/>
      <point x="104" y="1382" type="qcurve"/>
      <point x="104.0" y="1462.0" type="line"/>
      <point x="230.72235872235873" y="1458.9828009828009"/>
      <point x="310.0" y="1398.0" type="qcurve" smooth="yes"/>
      <point x="422.0" y="1314.0"/>
      <point x="422" y="1143" type="qcurve" smooth="yes"/>
      <point x="422.0" y="819.0" type="line" smooth="yes"/>
      <point x="422.0" y="747.4444444444445"/>
      <point x="435.0" y="707.0" type="qcurve" smooth="yes"/>
      <point x="451.5" y="648.5"/>
      <point x="556.25" y="604.0"/>
      <point x="629" y="604" type="qcurve"/>
      <point x="629.0" y="535.0" type="line"/>
      <point x="551.0" y="535.0"/>
      <point x="462.25" y="494.0"/>
      <point x="442.0" y="452.0" type="qcurve" smooth="yes"/>
      <point x="422.0" y="408.9230769230769"/>
      <point x="422" y="319" type="qcurve" smooth="yes"/>
      <point x="422.0" y="-4.0" type="line" smooth="yes"/>
      <point x="422.0" y="-155.08771929824562"/>
      <point x="334.0" y="-240.0" type="qcurve" smooth="yes"/>
      <point x="249.86046511627907" y="-321.0232558139535"/>
    </contour>
  </outline>
</glyph>
<glyph name="asciitilde" format="1">
  <advance width="819"/>
  <unicode hex="007E"/>
  <note>
asciitilde
</note>
  <outline>
    <contour>
      <point x="59" y="618" type="qcurve"/>
      <point x="59.0" y="717.0" type="line"/>
      <point x="96.5" y="770.25"/>
      <point x="189.25" y="823.0"/>
      <point x="244.0" y="823.0" type="qcurve" smooth="yes"/>
      <point x="270.0" y="823.0"/>
      <point x="317.24999999999994" y="815.5833333333334"/>
      <point x="379.5" y="790.5"/>
      <point x="428.0" y="764.0" type="qcurve" smooth="yes"/>
      <point x="460.5" y="745.5"/>
      <point x="511.5" y="722.0833333333333"/>
      <point x="556.5" y="711.0"/>
      <point x="580.0" y="711.0" type="qcurve" smooth="yes"/>
      <point x="628.75" y="711.0"/>
      <point x="723.25" y="776.0"/>
      <point x="760" y="827" type="qcurve"/>
      <point x="760.0" y="729.0" type="line"/>
      <point x="723.25" y="677.25"/>
      <point x="633.25" y="625.0"/>
      <point x="580.0" y="625.0" type="qcurve" smooth="yes"/>
      <point x="531.25" y="625.0"/>
      <point x="462.0" y="645.75"/>
      <point x="393.0" y="684.0" type="qcurve" smooth="yes"/>
      <point x="333.75" y="717.0"/>
      <point x="274.25" y="739.0"/>
      <point x="242.0" y="739.0" type="qcurve" smooth="yes"/>
      <point x="200.75" y="739.0"/>
      <point x="101.75" y="674.25"/>
    </contour>
  </outline>
</glyph>
<glyph name="cent" format="1">
  <advance width="819"/>
  <unicode hex="00A2"/>
  <note>
cent
</note>
  <outline>
    <contour>
      <point x="438" y="-20" type="line"/>
      <point x="438.0" y="193.0" type="line"/>
      <point x="303.0" y="216.25"/>
      <point x="168.0" y="498.25"/>
      <point x="168.0" y="745.0" type="qcurve" smooth="yes"/>
      <point x="168.0" y="994.0"/>
      <point x="302.25" y="1281.25"/>
      <point x="438" y="1309" type="qcurve"/>
      <point x="438" y="1483" type="line"/>
      <point x="520" y="1483" type="line"/>
      <point x="520" y="1269" type="line"/>
      <point x="483" y="1316" type="line"/>
      <point x="487.0" y="1316.0" type="line" smooth="yes"/>
      <point x="598.8614190687362" y="1314.4883592017738"/>
      <point x="666" y="1278" type="qcurve"/>
      <point x="629.0" y="1192.0" type="line"/>
      <point x="593.75" y="1206.25"/>
      <point x="532.25" y="1221.0"/>
      <point x="506.0" y="1221.0" type="qcurve" smooth="yes"/>
      <point x="406.21153846153845" y="1221.0"/>
      <point x="350.0" y="1142.0" type="qcurve" smooth="yes"/>
      <point x="307.25" y="1084.25"/>
      <point x="268.0" y="885.25"/>
      <point x="268.0" y="748.0" type="qcurve" smooth="yes"/>
      <point x="268.0" y="603.25"/>
      <point x="313.25" y="402.5"/>
      <point x="359.0" y="347.0" type="qcurve" smooth="yes"/>
      <point x="414.9111111111111" y="279.0"/>
      <point x="506.0" y="279.0" type="qcurve" smooth="yes"/>
      <point x="541.25" y="279.0"/>
      <point x="617.75" y="295.25"/>
      <point x="659" y="311" type="qcurve"/>
      <point x="659.0" y="227.0" type="line"/>
      <point x="629.0" y="209.0"/>
      <point x="541.75" y="188.0"/>
      <point x="484" y="185" type="qcurve"/>
      <point x="481" y="185" type="line"/>
      <point x="520" y="234" type="line"/>
      <point x="520" y="-20" type="line"/>
    </contour>
  </outline>
</glyph>
<glyph name="sterling" format="1">
  <advance width="819"/>
  <unicode hex="00A3"/>
  <note>
sterling
</note>
  <outline>
    <contour>
      <point x="92" y="0" type="line"/>
      <point x="92.0" y="82.0" type="line"/>
      <point x="136.25" y="100.75"/>
      <point x="201.0" y="184.25"/>
      <point x="219.0" y="245.0" type="qcurve" smooth="yes"/>
      <point x="228.0" y="277.25"/>
      <point x="238.0" y="351.75"/>
      <point x="238" y="393" type="qcurve" smooth="yes"/>
      <point x="238" y="682" type="line"/>
      <point x="80" y="682" type="line"/>
      <point x="80" y="768" type="line"/>
      <point x="238" y="768" type="line"/>
      <point x="238.0" y="1122.0" type="line" smooth="yes"/>
      <point x="238.0" y="1305.0"/>
      <point x="367.25" y="1483.0"/>
      <point x="506.0" y="1483.0" type="qcurve" smooth="yes"/>
      <point x="641.0677966101695" y="1483.0"/>
      <point x="741" y="1395" type="qcurve"/>
      <point x="686.0" y="1319.0" type="line"/>
      <point x="632.75" y="1361.75"/>
      <point x="552.75" y="1393.0"/>
      <point x="504.0" y="1393.0" type="qcurve" smooth="yes"/>
      <point x="414.0" y="1393.0"/>
      <point x="336.0" y="1261.75"/>
      <point x="336" y="1120" type="qcurve" smooth="yes"/>
      <point x="336" y="768" type="line"/>
      <point x="586" y="768" type="line"/>
      <point x="586" y="682" type="line"/>
      <point x="336" y="682" type="line"/>
      <point x="336.0" y="395.0" type="line" smooth="yes"/>
      <point x="336.0" y="287.75"/>
      <point x="275.75" y="137.5"/>
      <point x="215" y="94" type="qcurve"/>
      <point x="737" y="94" type="line"/>
      <point x="737" y="0" type="line"/>
    </contour>
  </outline>
</glyph>
<glyph name="currency" format="1">
  <advance width="1135"/>
  <unicode hex="00A4"/>
  <note>
currency
</note>
  <outline>
    <contour>
      <point x="950" y="281" type="line"/>
      <point x="813.0" y="416.0" type="line"/>
      <point x="705.8771929824561" y="330.0"/>
      <point x="567.0" y="330.0" type="qcurve" smooth="yes"/>
      <point x="422.89830508474574" y="330.0"/>
      <point x="317" y="418" type="qcurve"/>
      <point x="184" y="283" type="line"/>
      <point x="127" y="342" type="line"/>
      <point x="260.0" y="475.0" type="line"/>
      <point x="174.0" y="585.140350877193"/>
      <point x="174.0" y="723.0" type="qcurve" smooth="yes"/>
      <point x="174.0" y="858.859649122807"/>
      <point x="260" y="969" type="qcurve"/>
      <point x="125" y="1106" type="line"/>
      <point x="182" y="1163" type="line"/>
      <point x="317.0" y="1026.0" type="line"/>
      <point x="426.5" y="1116.0"/>
      <point x="567.0" y="1116.0" type="qcurve" smooth="yes"/>
      <point x="707.1016949152543" y="1116.0"/>
      <point x="813" y="1028" type="qcurve"/>
      <point x="948" y="1163" type="line"/>
      <point x="1008" y="1106" type="line"/>
      <point x="872.0" y="971.0" type="line"/>
      <point x="961.0" y="862.3898305084746"/>
      <point x="961.0" y="723.0" type="qcurve" smooth="yes"/>
      <point x="961.0" y="583.6101694915254"/>
      <point x="872" y="475" type="qcurve"/>
      <point x="1008" y="338" type="line"/>
    </contour>
    <contour>
      <point x="567.0" y="408.0" type="qcurve" smooth="yes"/>
      <point x="655.5" y="408.0"/>
      <point x="799.75" y="492.58333333333337"/>
      <point x="885.0" y="635.5"/>
      <point x="885.0" y="723.0" type="qcurve" smooth="yes"/>
      <point x="885.0" y="812.5"/>
      <point x="797.6666666666665" y="956.0833333333333"/>
      <point x="653.0" y="1040.0"/>
      <point x="567.0" y="1040.0" type="qcurve" smooth="yes"/>
      <point x="479.5" y="1040.0"/>
      <point x="336.5833333333333" y="954.4166666666667"/>
      <point x="252.0" y="810.5"/>
      <point x="252.0" y="723.0" type="qcurve" smooth="yes"/>
      <point x="252.0" y="635.0"/>
      <point x="335.75" y="492.16666666666663"/>
      <point x="478.5" y="408.0"/>
    </contour>
  </outline>
</glyph>
<glyph name="section" format="1">
  <advance width="698"/>
  <unicode hex="00A7"/>
  <note>
section
</note>
  <outline>
    <contour>
      <point x="307.0" y="98.0" type="qcurve" smooth="yes"/>
      <point x="238.0" y="98.0"/>
      <point x="125.5" y="126.25"/>
      <point x="82" y="154" type="qcurve"/>
      <point x="82.0" y="254.0" type="line"/>
      <point x="108.5" y="230.5"/>
      <point x="179.33333333333331" y="197.41666666666666"/>
      <point x="261.5" y="180.0"/>
      <point x="305.0" y="180.0" type="qcurve" smooth="yes"/>
      <point x="395.0" y="180.0"/>
      <point x="506.0" y="284.0"/>
      <point x="506.0" y="362.0" type="qcurve" smooth="yes"/>
      <point x="506.0" y="401.0"/>
      <point x="484.0" y="461.0"/>
      <point x="454.0" y="491.0" type="qcurve" smooth="yes"/>
      <point x="434.5" y="509.75"/>
      <point x="379.0" y="549.75"/>
      <point x="340.0" y="573.0" type="qcurve" smooth="yes"/>
      <point x="316.75" y="586.5"/>
      <point x="269.25" y="614.5"/>
      <point x="246.0" y="628.0" type="qcurve" smooth="yes"/>
      <point x="200.25" y="655.0"/>
      <point x="133.5" y="713.0"/>
      <point x="114.0" y="746.0" type="qcurve" smooth="yes"/>
      <point x="82.0" y="796.2857142857143"/>
      <point x="82.0" y="858.0" type="qcurve" smooth="yes"/>
      <point x="82.0" y="939.0"/>
      <point x="160.75" y="1055.75"/>
      <point x="229.0" y="1085.0" type="qcurve"/>
      <point x="165.25" y="1129.25"/>
      <point x="102.0" y="1238.5"/>
      <point x="102.0" y="1303.0" type="qcurve" smooth="yes"/>
      <point x="102.0" y="1416.25"/>
      <point x="257.75" y="1556.0"/>
      <point x="377.0" y="1556.0" type="qcurve" smooth="yes"/>
      <point x="436.25" y="1556.0"/>
      <point x="519.0" y="1536.25"/>
      <point x="582" y="1501" type="qcurve"/>
      <point x="543.0" y="1427.0" type="line"/>
      <point x="509.49999999999994" y="1447.0"/>
      <point x="455.08333333333337" y="1468.6666666666665"/>
      <point x="403.0" y="1477.0"/>
      <point x="373.0" y="1477.0" type="qcurve" smooth="yes"/>
      <point x="292.0" y="1477.0"/>
      <point x="195.0" y="1387.0"/>
      <point x="195.0" y="1315.0" type="qcurve" smooth="yes"/>
      <point x="195.0" y="1272.5"/>
      <point x="222.74999999999994" y="1207.5"/>
      <point x="299.5" y="1142.5"/>
      <point x="373.0" y="1100.0" type="qcurve" smooth="yes"/>
      <point x="427.75" y="1068.5"/>
      <point x="501.5" y="1018.75"/>
      <point x="521.0" y="1000.0" type="qcurve" smooth="yes"/>
      <point x="540.5" y="981.625"/>
      <point x="570.0520833333334" y="941.2916666666666"/>
      <point x="589.9479166666666" y="895.7083333333334"/>
      <point x="600.0" y="843.375"/>
      <point x="600.0" y="813.0" type="qcurve" smooth="yes"/>
      <point x="600.0" y="741.75"/>
      <point x="534.25" y="616.25"/>
      <point x="481.0" y="584.0" type="qcurve"/>
      <point x="546.25" y="533.75"/>
      <point x="600.0" y="431.25"/>
      <point x="600.0" y="369.0" type="qcurve" smooth="yes"/>
      <point x="600.0" y="246.0"/>
      <point x="441.25" y="98.0"/>
    </contour>
    <contour>
      <point x="414.0" y="635.0" type="qcurve"/>
      <point x="459.75" y="661.25"/>
      <point x="506.0" y="747.75"/>
      <point x="506.0" y="807.0" type="qcurve" smooth="yes"/>
      <point x="506.0" y="857.25"/>
      <point x="472.5" y="927.0"/>
      <point x="435.0" y="957.0" type="qcurve" smooth="yes"/>
      <point x="416.25" y="972.0"/>
      <point x="347.75" y="1013.75"/>
      <point x="299.0" y="1040.0" type="qcurve"/>
      <point x="236.0" y="1019.75"/>
      <point x="174.0" y="929.25"/>
      <point x="174.0" y="870.0" type="qcurve" smooth="yes"/>
      <point x="174.0" y="811.5"/>
      <point x="258.0" y="714.75"/>
      <point x="363.0" y="660.0" type="qcurve" smooth="yes"/>
      <point x="375.0" y="654.0"/>
      <point x="400.5" y="641.75"/>
    </contour>
  </outline>
</glyph>
<glyph name="ordfeminine" format="1">
  <advance width="578"/>
  <unicode hex="00AA"/>
  <note>
ordfeminine
</note>
  <outline>
    <contour>
      <point x="215.0" y="805.0" type="qcurve" smooth="yes"/>
      <point x="143.75" y="805.0"/>
      <point x="57.0" y="904.5"/>
      <point x="57.0" y="990.0" type="qcurve" smooth="yes"/>
      <point x="57.0" y="1080.75"/>
      <point x="169.0" y="1179.5"/>
      <point x="289" y="1190" type="qcurve" smooth="yes"/>
      <point x="381" y="1198" type="line"/>
      <point x="381.0" y="1270.0" type="line" smooth="yes"/>
      <point x="381.0" y="1343.5"/>
      <point x="333.25" y="1409.0"/>
      <point x="277.0" y="1409.0" type="qcurve" smooth="yes"/>
      <point x="245.5" y="1409.0"/>
      <point x="178.25" y="1389.5"/>
      <point x="143" y="1370" type="qcurve"/>
      <point x="115.0" y="1434.0" type="line"/>
      <point x="155.5" y="1456.5"/>
      <point x="240.25" y="1479.0"/>
      <point x="286.0" y="1479.0" type="qcurve" smooth="yes"/>
      <point x="381.25" y="1479.0"/>
      <point x="463.0" y="1378.5"/>
      <point x="463" y="1272" type="qcurve" smooth="yes"/>
      <point x="463" y="817" type="line"/>
      <point x="406" y="817" type="line"/>
      <point x="391" y="901" type="line"/>
      <point x="383.0" y="901.0" type="line"/>
      <point x="349.25" y="853.75"/>
      <point x="263.0" y="805.0"/>
    </contour>
    <contour>
      <point x="239.0" y="874.0" type="qcurve" smooth="yes"/>
      <point x="305.75" y="874.0"/>
      <point x="381.0" y="976.0"/>
      <point x="381" y="1069" type="qcurve" smooth="yes"/>
      <point x="381" y="1135" type="line"/>
      <point x="319.0" y="1128.0" type="line" smooth="yes"/>
      <point x="223.75" y="1117.5"/>
      <point x="143.0" y="1058.25"/>
      <point x="143.0" y="987.0" type="qcurve" smooth="yes"/>
      <point x="143.0" y="930.0"/>
      <point x="191.0" y="874.0"/>
    </contour>
  </outline>
</glyph>
<glyph name="registered" format="1">
  <advance width="1704"/>
  <unicode hex="00AE"/>
  <note>
registered
</note>
  <outline>
    <contour>
      <point x="852.0" y="-20.0" type="qcurve" smooth="yes"/>
      <point x="714.0" y="-20.0"/>
      <point x="464.16666666666663" y="73.75"/>
      <point x="263.0" y="244.5"/>
      <point x="198.0" y="360.0" type="qcurve" smooth="yes"/>
      <point x="149.25" y="446.25"/>
      <point x="100.0" y="632.0"/>
      <point x="100.0" y="731.0" type="qcurve" smooth="yes"/>
      <point x="100.0" y="931.25"/>
      <point x="300.25" y="1280.75"/>
      <point x="475.0" y="1382.0" type="qcurve" smooth="yes"/>
      <point x="562.75" y="1432.25"/>
      <point x="750.75" y="1483.0"/>
      <point x="852.0" y="1483.0" type="qcurve" smooth="yes"/>
      <point x="1052.25" y="1483.0"/>
      <point x="1401.75" y="1282.75"/>
      <point x="1503.0" y="1108.0" type="qcurve" smooth="yes"/>
      <point x="1553.25" y="1020.25"/>
      <point x="1604.0" y="832.25"/>
      <point x="1604.0" y="731.0" type="qcurve" smooth="yes"/>
      <point x="1604.0" y="533.75"/>
      <point x="1409.75" y="188.25"/>
      <point x="1235.0" y="84.0" type="qcurve" smooth="yes"/>
      <point x="1147.25" y="32.25"/>
      <point x="956.25" y="-20.0"/>
    </contour>
    <contour>
      <point x="852.0" y="72.0" type="qcurve" smooth="yes"/>
      <point x="1029.75" y="72.0"/>
      <point x="1332.75" y="248.75"/>
      <point x="1422.0" y="401.0" type="qcurve" smooth="yes"/>
      <point x="1466.25" y="476.75"/>
      <point x="1511.0" y="641.75"/>
      <point x="1511.0" y="731.0" type="qcurve" smooth="yes"/>
      <point x="1511.0" y="905.0"/>
      <point x="1340.0" y="1206.75"/>
      <point x="1187.0" y="1299.0" type="qcurve" smooth="yes"/>
      <point x="1109.75" y="1344.75"/>
      <point x="942.75" y="1391.0"/>
      <point x="852.0" y="1391.0" type="qcurve" smooth="yes"/>
      <point x="675.75" y="1391.0"/>
      <point x="371.25" y="1213.75"/>
      <point x="282.0" y="1060.0" type="qcurve" smooth="yes"/>
      <point x="237.75" y="982.75"/>
      <point x="193.0" y="818.75"/>
      <point x="193.0" y="731.0" type="qcurve" smooth="yes"/>
      <point x="193.0" y="553.25"/>
      <point x="369.75" y="250.25"/>
      <point x="522.0" y="161.0" type="qcurve" smooth="yes"/>
      <point x="597.75" y="116.75"/>
      <point x="762.75" y="72.0"/>
    </contour>
    <contour>
      <point x="608" y="291" type="line"/>
      <point x="608" y="1171" type="line"/>
      <point x="819.0" y="1171.0" type="line" smooth="yes"/>
      <point x="962.25" y="1171.0"/>
      <point x="1120.0" y="1047.0"/>
      <point x="1120.0" y="918.0" type="qcurve" smooth="yes"/>
      <point x="1120.0" y="830.25"/>
      <point x="1046.5" y="710.25"/>
      <point x="973" y="678" type="qcurve"/>
      <point x="1171" y="291" type="line"/>
      <point x="1057" y="291" type="line"/>
      <point x="883" y="651" type="line"/>
      <point x="709" y="651" type="line"/>
      <point x="709" y="291" type="line"/>
    </contour>
    <contour>
      <point x="709" y="731" type="line"/>
      <point x="821.0" y="731.0" type="line" smooth="yes"/>
      <point x="911.75" y="731.0"/>
      <point x="1016.0" y="823.75"/>
      <point x="1016.0" y="913.0" type="qcurve" smooth="yes"/>
      <point x="1016.0" y="999.25"/>
      <point x="917.25" y="1085.0"/>
      <point x="819" y="1085" type="qcurve" smooth="yes"/>
      <point x="709" y="1085" type="line"/>
    </contour>
  </outline>
</glyph>
<glyph name="threesuperior" format="1">
  <advance width="614"/>
  <unicode hex="00B3"/>
  <note>
threesuperior
</note>
  <outline>
    <contour>
      <point x="250.0" y="569.0" type="qcurve" smooth="yes"/>
      <point x="149.3793103448276" y="569.0"/>
      <point x="53" y="612" type="qcurve"/>
      <point x="53.0" y="707.0" type="line"/>
      <point x="146.6" y="655.0"/>
      <point x="252.0" y="655.0" type="qcurve" smooth="yes"/>
      <point x="345.75" y="655.0"/>
      <point x="432.0" y="744.75"/>
      <point x="432.0" y="819.0" type="qcurve" smooth="yes"/>
      <point x="432.0" y="1004.0"/>
      <point x="227" y="1004" type="qcurve" smooth="yes"/>
      <point x="166" y="1004" type="line"/>
      <point x="166" y="1085" type="line"/>
      <point x="231.0" y="1085.0" type="line" smooth="yes"/>
      <point x="315.75" y="1085.0"/>
      <point x="408.0" y="1181.25"/>
      <point x="408.0" y="1260.0" type="qcurve" smooth="yes"/>
      <point x="408.0" y="1326.0"/>
      <point x="329.25" y="1399.0"/>
      <point x="258.0" y="1399.0" type="qcurve" smooth="yes"/>
      <point x="173.5" y="1399.0"/>
      <point x="100" y="1327" type="qcurve"/>
      <point x="47.0" y="1395.0" type="line"/>
      <point x="146.0" y="1485.0"/>
      <point x="266.0" y="1485.0" type="qcurve" smooth="yes"/>
      <point x="377.0" y="1485.0"/>
      <point x="498.0" y="1362.25"/>
      <point x="498.0" y="1255.0" type="qcurve" smooth="yes"/>
      <point x="498.0" y="1183.0"/>
      <point x="425.25" y="1077.0"/>
      <point x="360" y="1053" type="qcurve"/>
      <point x="360.0" y="1044.0" type="line"/>
      <point x="526.0" y="997.6396396396397"/>
      <point x="526.0" y="819.0" type="qcurve" smooth="yes"/>
      <point x="526.0" y="708.75"/>
      <point x="375.25" y="569.0"/>
    </contour>
  </outline>
</glyph>
<glyph name="micro" format="1">
  <advance width="874"/>
  <unicode hex="00B5"/>
  <note>
mu
</note>
  <outline>
    <contour>
      <point x="145" y="-492" type="line"/>
      <point x="145" y="1085" type="line"/>
      <point x="240" y="1085" type="line"/>
      <point x="240.0" y="352.0" type="line" smooth="yes"/>
      <point x="240.0" y="210.25"/>
      <point x="318.25" y="68.0"/>
      <point x="397.0" y="68.0" type="qcurve" smooth="yes"/>
      <point x="496.7906976744186" y="68.0"/>
      <point x="551.0" y="131.0" type="qcurve" smooth="yes"/>
      <point x="593.75" y="179.0"/>
      <point x="635.0" y="355.5"/>
      <point x="635" y="489" type="qcurve" smooth="yes"/>
      <point x="635" y="1085" type="line"/>
      <point x="729" y="1085" type="line"/>
      <point x="729" y="0" type="line"/>
      <point x="649" y="0" type="line"/>
      <point x="637" y="152" type="line"/>
      <point x="629.0" y="152.0" type="line"/>
      <point x="595.25" y="71.0"/>
      <point x="472.75" y="-20.0"/>
      <point x="406.0" y="-20.0" type="qcurve" smooth="yes"/>
      <point x="346.75" y="-20.0"/>
      <point x="264.0" y="32.75"/>
      <point x="240" y="86" type="qcurve"/>
      <point x="231.0" y="86.0" type="line"/>
      <point x="235.5" y="26.0"/>
      <point x="240.0" y="-65.5"/>
      <point x="240" y="-97" type="qcurve" smooth="yes"/>
      <point x="240" y="-492" type="line"/>
    </contour>
  </outline>
</glyph>
<glyph name="periodcentered" format="1">
  <advance width="422"/>
  <unicode hex="00B7"/>
  <note>
periodcentered
</note>
  <outline>
    <contour>
      <point x="211.0" y="614.0" type="qcurve" smooth="yes"/>
      <point x="172.0" y="614.0"/>
      <point x="133.0" y="667.75"/>
      <point x="133.0" y="721.0" type="qcurve" smooth="yes"/>
      <point x="133.0" y="774.25"/>
      <point x="172.0" y="827.0"/>
      <point x="211.0" y="827.0" type="qcurve" smooth="yes"/>
      <point x="250.0" y="827.0"/>
      <point x="289.0" y="774.25"/>
      <point x="289.0" y="721.0" type="qcurve" smooth="yes"/>
      <point x="289.0" y="664.0"/>
      <point x="243.25" y="614.0"/>
    </contour>
  </outline>
</glyph>
<glyph name="onesuperior" format="1">
  <advance width="614"/>
  <unicode hex="00B9"/>
  <note>
onesuperior
</note>
  <outline>
    <contour>
      <point x="311" y="586" type="line"/>
      <point x="311.0" y="1200.0" type="line" smooth="yes"/>
      <point x="311.0" y="1228.5"/>
      <point x="312.33333333333326" y="1285.4166666666665"/>
      <point x="315.0" y="1342.0"/>
      <point x="317.0" y="1370.0" type="qcurve"/>
      <point x="300.5" y="1354.25"/>
      <point x="273.25" y="1330.0"/>
      <point x="262.0" y="1321.0" type="qcurve" smooth="yes"/>
      <point x="250.75" y="1312.0"/>
      <point x="185.75" y="1264.0"/>
      <point x="131" y="1225" type="qcurve"/>
      <point x="82" y="1290" type="line"/>
      <point x="319" y="1462" type="line"/>
      <point x="397" y="1462" type="line"/>
      <point x="397" y="586" type="line"/>
    </contour>
  </outline>
</glyph>
<glyph name="ordmasculine" format="1">
  <advance width="618"/>
  <unicode hex="00BA"/>
  <note>
ordmasculine
</note>
  <outline>
    <contour>
      <point x="549.0" y="1143.0" type="qcurve" smooth="yes"/>
      <point x="549.0" y="978.0"/>
      <point x="427.25" y="805.0"/>
      <point x="311.0" y="805.0" type="qcurve" smooth="yes"/>
      <point x="191.75" y="805.0"/>
      <point x="70.0" y="978.0"/>
      <point x="70.0" y="1143.0" type="qcurve" smooth="yes"/>
      <point x="70.0" y="1302.75"/>
      <point x="197.0" y="1479.0"/>
      <point x="311.0" y="1479.0" type="qcurve" smooth="yes"/>
      <point x="424.25" y="1479.0"/>
      <point x="549.0" y="1314.0"/>
    </contour>
    <contour>
      <point x="160.0" y="1143.0" type="qcurve" smooth="yes"/>
      <point x="160.0" y="1004.25"/>
      <point x="231.75" y="879.0"/>
      <point x="309.0" y="879.0" type="qcurve" smooth="yes"/>
      <point x="390.75" y="879.0"/>
      <point x="459.0" y="1004.25"/>
      <point x="459.0" y="1143.0" type="qcurve" smooth="yes"/>
      <point x="459.0" y="1281.75"/>
      <point x="387.75" y="1405.0"/>
      <point x="309.0" y="1405.0" type="qcurve" smooth="yes"/>
      <point x="240.0" y="1405.0"/>
      <point x="160.0" y="1280.25"/>
    </contour>
  </outline>
</glyph>
<glyph name="Thorn" format="1">
  <advance width="840"/>
  <unicode hex="00DE"/>
  <note>
Thorn
</note>
  <outline>
    <contour>
      <point x="160" y="0" type="line"/>
      <point x="160" y="1462" type="line"/>
      <point x="258" y="1462" type="line"/>
      <point x="258" y="1192" type="line"/>
      <point x="360.0" y="1192.0" type="line" smooth="yes"/>
      <point x="573.75" y="1192.0"/>
      <point x="772.0" y="994.0"/>
      <point x="772.0" y="784.0" type="qcurve" smooth="yes"/>
      <point x="772.0" y="559.0"/>
      <point x="568.25" y="334.0"/>
      <point x="365" y="334" type="qcurve" smooth="yes"/>
      <point x="258" y="334" type="line"/>
      <point x="258" y="0" type="line"/>
    </contour>
    <contour>
      <point x="258" y="428" type="line"/>
      <point x="356.0" y="428.0" type="line" smooth="yes"/>
      <point x="526.25" y="428.0"/>
      <point x="672.0" y="583.0"/>
      <point x="672.0" y="772.0" type="qcurve" smooth="yes"/>
      <point x="672.0" y="945.25"/>
      <point x="529.0" y="1096.0"/>
      <point x="367" y="1096" type="qcurve" smooth="yes"/>
      <point x="258" y="1096" type="line"/>
    </contour>
    <contour>
      <point x="420" y="0" type="move" name="bottom"/>
    </contour>
    <contour>
      <point x="420" y="1462" type="move" name="top"/>
    </contour>
  </outline>
</glyph>
<glyph name="germandbls" format="1">
  <advance width="823"/>
  <unicode hex="00DF"/>
  <note>
germandbls
</note>
  <outline>
    <contour>
      <point x="490.0" y="-20.0" type="qcurve" smooth="yes"/>
      <point x="443.5" y="-20.0"/>
      <point x="347.75" y="6.75"/>
      <point x="317" y="33" type="qcurve"/>
      <point x="317.0" y="133.0" type="line"/>
      <point x="352.25" y="108.25"/>
      <point x="436.75" y="70.0"/>
      <point x="487.0" y="70.0" type="qcurve" smooth="yes"/>
      <point x="570.25" y="70.0"/>
      <point x="655.0" y="187.5"/>
      <point x="655.0" y="294.0" type="qcurve" smooth="yes"/>
      <point x="655.0" y="346.5"/>
      <point x="631.3333333333333" y="420.5833333333333"/>
      <point x="575.0" y="500.99999999999994"/>
      <point x="526.0" y="563.0" type="qcurve" smooth="yes"/>
      <point x="486.0" y="613.5"/>
      <point x="422.16666666666663" y="707.3333333333334"/>
      <point x="385.0" y="806.5"/>
      <point x="385.0" y="865.0" type="qcurve" smooth="yes"/>
      <point x="385.0" y="922.75"/>
      <point x="428.25" y="1001.75"/>
      <point x="474.0" y="1064.0" type="qcurve" smooth="yes"/>
      <point x="511.5" y="1115.0"/>
      <point x="563.0" y="1216.5"/>
      <point x="563.0" y="1296.0" type="qcurve" smooth="yes"/>
      <point x="563.0" y="1386.0"/>
      <point x="489.25" y="1477.0"/>
      <point x="418.0" y="1477.0" type="qcurve" smooth="yes"/>
      <point x="331.0" y="1477.0"/>
      <point x="240.0" y="1342.25"/>
      <point x="240" y="1214" type="qcurve" smooth="yes"/>
      <point x="240" y="0" type="line"/>
      <point x="145" y="0" type="line"/>
      <point x="145.0" y="1204.0" type="line" smooth="yes"/>
      <point x="145.0" y="1375.75"/>
      <point x="290.25" y="1567.0"/>
      <point x="423.0" y="1567.0" type="qcurve" smooth="yes"/>
      <point x="500.5" y="1567.0"/>
      <point x="605.5833333333333" y="1502.0833333333333"/>
      <point x="659.0" y="1381.5"/>
      <point x="659.0" y="1298.0" type="qcurve" smooth="yes"/>
      <point x="659.0" y="1258.25"/>
      <point x="647.25" y="1201.0"/>
      <point x="636.0" y="1171.0" type="qcurve" smooth="yes"/>
      <point x="621.75" y="1133.5"/>
      <point x="591.25" y="1084.25"/>
      <point x="568.0" y="1052.0" type="qcurve" smooth="yes"/>
      <point x="522.25" y="989.75"/>
      <point x="477.0" y="909.75"/>
      <point x="477.0" y="855.0" type="qcurve" smooth="yes"/>
      <point x="477.0" y="807.75"/>
      <point x="522.0" y="714.75"/>
      <point x="588.0" y="633.0" type="qcurve" smooth="yes"/>
      <point x="591.75" y="628.5"/>
      <point x="630.5" y="582.5"/>
      <point x="647.0" y="563.0" type="qcurve" smooth="yes"/>
      <point x="674.75" y="530.0"/>
      <point x="716.25" y="465.5"/>
      <point x="729.0" y="431.0" type="qcurve" smooth="yes"/>
      <point x="740.25" y="400.25"/>
      <point x="752.0" y="332.75"/>
      <point x="752.0" y="293.0" type="qcurve" smooth="yes"/>
      <point x="752.0" y="147.5"/>
      <point x="610.75" y="-20.0"/>
    </contour>
    <contour>
      <point x="412" y="0" type="move" name="bottom"/>
    </contour>
    <contour>
      <point x="412" y="1085" type="move" name="top"/>
    </contour>
  </outline>
</glyph>
<glyph name="ae" format="1">
  <advance width="1260"/>
  <unicode hex="00E6"/>
  <note>
ae
</note>
  <outline>
    <contour>
      <point x="313.0" y="-20.0" type="qcurve" smooth="yes"/>
      <point x="207.25" y="-20.0"/>
      <point x="78.0" y="149.25"/>
      <point x="78.0" y="291.0" type="qcurve" smooth="yes"/>
      <point x="78.0" y="446.25"/>
      <point x="264.0" y="626.75"/>
      <point x="432" y="635" type="qcurve" smooth="yes"/>
      <point x="549" y="641" type="line"/>
      <point x="549.0" y="731.0" type="line" smooth="yes"/>
      <point x="549.0" y="877.25"/>
      <point x="469.75" y="1022.0"/>
      <point x="385.0" y="1022.0" type="qcurve" smooth="yes"/>
      <point x="338.5" y="1022.0"/>
      <point x="243.75" y="991.75"/>
      <point x="195" y="961" type="qcurve"/>
      <point x="154.0" y="1036.0" type="line"/>
      <point x="201.25" y="1065.25"/>
      <point x="311.75" y="1106.0"/>
      <point x="389.0" y="1106.0" type="qcurve" smooth="yes"/>
      <point x="478.25" y="1106.0"/>
      <point x="592.5" y="1020.25"/>
      <point x="618.0" y="934.0" type="qcurve"/>
      <point x="660.0" y="1020.25"/>
      <point x="784.75" y="1106.0"/>
      <point x="868.0" y="1106.0" type="qcurve" smooth="yes"/>
      <point x="1005.25" y="1106.0"/>
      <point x="1163.0" y="850.75"/>
      <point x="1163" y="631" type="qcurve" smooth="yes"/>
      <point x="1163" y="543" type="line"/>
      <point x="649.0" y="543.0" type="line"/>
      <point x="653.5" y="304.5"/>
      <point x="782.5" y="66.0"/>
      <point x="907.0" y="66.0" type="qcurve" smooth="yes"/>
      <point x="957.25" y="66.0"/>
      <point x="1076.25" y="100.75"/>
      <point x="1128" y="133" type="qcurve"/>
      <point x="1128.0" y="45.0" type="line"/>
      <point x="1077.75" y="12.75"/>
      <point x="966.5" y="-20.0"/>
      <point x="905.0" y="-20.0" type="qcurve" smooth="yes"/>
      <point x="800.0" y="-20.0"/>
      <point x="639.0" y="106.25"/>
      <point x="600.0" y="221.0" type="qcurve"/>
      <point x="569.5" y="135.0"/>
      <point x="486.0833333333333" y="28.833333333333332"/>
      <point x="379.0" y="-20.0"/>
    </contour>
    <contour>
      <point x="334.0" y="61.0" type="qcurve" smooth="yes"/>
      <point x="436.0" y="61.0"/>
      <point x="549.0" y="262.25"/>
      <point x="549" y="446" type="qcurve" smooth="yes"/>
      <point x="549" y="559" type="line"/>
      <point x="436.0" y="553.0" type="line" smooth="yes"/>
      <point x="304.0" y="546.25"/>
      <point x="178.0" y="421.0"/>
      <point x="178.0" y="289.0" type="qcurve" smooth="yes"/>
      <point x="178.0" y="171.25"/>
      <point x="262.0" y="61.0"/>
    </contour>
    <contour>
      <point x="651" y="629" type="qcurve"/>
      <point x="1069.0" y="629.0" type="line"/>
      <point x="1069.0" y="812.75"/>
      <point x="959.0" y="1018.0"/>
      <point x="866.0" y="1018.0" type="qcurve" smooth="yes"/>
      <point x="769.25" y="1018.0"/>
      <point x="661.5" y="823.25"/>
    </contour>
    <contour>
      <point x="630" y="0" type="move" name="bottom"/>
    </contour>
    <contour>
      <point x="630" y="1085" type="move" name="top"/>
    </contour>
  </outline>
</glyph>
<glyph name="eth" format="1">
  <advance width="856"/>
  <unicode hex="00F0"/>
  <note>
eth
</note>
  <outline>
    <contour>
      <point x="424.0" y="-20.0" type="qcurve" smooth="yes"/>
      <point x="325.5" y="-20.0"/>
      <point x="176.91666666666666" y="103.25"/>
      <point x="94.0" y="323.5"/>
      <point x="94.0" y="469.0" type="qcurve" smooth="yes"/>
      <point x="94.0" y="702.25"/>
      <point x="255.25" y="954.0"/>
      <point x="406.0" y="954.0" type="qcurve" smooth="yes"/>
      <point x="559.5" y="954.0"/>
      <point x="633" y="831" type="qcurve"/>
      <point x="641.0" y="831.0" type="line"/>
      <point x="588.760324560491" y="1125.034744616665"/>
      <point x="403" y="1341" type="qcurve"/>
      <point x="229" y="1239" type="line"/>
      <point x="190" y="1305" type="line"/>
      <point x="350.0" y="1399.0" type="line"/>
      <point x="320.75" y="1426.75"/>
      <point x="264.25" y="1474.75"/>
      <point x="238" y="1495" type="qcurve"/>
      <point x="285.0" y="1556.0" type="line"/>
      <point x="359.94875164257553" y="1508.5834428383705"/>
      <point x="426" y="1444" type="qcurve"/>
      <point x="614" y="1554" type="line"/>
      <point x="653" y="1489" type="line"/>
      <point x="479.0" y="1386.0" type="line"/>
      <point x="762.0" y="1061.0740740740741"/>
      <point x="762.0" y="514.0" type="qcurve" smooth="yes"/>
      <point x="762.0" y="-20.0"/>
    </contour>
    <contour>
      <point x="430.0" y="66.0" type="qcurve" smooth="yes"/>
      <point x="552.25" y="66.0"/>
      <point x="666.0" y="272.25"/>
      <point x="666.0" y="483.0" type="qcurve" smooth="yes"/>
      <point x="666.0" y="648.75"/>
      <point x="537.0" y="864.0"/>
      <point x="432.0" y="864.0" type="qcurve" smooth="yes"/>
      <point x="315.0" y="864.0"/>
      <point x="190.0" y="659.75"/>
      <point x="190.0" y="461.0" type="qcurve" smooth="yes"/>
      <point x="190.0" y="280.25"/>
      <point x="319.0" y="66.0"/>
    </contour>
  </outline>
</glyph>
<glyph name="divide" format="1">
  <advance width="819"/>
  <unicode hex="00F7"/>
  <note>
divide
</note>
  <outline>
    <contour>
      <point x="59" y="682" type="line"/>
      <point x="59" y="764" type="line"/>
      <point x="760" y="764" type="line"/>
      <point x="760" y="682" type="line"/>
    </contour>
    <contour>
      <point x="410.0" y="266.0" type="qcurve" smooth="yes"/>
      <point x="371.0" y="266.0"/>
      <point x="332.0" y="319.75"/>
      <point x="332.0" y="373.0" type="qcurve" smooth="yes"/>
      <point x="332.0" y="479.0"/>
      <point x="410.0" y="479.0" type="qcurve" smooth="yes"/>
      <point x="448.25" y="479.0"/>
      <point x="487.0" y="426.25"/>
      <point x="487.0" y="373.0" type="qcurve" smooth="yes"/>
      <point x="487.0" y="316.0"/>
      <point x="442.25" y="266.0"/>
    </contour>
    <contour>
      <point x="410.0" y="965.0" type="qcurve" smooth="yes"/>
      <point x="371.0" y="965.0"/>
      <point x="332.0" y="1017.75"/>
      <point x="332.0" y="1071.0" type="qcurve" smooth="yes"/>
      <point x="332.0" y="1178.0"/>
      <point x="410.0" y="1178.0" type="qcurve" smooth="yes"/>
      <point x="448.25" y="1178.0"/>
      <point x="487.0" y="1124.25"/>
      <point x="487.0" y="1071.0" type="qcurve" smooth="yes"/>
      <point x="487.0" y="1014.0"/>
      <point x="442.25" y="965.0"/>
    </contour>
  </outline>
</glyph>
<glyph name="oslash" format="1">
  <advance width="850"/>
  <unicode hex="00F8"/>
  <note>
oslash
</note>
  <outline>
    <contour>
      <point x="143" y="-143" type="line"/>
      <point x="68" y="-102" type="line"/>
      <point x="180.0" y="125.0" type="line"/>
      <point x="137.25" y="197.75"/>
      <point x="94.0" y="407.75"/>
      <point x="94.0" y="545.0" type="qcurve" smooth="yes"/>
      <point x="94.0" y="732.0"/>
      <point x="167.91666666666666" y="981.3333333333333"/>
      <point x="315.5" y="1106.0"/>
      <point x="426.0" y="1106.0" type="qcurve" smooth="yes"/>
      <point x="484.5" y="1106.0"/>
      <point x="583.25" y="1062.75"/>
      <point x="623" y="1020" type="qcurve"/>
      <point x="707" y="1190" type="line"/>
      <point x="782" y="1149" type="line"/>
      <point x="680.0" y="940.0" type="line"/>
      <point x="756.0" y="792.4705882352941"/>
      <point x="756.0" y="545.0" type="qcurve" smooth="yes"/>
      <point x="756.0" y="271.25"/>
      <point x="583.25" y="-20.0"/>
      <point x="422.0" y="-20.0" type="qcurve" smooth="yes"/>
      <point x="308.5" y="-20.0"/>
      <point x="238" y="49" type="qcurve"/>
    </contour>
    <contour>
      <point x="424.0" y="70.0" type="qcurve" smooth="yes"/>
      <point x="540.25" y="70.0"/>
      <point x="657.0" y="307.25"/>
      <point x="657.0" y="545.0" type="qcurve" smooth="yes"/>
      <point x="657.0" y="635.0"/>
      <point x="640.75" y="777.25"/>
      <point x="625" y="829" type="qcurve"/>
      <point x="283.0" y="137.0" type="line"/>
      <point x="308.5" y="103.25"/>
      <point x="379.0" y="70.0"/>
    </contour>
    <contour>
      <point x="231" y="231" type="qcurve"/>
      <point x="578.0" y="930.0" type="line"/>
      <point x="550.25" y="972.75"/>
      <point x="472.75" y="1016.0"/>
      <point x="424.0" y="1016.0" type="qcurve" smooth="yes"/>
      <point x="342.5" y="1016.0"/>
      <point x="240.58333333333331" y="910.9166666666666"/>
      <point x="193.0" y="701.5"/>
      <point x="193.0" y="545.0" type="qcurve" smooth="yes"/>
      <point x="193.0" y="443.75"/>
      <point x="212.25" y="287.25"/>
    </contour>
    <contour>
      <point x="425" y="1085" type="move" name="top"/>
    </contour>
  </outline>
</glyph>
<glyph name="thorn" format="1">
  <advance width="893"/>
  <unicode hex="00FE"/>
  <note>
thorn
</note>
  <outline>
    <contour>
      <point x="145" y="-492" type="line"/>
      <point x="145" y="1556" type="line"/>
      <point x="240" y="1556" type="line"/>
      <point x="240.0" y="1072.0" type="line" smooth="yes"/>
      <point x="240.0" y="1038.25"/>
      <point x="237.5" y="969.75"/>
      <point x="236" y="936" type="qcurve"/>
      <point x="240.0" y="936.0" type="line"/>
      <point x="279.0" y="1017.0"/>
      <point x="406.75" y="1106.0"/>
      <point x="481.0" y="1106.0" type="qcurve" smooth="yes"/>
      <point x="640.0" y="1106.0"/>
      <point x="799.0" y="825.5"/>
      <point x="799.0" y="545.0" type="qcurve" smooth="yes"/>
      <point x="799.0" y="364.5"/>
      <point x="729.4166666666667" y="112.08333333333333"/>
      <point x="593.5" y="-20.0"/>
      <point x="494.0" y="-20.0" type="qcurve" smooth="yes"/>
      <point x="410.0" y="-20.0"/>
      <point x="273.75" y="72.75"/>
      <point x="240" y="150" type="qcurve"/>
      <point x="233.0" y="150.0" type="line"/>
      <point x="236.0" y="130.0"/>
      <point x="240.99999999999997" y="90.5"/>
      <point x="244.0" y="51.0"/>
      <point x="244" y="31" type="qcurve" smooth="yes"/>
      <point x="244" y="-492" type="line"/>
    </contour>
    <contour>
      <point x="479.0" y="66.0" type="qcurve" smooth="yes"/>
      <point x="571.0" y="66.0"/>
      <point x="665.1666666666666" y="202.5833333333333"/>
      <point x="698.0" y="421.5"/>
      <point x="698.0" y="545.0" type="qcurve" smooth="yes"/>
      <point x="698.0" y="673.5"/>
      <point x="664.8333333333333" y="887.5833333333334"/>
      <point x="569.0" y="1016.0"/>
      <point x="475.0" y="1016.0" type="qcurve" smooth="yes"/>
      <point x="380.5" y="1016.0"/>
      <point x="278.75" y="897.75"/>
      <point x="240.0" y="700.5"/>
      <point x="240" y="582" type="qcurve" smooth="yes"/>
      <point x="240.0" y="551.0" type="line" smooth="yes"/>
      <point x="240.0" y="384.5"/>
      <point x="292.41666666666663" y="169.75"/>
      <point x="398.5" y="66.0"/>
    </contour>
    <contour>
      <point x="447" y="0" type="move" name="bottom"/>
    </contour>
    <contour>
      <point x="447" y="1085" type="move" name="top"/>
    </contour>
  </outline>
</glyph>
<glyph name="dcroat" format="1">
  <advance width="893"/>
  <unicode hex="0111"/>
  <note>
dcroat
</note>
  <outline>
    <contour>
      <point x="410.0" y="-20.0" type="qcurve" smooth="yes"/>
      <point x="251.75" y="-20.0"/>
      <point x="94.0" y="260.5"/>
      <point x="94.0" y="541.0" type="qcurve" smooth="yes"/>
      <point x="94.0" y="817.0"/>
      <point x="252.25" y="1106.0"/>
      <point x="406.0" y="1106.0" type="qcurve" smooth="yes"/>
      <point x="478.75" y="1106.0"/>
      <point x="610.0" y="1020.25"/>
      <point x="649" y="946" type="qcurve"/>
      <point x="657.0" y="946.0" type="line"/>
      <point x="656.25" y="976.75"/>
      <point x="653.75" y="1038.25"/>
      <point x="653" y="1069" type="qcurve" smooth="yes"/>
      <point x="653" y="1278" type="line"/>
      <point x="391" y="1278" type="line"/>
      <point x="391" y="1360" type="line"/>
      <point x="653" y="1360" type="line"/>
      <point x="653" y="1556" type="line"/>
      <point x="748" y="1556" type="line"/>
      <point x="748" y="1360" type="line"/>
      <point x="866" y="1360" type="line"/>
      <point x="866" y="1278" type="line"/>
      <point x="748" y="1278" type="line"/>
      <point x="748" y="0" type="line"/>
      <point x="670" y="0" type="line"/>
      <point x="659" y="154" type="line"/>
      <point x="651.0" y="154.0" type="line"/>
      <point x="609.75" y="67.0"/>
      <point x="489.5" y="-20.0"/>
    </contour>
    <contour>
      <point x="416.0" y="63.0" type="qcurve" smooth="yes"/>
      <point x="529.25" y="63.0"/>
      <point x="653.0" y="282.25"/>
      <point x="653" y="508" type="qcurve" smooth="yes"/>
      <point x="653.0" y="541.0" type="line" smooth="yes"/>
      <point x="653.0" y="669.5"/>
      <point x="614.1666666666665" y="885.5833333333333"/>
      <point x="510.0" y="1016.0"/>
      <point x="412.0" y="1016.0" type="qcurve" smooth="yes"/>
      <point x="295.0" y="1016.0"/>
      <point x="193.0" y="770.75"/>
      <point x="193.0" y="539.0" type="qcurve" smooth="yes"/>
      <point x="193.0" y="414.0"/>
      <point x="228.25" y="196.83333333333331"/>
      <point x="324.5" y="63.0"/>
    </contour>
  </outline>
</glyph>
<glyph name="hbar" format="1">
  <advance width="870"/>
  <unicode hex="0127"/>
  <note>
hbar
</note>
  <outline>
    <contour>
      <point x="145" y="0" type="line"/>
      <point x="145" y="1270" type="line"/>
      <point x="27" y="1270" type="line"/>
      <point x="27" y="1354" type="line"/>
      <point x="145" y="1354" type="line"/>
      <point x="145" y="1556" type="line"/>
      <point x="240" y="1556" type="line"/>
      <point x="240" y="1354" type="line"/>
      <point x="502" y="1354" type="line"/>
      <point x="502" y="1270" type="line"/>
      <point x="240" y="1270" type="line"/>
      <point x="240.0" y="1051.0" type="line" smooth="yes"/>
      <point x="240.0" y="1016.5"/>
      <point x="238.25" y="959.25"/>
      <point x="236" y="936" type="qcurve"/>
      <point x="244.0" y="936.0" type="line"/>
      <point x="276.25" y="1013.25"/>
      <point x="397.25" y="1106.0"/>
      <point x="488.0" y="1106.0" type="qcurve" smooth="yes"/>
      <point x="616.25" y="1106.0"/>
      <point x="729.0" y="917.5"/>
      <point x="729" y="748" type="qcurve" smooth="yes"/>
      <point x="729" y="0" type="line"/>
      <point x="635" y="0" type="line"/>
      <point x="635.0" y="748.0" type="line" smooth="yes"/>
      <point x="635.0" y="894.25"/>
      <point x="558.25" y="1018.0"/>
      <point x="472.0" y="1018.0" type="qcurve" smooth="yes"/>
      <point x="346.27848101265823" y="1018.0"/>
      <point x="290.0" y="901.0" type="qcurve" smooth="yes"/>
      <point x="264.5" y="847.75"/>
      <point x="240.0" y="691.5"/>
      <point x="240" y="594" type="qcurve" smooth="yes"/>
      <point x="240" y="0" type="line"/>
    </contour>
  </outline>
</glyph>
<glyph name="ldot" format="1">
  <advance width="457"/>
  <unicode hex="0140"/>
  <note>
ldot
</note>
  <outline>
    <contour>
      <point x="240" y="1556" type="line"/>
      <point x="240" y="0" type="line"/>
      <point x="145" y="0" type="line"/>
      <point x="145" y="1556" type="line"/>
    </contour>
    <contour>
      <point x="362.0" y="674.0" type="qcurve" smooth="yes"/>
      <point x="362.0" y="719.0"/>
      <point x="398.75" y="769.0"/>
      <point x="428.0" y="769.0" type="qcurve" smooth="yes"/>
      <point x="487.0" y="769.0"/>
      <point x="487.0" y="674.0" type="qcurve" smooth="yes"/>
      <point x="487.0" y="631.25"/>
      <point x="455.0" y="580.0"/>
      <point x="428.0" y="580.0" type="qcurve" smooth="yes"/>
      <point x="398.75" y="580.0"/>
      <point x="362.0" y="631.25"/>
    </contour>
  </outline>
</glyph>
<glyph name="Lslash" format="1">
  <advance width="711"/>
  <unicode hex="0141"/>
  <note>
Lslash
</note>
  <outline>
    <contour>
      <point x="670" y="0" type="line"/>
      <point x="160" y="0" type="line"/>
      <point x="160" y="503" type="line"/>
      <point x="53" y="438" type="line"/>
      <point x="6" y="510" type="line"/>
      <point x="160" y="602" type="line"/>
      <point x="160" y="1462" type="line"/>
      <point x="258" y="1462" type="line"/>
      <point x="258" y="659" type="line"/>
      <point x="518" y="815" type="line"/>
      <point x="563" y="739" type="line"/>
      <point x="258" y="559" type="line"/>
      <point x="258" y="94" type="line"/>
      <point x="670" y="94" type="line"/>
    </contour>
  </outline>
</glyph>
<glyph name="Eng" format="1">
  <advance width="1090"/>
  <unicode hex="014A"/>
  <note>
Eng
</note>
  <outline>
    <contour>
      <point x="709.0" y="-369.0" type="qcurve" smooth="yes"/>
      <point x="640.5294117647059" y="-369.0"/>
      <point x="592" y="-344" type="qcurve"/>
      <point x="592.0" y="-252.0" type="line"/>
      <point x="616.75" y="-261.75"/>
      <point x="674.0" y="-272.0"/>
      <point x="707.0" y="-272.0" type="qcurve" smooth="yes"/>
      <point x="784.25" y="-272.0"/>
      <point x="837.5" y="-116.75"/>
      <point x="833" y="52" type="qcurve"/>
      <point x="852" y="-40" type="line"/>
      <point x="252" y="1311" type="line"/>
      <point x="244.0" y="1311.0" type="line"/>
      <point x="250.0" y="1242.75"/>
      <point x="256.0" y="1112.0"/>
      <point x="256" y="1049" type="qcurve" smooth="yes"/>
      <point x="256" y="0" type="line"/>
      <point x="160" y="0" type="line"/>
      <point x="160" y="1462" type="line"/>
      <point x="287" y="1462" type="line"/>
      <point x="836" y="225" type="line"/>
      <point x="842.0" y="225.0" type="line"/>
      <point x="838.25" y="300.75"/>
      <point x="834.0" y="434.25"/>
      <point x="834" y="492" type="qcurve" smooth="yes"/>
      <point x="834" y="1462" type="line"/>
      <point x="930" y="1462" type="line"/>
      <point x="930.0" y="-23.0" type="line" smooth="yes"/>
      <point x="930.0" y="-194.75"/>
      <point x="817.75" y="-369.0"/>
    </contour>
  </outline>
</glyph>
<glyph name="eng" format="1">
  <advance width="870"/>
  <unicode hex="014B"/>
  <note>
eng
</note>
  <outline>
    <contour>
      <point x="553.0" y="-492.0" type="qcurve" smooth="yes"/>
      <point x="532.75" y="-492.0"/>
      <point x="499.25" y="-483.25"/>
      <point x="485" y="-475" type="qcurve"/>
      <point x="485.0" y="-385.0" type="line"/>
      <point x="502.25" y="-393.25"/>
      <point x="534.75" y="-401.0"/>
      <point x="549.0" y="-401.0" type="qcurve" smooth="yes"/>
      <point x="635.0" y="-401.0"/>
      <point x="635" y="-215" type="qcurve" smooth="yes"/>
      <point x="635.0" y="748.0" type="line" smooth="yes"/>
      <point x="635.0" y="880.0"/>
      <point x="549.25" y="1012.0"/>
      <point x="463.0" y="1012.0" type="qcurve" smooth="yes"/>
      <point x="409.0" y="1012.0"/>
      <point x="328.0" y="969.5"/>
      <point x="301.0" y="926.0" type="qcurve" smooth="yes"/>
      <point x="269.5" y="875.0"/>
      <point x="240.0" y="711.5"/>
      <point x="240" y="596" type="qcurve" smooth="yes"/>
      <point x="240" y="0" type="line"/>
      <point x="145" y="0" type="line"/>
      <point x="145" y="1085" type="line"/>
      <point x="225" y="1085" type="line"/>
      <point x="233" y="934" type="line"/>
      <point x="240.0" y="934.0" type="line"/>
      <point x="273.0" y="1014.25"/>
      <point x="402.0" y="1106.0"/>
      <point x="477.0" y="1106.0" type="qcurve" smooth="yes"/>
      <point x="612.0" y="1106.0"/>
      <point x="729.0" y="919.0"/>
      <point x="729" y="709" type="qcurve" smooth="yes"/>
      <point x="729.0" y="-201.0" type="line" smooth="yes"/>
      <point x="729.0" y="-346.5"/>
      <point x="640.75" y="-492.0"/>
    </contour>
  </outline>
</glyph>
<glyph name="OE" format="1">
  <advance width="1233"/>
  <unicode hex="0152"/>
  <note>
OE
</note>
  <outline>
    <contour>
      <point x="586.0" y="-6.0" type="qcurve" smooth="yes"/>
      <point x="427.5" y="-6.0"/>
      <point x="216.41666666666663" y="158.66666666666669"/>
      <point x="111.0" y="488.00000000000006"/>
      <point x="111.0" y="735.0" type="qcurve" smooth="yes"/>
      <point x="111.0" y="977.5"/>
      <point x="221.25" y="1303.5833333333335"/>
      <point x="436.5" y="1468.0"/>
      <point x="594.0" y="1468.0" type="qcurve"/>
      <point x="613.0" y="1467.0"/>
      <point x="651.5" y="1465.0"/>
      <point x="690.0" y="1463.0"/>
      <point x="709" y="1462" type="qcurve"/>
      <point x="1135" y="1462" type="line"/>
      <point x="1135" y="1368" type="line"/>
      <point x="702" y="1368" type="line"/>
      <point x="702" y="813" type="line"/>
      <point x="1110" y="813" type="line"/>
      <point x="1110" y="719" type="line"/>
      <point x="702" y="719" type="line"/>
      <point x="702" y="94" type="line"/>
      <point x="1135" y="94" type="line"/>
      <point x="1135" y="0" type="line"/>
      <point x="711.0" y="0.0" type="line" smooth="yes"/>
      <point x="690.0" y="-1.0"/>
      <point x="648.5" y="-3.0"/>
      <point x="607.0" y="-5.0"/>
    </contour>
    <contour>
      <point x="599.0" y="88.0" type="qcurve" smooth="yes"/>
      <point x="600.5" y="88.0"/>
      <point x="602.5" y="88.0"/>
      <point x="604" y="88" type="qcurve"/>
      <point x="604.0" y="1374.0" type="line"/>
      <point x="602.5" y="1374.0"/>
      <point x="600.5" y="1374.0"/>
      <point x="599.0" y="1374.0" type="qcurve" smooth="yes"/>
      <point x="400.25" y="1372.5"/>
      <point x="215.0" y="1072.0"/>
      <point x="215.0" y="733.0" type="qcurve" smooth="yes"/>
      <point x="215.0" y="395.5"/>
      <point x="398.0" y="89.5"/>
    </contour>
    <contour>
      <point x="617" y="0" type="move" name="bottom"/>
    </contour>
    <contour>
      <point x="617" y="1462" type="move" name="top"/>
    </contour>
  </outline>
</glyph>
<glyph name="oe" format="1">
  <advance width="1362"/>
  <unicode hex="0153"/>
  <note>
oe
</note>
  <outline>
    <contour>
      <point x="422.0" y="-20.0" type="qcurve" smooth="yes"/>
      <point x="298.5" y="-20.0"/>
      <point x="155.08333333333331" y="137.5"/>
      <point x="94.0" y="395.0"/>
      <point x="94.0" y="545.0" type="qcurve" smooth="yes"/>
      <point x="94.0" y="1106.0"/>
      <point x="426.0" y="1106.0" type="qcurve" smooth="yes"/>
      <point x="619.317880794702" y="1106.0"/>
      <point x="702.0" y="879.0" type="qcurve"/>
      <point x="781.6754966887418" y="1106.0"/>
      <point x="975.0" y="1106.0" type="qcurve" smooth="yes"/>
      <point x="1110.0" y="1106.0"/>
      <point x="1266.0" y="849.25"/>
      <point x="1266" y="631" type="qcurve" smooth="yes"/>
      <point x="1266" y="543" type="line"/>
      <point x="752.0" y="543.0" type="line"/>
      <point x="756.5" y="66.0"/>
      <point x="1016.0" y="66.0" type="qcurve" smooth="yes"/>
      <point x="1119.3333333333333" y="66.0"/>
      <point x="1231" y="133" type="qcurve"/>
      <point x="1231.0" y="45.0" type="line"/>
      <point x="1126.6976744186047" y="-20.0"/>
      <point x="1012.0" y="-20.0" type="qcurve" smooth="yes"/>
      <point x="793.5" y="-20.0"/>
      <point x="705.0" y="211.0" type="qcurve"/>
      <point x="625.5" y="-20.0"/>
    </contour>
    <contour>
      <point x="424.0" y="66.0" type="qcurve" smooth="yes"/>
      <point x="553.8936170212766" y="66.0"/>
      <point x="609.0" y="206.0" type="qcurve" smooth="yes"/>
      <point x="633.0" y="268.25"/>
      <point x="655.0" y="430.0"/>
      <point x="655.0" y="532.0" type="qcurve" smooth="yes"/>
      <point x="655.0" y="777.578947368421"/>
      <point x="599.0" y="894.0" type="qcurve" smooth="yes"/>
      <point x="541.7654320987655" y="1016.0"/>
      <point x="424.0" y="1016.0" type="qcurve" smooth="yes"/>
      <point x="319.1864406779661" y="1016.0"/>
      <point x="264.0" y="928.0" type="qcurve" smooth="yes"/>
      <point x="227.25" y="870.25"/>
      <point x="193.0" y="678.5"/>
      <point x="193.0" y="545.0" type="qcurve" smooth="yes"/>
      <point x="193.0" y="325.21212121212125"/>
      <point x="243.0" y="204.0" type="qcurve" smooth="yes"/>
      <point x="300.0" y="66.0"/>
    </contour>
    <contour>
      <point x="754" y="629" type="qcurve"/>
      <point x="1171.0" y="629.0" type="line"/>
      <point x="1171.0" y="812.75"/>
      <point x="1062.0" y="1018.0"/>
      <point x="969.0" y="1018.0" type="qcurve" smooth="yes"/>
      <point x="773.5250965250965" y="1018.0"/>
    </contour>
    <contour>
      <point x="681" y="0" type="move" name="bottom"/>
    </contour>
    <contour>
      <point x="681" y="1085" type="move" name="top"/>
    </contour>
  </outline>
</glyph>
<glyph name="tbar" format="1">
  <advance width="449"/>
  <unicode hex="0167"/>
  <note>
tbar
</note>
  <outline>
    <contour>
      <point x="309.0" y="-20.0" type="qcurve" smooth="yes"/>
      <point x="225.0" y="-20.0"/>
      <point x="141.0" y="105.75"/>
      <point x="141" y="231" type="qcurve" smooth="yes"/>
      <point x="141" y="604" type="line"/>
      <point x="43" y="604" type="line"/>
      <point x="43" y="688" type="line"/>
      <point x="141" y="688" type="line"/>
      <point x="141" y="1001" type="line"/>
      <point x="43" y="1001" type="line"/>
      <point x="43" y="1057" type="line"/>
      <point x="139" y="1085" type="line"/>
      <point x="170" y="1343" type="line"/>
      <point x="236" y="1343" type="line"/>
      <point x="236" y="1085" type="line"/>
      <point x="408" y="1085" type="line"/>
      <point x="408" y="1001" type="line"/>
      <point x="236" y="1001" type="line"/>
      <point x="236" y="688" type="line"/>
      <point x="408" y="688" type="line"/>
      <point x="408" y="604" type="line"/>
      <point x="236" y="604" type="line"/>
      <point x="236.0" y="258.0" type="line" smooth="yes"/>
      <point x="236.0" y="147.75"/>
      <point x="284.0" y="68.0"/>
      <point x="344.0" y="68.0" type="qcurve" smooth="yes"/>
      <point x="365.75" y="68.0"/>
      <point x="404.75" y="74.0"/>
      <point x="422" y="80" type="qcurve"/>
      <point x="422.0" y="0.0" type="line"/>
      <point x="377.38461538461536" y="-20.0"/>
    </contour>
  </outline>
</glyph>
<glyph name="longs" format="1">
  <advance width="389"/>
  <unicode hex="017F"/>
  <note>
longs
</note>
  <outline>
    <contour>
      <point x="145" y="0" type="line"/>
      <point x="145.0" y="1178.0" type="line" smooth="yes"/>
      <point x="145.0" y="1317.5"/>
      <point x="188.33333333333334" y="1488.75"/>
      <point x="285.0" y="1567.0"/>
      <point x="365.0" y="1567.0" type="qcurve" smooth="yes"/>
      <point x="436.11764705882354" y="1567.0"/>
      <point x="492" y="1542" type="qcurve"/>
      <point x="459.0" y="1454.0" type="line"/>
      <point x="442.5" y="1462.5"/>
      <point x="410.3333333333333" y="1473.5833333333335"/>
      <point x="379.5" y="1479.0"/>
      <point x="365.0" y="1479.0" type="qcurve" smooth="yes"/>
      <point x="314.0" y="1479.0"/>
      <point x="264.0" y="1419.75"/>
      <point x="252.0" y="1353.0" type="qcurve" smooth="yes"/>
      <point x="246.0" y="1319.25"/>
      <point x="240.0" y="1230.75"/>
      <point x="240" y="1176" type="qcurve" smooth="yes"/>
      <point x="240" y="0" type="line"/>
    </contour>
    <contour>
      <point x="195" y="0" type="move" name="bottom"/>
    </contour>
    <contour>
      <point x="195" y="1085" type="move" name="top"/>
    </contour>
  </outline>
</glyph>
<glyph name="florin" format="1">
  <advance width="819"/>
  <unicode hex="0192"/>
  <note>
florin
</note>
  <outline>
    <contour>
      <point x="207.0" y="-492.0" type="qcurve" smooth="yes"/>
      <point x="173.25" y="-492.0"/>
      <point x="110.0" y="-485.75"/>
      <point x="80" y="-479" type="qcurve"/>
      <point x="80.0" y="-385.0" type="line"/>
      <point x="152.0" y="-403.0"/>
      <point x="201.0" y="-403.0" type="qcurve" smooth="yes"/>
      <point x="284.25" y="-403.0"/>
      <point x="354.0" y="-276.75"/>
      <point x="354" y="-147" type="qcurve" smooth="yes"/>
      <point x="354" y="846" type="line"/>
      <point x="193" y="846" type="line"/>
      <point x="193" y="899" type="line"/>
      <point x="354" y="938" type="line"/>
      <point x="354.0" y="1126.0" type="line" smooth="yes"/>
      <point x="354.0" y="1305.25"/>
      <point x="455.25" y="1483.0"/>
      <point x="573.0" y="1483.0" type="qcurve" smooth="yes"/>
      <point x="648.5" y="1483.0"/>
      <point x="731" y="1444" type="qcurve"/>
      <point x="690.0" y="1358.0" type="line"/>
      <point x="658.5" y="1374.5"/>
      <point x="602.75" y="1391.0"/>
      <point x="578.0" y="1391.0" type="qcurve" smooth="yes"/>
      <point x="527.0" y="1391.0"/>
      <point x="474.75" y="1336.25"/>
      <point x="462.0" y="1274.0" type="qcurve" smooth="yes"/>
      <point x="455.25" y="1243.25"/>
      <point x="449.0" y="1161.0"/>
      <point x="449" y="1110" type="qcurve" smooth="yes"/>
      <point x="449" y="930" type="line"/>
      <point x="639" y="930" type="line"/>
      <point x="639" y="846" type="line"/>
      <point x="449" y="846" type="line"/>
      <point x="449.0" y="-111.0" type="line" smooth="yes"/>
      <point x="449.0" y="-309.75"/>
      <point x="338.25" y="-492.0"/>
    </contour>
  </outline>
</glyph>
<glyph name="Ohorn" format="1">
  <advance width="1053"/>
  <unicode hex="01A0"/>
  <note>
Ohorn
</note>
  <outline>
    <contour>
      <point x="532.0" y="-20.0" type="qcurve" smooth="yes"/>
      <point x="394.0" y="-20.0"/>
      <point x="206.49999999999997" y="156.24999999999997"/>
      <point x="111.0" y="493.5"/>
      <point x="111.0" y="735.0" type="qcurve" smooth="yes"/>
      <point x="111.0" y="987.0"/>
      <point x="205.08333333333334" y="1319.0"/>
      <point x="393.5" y="1483.0"/>
      <point x="535.0" y="1483.0" type="qcurve" smooth="yes"/>
      <point x="748.751724137931" y="1483.0"/>
      <point x="858.0" y="1266.0" type="qcurve"/>
      <point x="932.25" y="1281.75"/>
      <point x="996.75" y="1415.0"/>
      <point x="999" y="1556" type="qcurve"/>
      <point x="1085" y="1556" type="line"/>
      <point x="1102.0" y="1530.0" type="line"/>
      <point x="1093.0" y="1383.75"/>
      <point x="987.0" y="1218.0"/>
      <point x="891.0" y="1188.0" type="qcurve"/>
      <point x="954.0" y="1009.5"/>
      <point x="954.0" y="733.0" type="qcurve" smooth="yes"/>
      <point x="954.0" y="490.99999999999994"/>
      <point x="856.7499999999999" y="154.83333333333331"/>
      <point x="668.5" y="-20.0"/>
    </contour>
    <contour>
      <point x="532.0" y="74.0" type="qcurve" smooth="yes"/>
      <point x="688.75" y="74.0"/>
      <point x="852.0" y="403.75"/>
      <point x="852.0" y="733.0" type="qcurve" smooth="yes"/>
      <point x="852.0" y="1057.75"/>
      <point x="691.75" y="1389.0"/>
      <point x="535.0" y="1389.0" type="qcurve" smooth="yes"/>
      <point x="373.75" y="1389.0"/>
      <point x="213.0" y="1054.0"/>
      <point x="213.0" y="733.0" type="qcurve" smooth="yes"/>
      <point x="213.0" y="406.75"/>
      <point x="376.0" y="74.0"/>
    </contour>
    <contour>
      <point x="536" y="0" type="move" name="bottom"/>
    </contour>
    <contour>
      <point x="536" y="1462" type="move" name="top"/>
    </contour>
  </outline>
</glyph>
<glyph name="ohorn" format="1">
  <advance width="850"/>
  <unicode hex="01A1"/>
  <note>
ohorn
</note>
  <outline>
    <contour>
      <point x="422.0" y="-20.0" type="qcurve" smooth="yes"/>
      <point x="298.5" y="-20.0"/>
      <point x="155.08333333333331" y="137.5"/>
      <point x="94.0" y="395.0"/>
      <point x="94.0" y="545.0" type="qcurve" smooth="yes"/>
      <point x="94.0" y="1106.0"/>
      <point x="426.0" y="1106.0" type="qcurve" smooth="yes"/>
      <point x="582.7878787878788" y="1106.0"/>
      <point x="668.0" y="958.0" type="qcurve"/>
      <point x="730.25" y="984.25"/>
      <point x="781.75" y="1120.0"/>
      <point x="784" y="1243" type="qcurve"/>
      <point x="870" y="1243" type="line"/>
      <point x="887.0" y="1217.0" type="line"/>
      <point x="880.25" y="1076.75"/>
      <point x="789.75" y="918.0"/>
      <point x="705.0" y="885.0" type="qcurve"/>
      <point x="756.0" y="747.0"/>
      <point x="756.0" y="545.0" type="qcurve" smooth="yes"/>
      <point x="756.0" y="271.25"/>
      <point x="583.25" y="-20.0"/>
    </contour>
    <contour>
      <point x="424.0" y="66.0" type="qcurve" smooth="yes"/>
      <point x="532.5" y="66.0"/>
      <point x="591.0" y="171.0" type="qcurve" smooth="yes"/>
      <point x="657.0" y="289.5"/>
      <point x="657.0" y="545.0" type="qcurve" smooth="yes"/>
      <point x="657.0" y="786.4634146341464"/>
      <point x="596.0" y="904.0" type="qcurve" smooth="yes"/>
      <point x="537.76" y="1016.0"/>
      <point x="424.0" y="1016.0" type="qcurve" smooth="yes"/>
      <point x="301.2716049382716" y="1016.0"/>
      <point x="246.0" y="895.0" type="qcurve" smooth="yes"/>
      <point x="193.0" y="778.6944444444445"/>
      <point x="193.0" y="545.0" type="qcurve" smooth="yes"/>
      <point x="193.0" y="337.6551724137931"/>
      <point x="236.0" y="222.0" type="qcurve" smooth="yes"/>
      <point x="293.0" y="66.0"/>
    </contour>
    <contour>
      <point x="422" y="0" type="move" name="bottom"/>
    </contour>
    <contour>
      <point x="426" y="1085" type="move" name="top"/>
    </contour>
  </outline>
</glyph>
<glyph name="Uhorn" format="1">
  <advance width="1077"/>
  <unicode hex="01AF"/>
  <note>
Uhorn
</note>
  <outline>
    <contour>
      <point x="510.0" y="-20.0" type="qcurve" smooth="yes"/>
      <point x="333.0" y="-20.0"/>
      <point x="147.0" y="235.75"/>
      <point x="147" y="475" type="qcurve" smooth="yes"/>
      <point x="147" y="1462" type="line"/>
      <point x="246" y="1462" type="line"/>
      <point x="246.0" y="463.0" type="line" smooth="yes"/>
      <point x="246.0" y="273.25"/>
      <point x="383.25" y="74.0"/>
      <point x="510.0" y="74.0" type="qcurve" smooth="yes"/>
      <point x="636.0" y="74.0"/>
      <point x="766.0" y="272.75"/>
      <point x="766" y="467" type="qcurve" smooth="yes"/>
      <point x="766" y="1462" type="line"/>
      <point x="864" y="1462" type="line"/>
      <point x="864.0" y="1262.0" type="line"/>
      <point x="951.75" y="1277.0"/>
      <point x="1021.75" y="1409.0"/>
      <point x="1024" y="1556" type="qcurve"/>
      <point x="1110" y="1556" type="line"/>
      <point x="1126.0" y="1530.0" type="line"/>
      <point x="1121.5" y="1446.75"/>
      <point x="1079.25" y="1312.5"/>
      <point x="1038.0" y="1266.0" type="qcurve" smooth="yes"/>
      <point x="1007.25" y="1230.0"/>
      <point x="920.25" y="1184.25"/>
      <point x="864" y="1176" type="qcurve"/>
      <point x="864.0" y="475.0" type="line" smooth="yes"/>
      <point x="864.0" y="310.0"/>
      <point x="785.3333333333333" y="90.0"/>
      <point x="628.0" y="-20.0"/>
    </contour>
    <contour>
      <point x="509" y="0" type="move" name="bottom"/>
    </contour>
    <contour>
      <point x="510" y="1462" type="move" name="top"/>
    </contour>
  </outline>
</glyph>
<glyph name="uhorn" format="1">
  <advance width="950"/>
  <unicode hex="01B0"/>
  <note>
uhorn
</note>
  <outline>
    <contour>
      <point x="382.0" y="-20.0" type="qcurve" smooth="yes"/>
      <point x="259.0" y="-20.0"/>
      <point x="141.0" y="172.25"/>
      <point x="141" y="377" type="qcurve" smooth="yes"/>
      <point x="141" y="1085" type="line"/>
      <point x="236" y="1085" type="line"/>
      <point x="236.0" y="377.0" type="line" smooth="yes"/>
      <point x="236.0" y="209.75"/>
      <point x="315.0" y="68.0"/>
      <point x="402.0" y="68.0" type="qcurve" smooth="yes"/>
      <point x="496.0" y="68.0"/>
      <point x="594.8333333333333" y="187.24999999999994"/>
      <point x="631.0" y="379.5"/>
      <point x="631" y="489" type="qcurve" smooth="yes"/>
      <point x="631" y="1085" type="line"/>
      <point x="725" y="1085" type="line"/>
      <point x="725.0" y="948.0" type="line"/>
      <point x="809.5968489341983" y="963.1065801668211"/>
      <point x="845.0" y="1024.0" type="qcurve" smooth="yes"/>
      <point x="865.25" y="1059.25"/>
      <point x="883.5" y="1166.5"/>
      <point x="885" y="1243" type="qcurve"/>
      <point x="971" y="1243" type="line"/>
      <point x="987.0" y="1217.0" type="line"/>
      <point x="977.96" y="1064.8266666666666"/>
      <point x="926.0" y="984.0" type="qcurve" smooth="yes"/>
      <point x="863.4750860663164" y="886.5774596847255"/>
      <point x="725" y="864" type="qcurve"/>
      <point x="725" y="0" type="line"/>
      <point x="645" y="0" type="line"/>
      <point x="633" y="152" type="line"/>
      <point x="625.0" y="152.0" type="line"/>
      <point x="549.561403508772" y="-20.0"/>
    </contour>
    <contour>
      <point x="445" y="0" type="move" name="bottom"/>
    </contour>
    <contour>
      <point x="435" y="1085" type="move" name="top"/>
    </contour>
  </outline>
</glyph>
<glyph name="jdotless" format="1">
  <advance width="385"/>
  <unicode hex="0237"/>
  <note>
uni0237
</note>
  <outline>
    <contour>
      <point x="63.0" y="-492.0" type="qcurve" smooth="yes"/>
      <point x="42.0" y="-492.0"/>
      <point x="8.75" y="-483.25"/>
      <point x="-4" y="-475" type="qcurve"/>
      <point x="-4.0" y="-385.0" type="line"/>
      <point x="11.75" y="-393.25"/>
      <point x="43.25" y="-401.0"/>
      <point x="59.0" y="-401.0" type="qcurve" smooth="yes"/>
      <point x="106.70967741935485" y="-401.0"/>
      <point x="126.0" y="-355.0" type="qcurve" smooth="yes"/>
      <point x="145.0" y="-311.15384615384613"/>
      <point x="145" y="-215" type="qcurve" smooth="yes"/>
      <point x="145" y="1085" type="line"/>
      <point x="240" y="1085" type="line"/>
      <point x="240.0" y="-201.0" type="line" smooth="yes"/>
      <point x="240.0" y="-350.25"/>
      <point x="153.75" y="-492.0"/>
    </contour>
    <contour>
      <point x="193" y="0" type="move" name="bottom"/>
    </contour>
    <contour>
      <point x="193" y="1085" type="move" name="top"/>
    </contour>
  </outline>
</glyph>
<glyph name="apostrophemod" format="1">
  <advance width="315"/>
  <unicode hex="02BC"/>
  <note>
afii57929
</note>
  <outline>
    <contour>
      <point x="43" y="993" type="line"/>
      <point x="68.0" y="1078.0"/>
      <point x="106.74999999999999" y="1238.75"/>
      <point x="134.5" y="1390.5"/>
      <point x="143" y="1462" type="qcurve"/>
      <point x="258" y="1462" type="line"/>
      <point x="272.0" y="1440.0" type="line"/>
      <point x="239.75" y="1331.25"/>
      <point x="157.0" y="1107.75"/>
      <point x="106" y="993" type="qcurve"/>
    </contour>
  </outline>
</glyph>
<glyph name="hungarumlaut" format="1">
  <advance width="1161"/>
  <unicode hex="02DD"/>
  <note>
hungarumlaut
</note>
  <outline>
    <component base="hungarumlautcomb" xOffset="14"/>
    <contour>
      <point x="520" y="1124" type="move" name="_top"/>
    </contour>
  </outline>
</glyph>
<glyph name="lowringmod" format="1">
  <advance width="682"/>
  <unicode hex="02F3"/>
  <note>
uni02F3
</note>
  <outline>
    <contour>
      <point x="340.0" y="-506.0" type="qcurve" smooth="yes"/>
      <point x="247.0" y="-506.0"/>
      <point x="141.0" y="-405.25"/>
      <point x="141.0" y="-319.0" type="qcurve" smooth="yes"/>
      <point x="141.0" y="-234.25"/>
      <point x="247.75" y="-133.0"/>
      <point x="340.0" y="-133.0" type="qcurve" smooth="yes"/>
      <point x="427.0" y="-133.0"/>
      <point x="539.0" y="-231.75"/>
      <point x="539.0" y="-315.0" type="qcurve" smooth="yes"/>
      <point x="539.0" y="-404.25"/>
      <point x="430.75" y="-506.0"/>
    </contour>
    <contour>
      <point x="340.0" y="-436.0" type="qcurve" smooth="yes"/>
      <point x="394.0" y="-436.0"/>
      <point x="461.0" y="-372.25"/>
      <point x="461.0" y="-319.0" type="qcurve" smooth="yes"/>
      <point x="461.0" y="-268.0"/>
      <point x="399.25" y="-203.0"/>
      <point x="340.0" y="-203.0" type="qcurve" smooth="yes"/>
      <point x="286.0" y="-203.0"/>
      <point x="219.0" y="-268.0"/>
      <point x="219.0" y="-319.0" type="qcurve" smooth="yes"/>
      <point x="219.0" y="-372.25"/>
      <point x="280.0" y="-436.0"/>
    </contour>
    <contour>
      <point x="340" y="1" type="move" name="_bottom"/>
    </contour>
  </outline>
</glyph>
<glyph name="gravecomb" format="1">
  <unicode hex="0300"/>
  <note>
gravecomb
</note>
  <outline>
    <contour>
      <point x="110" y="1241" type="line"/>
      <point x="77.375" y="1267.625"/>
      <point x="-0.34895833333333337" y="1345.1666666666667"/>
      <point x="-76.90104166666667" y="1432.8333333333333"/>
      <point x="-140.0" y="1517.875"/>
      <point x="-158" y="1552" type="qcurve"/>
      <point x="-158" y="1569" type="line"/>
      <point x="-33.0" y="1569.0" type="line"/>
      <point x="-15.0" y="1527.0"/>
      <point x="47.91666666666667" y="1417.1666666666665"/>
      <point x="122.50000000000001" y="1306.0"/>
      <point x="158" y="1262" type="qcurve"/>
      <point x="158" y="1241" type="line"/>
    </contour>
    <contour>
      <point x="0" y="1085" type="move" name="_top"/>
    </contour>
    <contour>
      <point x="0" y="1569" type="move" name="top"/>
    </contour>
  </outline>
</glyph>
<glyph name="acutecomb" format="1">
  <unicode hex="0301"/>
  <note>
acutecomb
</note>
  <outline>
    <contour>
      <point x="-158" y="1241" type="line"/>
      <point x="-158.0" y="1262.0" type="line"/>
      <point x="-126.125" y="1303.625"/>
      <point x="-70.55208333333333" y="1383.5364583333333"/>
      <point x="-22.947916666666668" y="1460.2135416666667"/>
      <point x="16.875" y="1533.75"/>
      <point x="33" y="1569" type="qcurve"/>
      <point x="158" y="1569" type="line"/>
      <point x="158.0" y="1552.0" type="line"/>
      <point x="138.5" y="1517.125"/>
      <point x="76.78645833333333" y="1433.9895833333333"/>
      <point x="2.4635416666666665" y="1348.5104166666667"/>
      <point x="-75.375" y="1270.625"/>
      <point x="-111" y="1241" type="qcurve"/>
    </contour>
    <contour>
      <point x="-90" y="1123" type="move" name="_top"/>
    </contour>
    <contour>
      <point x="0" y="1569" type="move" name="top"/>
    </contour>
  </outline>
</glyph>
<glyph name="circumflexcomb" format="1">
  <advance width="471"/>
  <unicode hex="0302"/>
  <note>
circumflex
</note>
  <outline>
    <contour>
      <point x="0" y="1241" type="line"/>
      <point x="0.0" y="1260.0" type="line"/>
      <point x="40.5" y="1316.0"/>
      <point x="108.83333333333331" y="1422.0"/>
      <point x="164.5" y="1522.0"/>
      <point x="186" y="1569" type="qcurve"/>
      <point x="281.0" y="1569.0" type="line"/>
      <point x="297.0" y="1532.5"/>
      <point x="357.66666666666663" y="1425.75"/>
      <point x="433.0" y="1310.0"/>
      <point x="471" y="1260" type="qcurve"/>
      <point x="471" y="1241" type="line"/>
      <point x="424.0" y="1241.0" type="line"/>
      <point x="397.0" y="1268.0"/>
      <point x="360.75" y="1309.0"/>
      <point x="333.0" y="1342.0" type="qcurve" smooth="yes"/>
      <point x="327.75" y="1348.0"/>
      <point x="269.75" y="1415.0"/>
      <point x="236.0" y="1454.0" type="qcurve"/>
      <point x="185.75" y="1397.75"/>
      <point x="148.0" y="1354.25"/>
      <point x="136.0" y="1340.0" type="qcurve" smooth="yes"/>
      <point x="112.75" y="1313.0"/>
      <point x="61.75" y="1259.0"/>
      <point x="43" y="1241" type="qcurve"/>
    </contour>
    <contour>
      <point x="236" y="1085" type="move" name="_top"/>
    </contour>
    <contour>
      <point x="236" y="1569" type="move" name="top"/>
    </contour>
  </outline>
</glyph>
<glyph name="macroncomb" format="1">
  <advance width="452"/>
  <unicode hex="0304"/>
  <outline>
    <contour>
      <point x="0" y="1251" type="line"/>
      <point x="0" y="1333" type="line"/>
      <point x="452" y="1333" type="line"/>
      <point x="452" y="1251" type="line"/>
    </contour>
    <contour>
      <point x="226" y="1085" type="move" name="_top"/>
    </contour>
    <contour>
      <point x="226" y="1333" type="move" name="top"/>
    </contour>
  </outline>
</glyph>
<glyph name="brevecomb" format="1">
  <advance width="1157"/>
  <unicode hex="0306"/>
  <note>
breve
</note>
  <outline>
    <contour>
      <point x="571.0" y="1245.0" type="qcurve" smooth="yes"/>
      <point x="373.5" y="1245.0"/>
      <point x="360" y="1479" type="qcurve"/>
      <point x="428.0" y="1479.0" type="line"/>
      <point x="434.75" y="1404.75"/>
      <point x="512.0" y="1329.0"/>
      <point x="575.0" y="1329.0" type="qcurve" smooth="yes"/>
      <point x="703.5" y="1329.0"/>
      <point x="723" y="1479" type="qcurve"/>
      <point x="795.0" y="1479.0" type="line"/>
      <point x="792.0" y="1370.25"/>
      <point x="675.25" y="1245.0"/>
    </contour>
    <contour>
      <point x="578" y="1085" type="move" name="_top"/>
    </contour>
    <contour>
      <point x="578" y="1479" type="move" name="top"/>
    </contour>
  </outline>
</glyph>
<glyph name="dotaccentcomb" format="1">
  <advance width="385"/>
  <unicode hex="0307"/>
  <note>
dotaccent
</note>
  <outline>
    <contour>
      <point x="197.0" y="1292.0" type="qcurve" smooth="yes"/>
      <point x="167.75" y="1292.0"/>
      <point x="131.0" y="1343.25"/>
      <point x="131.0" y="1386.0" type="qcurve" smooth="yes"/>
      <point x="131.0" y="1431.0"/>
      <point x="167.75" y="1481.0"/>
      <point x="197.0" y="1481.0" type="qcurve" smooth="yes"/>
      <point x="256.0" y="1481.0"/>
      <point x="256.0" y="1386.0" type="qcurve" smooth="yes"/>
      <point x="256.0" y="1343.25"/>
      <point x="224.0" y="1292.0"/>
    </contour>
    <contour>
      <point x="194" y="1085" type="move" name="_top"/>
    </contour>
    <contour>
      <point x="194" y="1481" type="move" name="top"/>
    </contour>
  </outline>
</glyph>
<glyph name="hookabovecomb" format="1">
  <unicode hex="0309"/>
  <note>
hookabovecomb
</note>
  <outline>
    <contour>
      <point x="-666" y="1208" type="line"/>
      <point x="-672.0" y="1386.0" type="line"/>
      <point x="-606.0" y="1386.0"/>
      <point x="-516.0" y="1449.25"/>
      <point x="-516.0" y="1501.0" type="qcurve" smooth="yes"/>
      <point x="-516.0" y="1602.0"/>
      <point x="-653.0" y="1602.0" type="qcurve" smooth="yes"/>
      <point x="-692.0" y="1602.0"/>
      <point x="-737" y="1593" type="qcurve"/>
      <point x="-737.0" y="1663.0" type="line"/>
      <point x="-689.0" y="1675.0"/>
      <point x="-637.0" y="1675.0" type="qcurve" smooth="yes"/>
      <point x="-430.0" y="1675.0"/>
      <point x="-430.0" y="1505.0" type="qcurve" smooth="yes"/>
      <point x="-430.0" y="1366.5"/>
      <point x="-586" y="1329" type="qcurve"/>
      <point x="-596" y="1208" type="line"/>
    </contour>
    <contour>
      <point x="-584" y="1085" type="move" name="_top"/>
    </contour>
    <contour>
      <point x="-584" y="1675" type="move" name="top"/>
    </contour>
  </outline>
</glyph>
<glyph name="ringcomb" format="1">
  <advance width="1182"/>
  <unicode hex="030A"/>
  <note>
ring
</note>
  <outline>
    <contour>
      <point x="592.0" y="1251.0" type="qcurve" smooth="yes"/>
      <point x="499.0" y="1251.0"/>
      <point x="393.0" y="1351.75"/>
      <point x="393.0" y="1438.0" type="qcurve" smooth="yes"/>
      <point x="393.0" y="1522.75"/>
      <point x="499.75" y="1624.0"/>
      <point x="592.0" y="1624.0" type="qcurve" smooth="yes"/>
      <point x="679.0" y="1624.0"/>
      <point x="791.0" y="1525.25"/>
      <point x="791.0" y="1442.0" type="qcurve" smooth="yes"/>
      <point x="791.0" y="1352.75"/>
      <point x="682.75" y="1251.0"/>
    </contour>
    <contour>
      <point x="592.0" y="1321.0" type="qcurve" smooth="yes"/>
      <point x="646.0" y="1321.0"/>
      <point x="713.0" y="1384.75"/>
      <point x="713.0" y="1438.0" type="qcurve" smooth="yes"/>
      <point x="713.0" y="1489.0"/>
      <point x="651.25" y="1554.0"/>
      <point x="592.0" y="1554.0" type="qcurve" smooth="yes"/>
      <point x="538.0" y="1554.0"/>
      <point x="471.0" y="1489.0"/>
      <point x="471.0" y="1438.0" type="qcurve" smooth="yes"/>
      <point x="471.0" y="1384.75"/>
      <point x="532.0" y="1321.0"/>
    </contour>
    <contour>
      <point x="592" y="1085" type="move" name="_top"/>
    </contour>
    <contour>
      <point x="592" y="1624" type="move" name="top"/>
    </contour>
  </outline>
</glyph>
<glyph name="hungarumlautcomb" format="1">
  <advance width="1161"/>
  <unicode hex="030B"/>
  <note>
hungarumlaut
</note>
  <outline>
    <contour>
      <point x="569" y="1241" type="line"/>
      <point x="569.0" y="1262.0" type="line"/>
      <point x="599.0" y="1301.5"/>
      <point x="662.75" y="1411.3333333333333"/>
      <point x="719.5" y="1524.5"/>
      <point x="739" y="1569" type="qcurve"/>
      <point x="858" y="1569" type="line"/>
      <point x="858.0" y="1552.0" type="line"/>
      <point x="832.5" y="1503.5"/>
      <point x="749.5" y="1386.5"/>
      <point x="656.5" y="1277.5"/>
      <point x="616" y="1241" type="qcurve"/>
    </contour>
    <contour>
      <point x="303" y="1241" type="line"/>
      <point x="303.0" y="1262.0" type="line"/>
      <point x="333.0" y="1301.5"/>
      <point x="396.75" y="1411.3333333333333"/>
      <point x="453.5" y="1524.5"/>
      <point x="473" y="1569" type="qcurve"/>
      <point x="592" y="1569" type="line"/>
      <point x="592.0" y="1552.0" type="line"/>
      <point x="564.0" y="1502.0"/>
      <point x="483.0833333333333" y="1386.5"/>
      <point x="392.5" y="1279.0"/>
      <point x="350" y="1241" type="qcurve"/>
    </contour>
    <contour>
      <point x="581" y="1085" type="move" name="_top"/>
    </contour>
    <contour>
      <point x="581" y="1569" type="move" name="top"/>
    </contour>
  </outline>
</glyph>
<glyph name="caroncomb" format="1">
  <advance width="1157"/>
  <unicode hex="030C"/>
  <note>
caron
</note>
  <outline>
    <contour>
      <point x="528" y="1241" type="line"/>
      <point x="505.5" y="1287.5"/>
      <point x="480.0" y="1334.0" type="qcurve" smooth="yes"/>
      <point x="421.5" y="1439.0"/>
      <point x="342" y="1550" type="qcurve"/>
      <point x="342" y="1569" type="line"/>
      <point x="385.0" y="1569.0" type="line"/>
      <point x="418.5" y="1536.5"/>
      <point x="459.41666666666663" y="1494.1666666666665"/>
      <point x="518.0" y="1426.5"/>
      <point x="578.0" y="1356.0" type="qcurve"/>
      <point x="605.0" y="1388.5"/>
      <point x="677.0" y="1473.3333333333335"/>
      <point x="745.0" y="1549.5"/>
      <point x="766" y="1569" type="qcurve"/>
      <point x="813" y="1569" type="line"/>
      <point x="813.0" y="1550.0" type="line"/>
      <point x="775.5" y="1501.25"/>
      <point x="701.25" y="1386.75"/>
      <point x="672.0" y="1335.0" type="qcurve" smooth="yes"/>
      <point x="640.9069767441861" y="1281.6976744186047"/>
      <point x="623" y="1241" type="qcurve"/>
    </contour>
    <contour>
      <point x="578" y="1085" type="move" name="_top"/>
    </contour>
    <contour>
      <point x="578" y="1569" type="move" name="top"/>
    </contour>
  </outline>
</glyph>
<glyph name="dblgravecomb" format="1">
  <unicode hex="030F"/>
  <note>
uni030F
</note>
  <outline>
    <contour>
      <point x="231" y="1241" type="line"/>
      <point x="194.5" y="1272.5"/>
      <point x="102.41666666666666" y="1380.6666666666665"/>
      <point x="16.0" y="1501.5"/>
      <point x="-12" y="1552" type="qcurve"/>
      <point x="-12" y="1569" type="line"/>
      <point x="108.0" y="1569.0" type="line"/>
      <point x="146.25" y="1479.0"/>
      <point x="242.75" y="1306.25"/>
      <point x="278" y="1262" type="qcurve"/>
      <point x="278" y="1241" type="line"/>
    </contour>
    <contour>
      <point x="-37" y="1241" type="line"/>
      <point x="-75.0" y="1275.0"/>
      <point x="-167.5" y="1383.5833333333333"/>
      <point x="-252.00000000000003" y="1502.5"/>
      <point x="-278" y="1552" type="qcurve"/>
      <point x="-278" y="1569" type="line"/>
      <point x="-160.0" y="1569.0" type="line"/>
      <point x="-67.55433287482806" y="1364.7248968363135"/>
      <point x="11" y="1262" type="qcurve"/>
      <point x="11" y="1241" type="line"/>
    </contour>
    <contour>
      <point x="-1" y="1085" type="move" name="_top"/>
    </contour>
    <contour>
      <point x="-1" y="1569" type="move" name="top"/>
    </contour>
  </outline>
</glyph>
<glyph name="commaturnedabovecomb" format="1">
  <advance width="600"/>
  <unicode hex="0312"/>
  <outline>
    <contour>
      <point x="198" y="1241" type="line"/>
      <point x="198.0" y="1262.0" type="line"/>
      <point x="206.0" y="1304.5"/>
      <point x="255.66666666666663" y="1424.25"/>
      <point x="324.0" y="1537.0"/>
      <point x="360" y="1569" type="qcurve"/>
      <point x="403" y="1569" type="line"/>
      <point x="403.0" y="1548.0" type="line"/>
      <point x="387.0" y="1524.0"/>
      <point x="344.74999999999994" y="1414.5"/>
      <point x="309.5" y="1289.0"/>
      <point x="304" y="1241" type="qcurve"/>
    </contour>
    <contour>
      <point x="301" y="1085" type="move" name="_top"/>
    </contour>
    <contour>
      <point x="301" y="1569" type="move" name="top"/>
    </contour>
  </outline>
</glyph>
<glyph name="dotbelowcomb" format="1">
  <unicode hex="0323"/>
  <note>
dotbelowcomb
</note>
  <outline>
    <contour>
      <point x="-592.0" y="-319.0" type="qcurve" smooth="yes"/>
      <point x="-621.25" y="-319.0"/>
      <point x="-657.0" y="-269.25"/>
      <point x="-657.0" y="-225.0" type="qcurve" smooth="yes"/>
      <point x="-657.0" y="-131.0"/>
      <point x="-592.0" y="-131.0" type="qcurve" smooth="yes"/>
      <point x="-532.0" y="-131.0"/>
      <point x="-532.0" y="-225.0" type="qcurve" smooth="yes"/>
      <point x="-532.0" y="-319.0"/>
    </contour>
    <contour>
      <point x="-595" y="0" type="move" name="_bottom"/>
    </contour>
    <contour>
      <point x="-595" y="-319" type="move" name="bottom"/>
    </contour>
  </outline>
</glyph>
<glyph name="commaaccentcomb" format="1">
  <advance width="387"/>
  <unicode hex="0326"/>
  <outline>
    <contour>
      <point x="100" y="-453" type="line"/>
      <point x="100.0" y="-432.0" type="line"/>
      <point x="114.5" y="-392.0"/>
      <point x="146.75" y="-282.25"/>
      <point x="172.0" y="-169.5"/>
      <point x="176" y="-125" type="qcurve"/>
      <point x="287" y="-125" type="line"/>
      <point x="287.0" y="-145.0" type="line"/>
      <point x="266.0" y="-223.0"/>
      <point x="182.25" y="-396.75"/>
      <point x="141" y="-453" type="qcurve"/>
    </contour>
    <contour>
      <point x="194" y="0" type="move" name="_bottom"/>
    </contour>
    <contour>
      <point x="194" y="-453" type="move" name="bottom"/>
    </contour>
  </outline>
</glyph>
<glyph name="cedillacomb" format="1">
  <advance width="465"/>
  <unicode hex="0327"/>
  <note>
cedilla
</note>
  <outline>
    <contour>
      <point x="145.0" y="-492.0" type="qcurve" smooth="yes"/>
      <point x="84.14285714285714" y="-492.0"/>
      <point x="59" y="-481" type="qcurve"/>
      <point x="59.0" y="-403.0" type="line"/>
      <point x="92.0" y="-414.0"/>
      <point x="137.0" y="-414.0" type="qcurve" smooth="yes"/>
      <point x="215.0" y="-414.0"/>
      <point x="289.0" y="-347.0"/>
      <point x="289.0" y="-293.0" type="qcurve" smooth="yes"/>
      <point x="289.0" y="-233.0"/>
      <point x="201.0" y="-172.0"/>
      <point x="123" y="-160" type="qcurve"/>
      <point x="195" y="0" type="line"/>
      <point x="270" y="0" type="line"/>
      <point x="219.0" y="-115.0" type="line"/>
      <point x="379.0" y="-153.8785046728972"/>
      <point x="379.0" y="-291.0" type="qcurve" smooth="yes"/>
      <point x="379.0" y="-390.75"/>
      <point x="253.75" y="-492.0"/>
    </contour>
    <contour>
      <point x="219" y="0" type="move" name="_bottom"/>
    </contour>
    <contour>
      <point x="219" y="-492" type="move" name="bottom"/>
    </contour>
  </outline>
</glyph>
<glyph name="ogonekcomb" format="1">
  <advance width="383"/>
  <unicode hex="0328"/>
  <note>
ogonek
</note>
  <outline>
    <contour>
      <point x="238.0" y="-446.0" type="qcurve" smooth="yes"/>
      <point x="154.0" y="-446.0"/>
      <point x="70.0" y="-357.75"/>
      <point x="70.0" y="-270.0" type="qcurve" smooth="yes"/>
      <point x="70.0" y="-195.75"/>
      <point x="156.25" y="-45.75"/>
      <point x="217" y="0" type="qcurve"/>
      <point x="291.0" y="0.0" type="line"/>
      <point x="219.75" y="-71.25"/>
      <point x="160.0" y="-194.75"/>
      <point x="160.0" y="-260.0" type="qcurve" smooth="yes"/>
      <point x="160.0" y="-314.75"/>
      <point x="208.0" y="-369.0"/>
      <point x="256.0" y="-369.0" type="qcurve" smooth="yes"/>
      <point x="295.0" y="-369.0"/>
      <point x="313" y="-360" type="qcurve"/>
      <point x="313.0" y="-434.0" type="line"/>
      <point x="283.0" y="-446.0"/>
    </contour>
    <contour>
      <point x="377" y="10" type="move" name="_ogonek"/>
    </contour>
  </outline>
</glyph>
<glyph name="tonos" format="1">
  <advance width="1182"/>
  <unicode hex="0384"/>
  <note>
tonos
</note>
  <outline>
    <contour>
      <point x="537" y="1241" type="line"/>
      <point x="537.0" y="1262.0" type="line"/>
      <point x="553.0" y="1306.0"/>
      <point x="592.9166666666667" y="1442.25"/>
      <point x="626.5" y="1573.5"/>
      <point x="633" y="1610" type="qcurve"/>
      <point x="743" y="1610" type="line"/>
      <point x="743.0" y="1589.0" type="line"/>
      <point x="719.75" y="1520.75"/>
      <point x="634.0" y="1322.0"/>
      <point x="592" y="1241" type="qcurve"/>
    </contour>
    <contour>
      <point x="590" y="1085" type="move" name="_top"/>
    </contour>
    <contour>
      <point x="842.389" y="1556" type="move" name="_topleft"/>
    </contour>
  </outline>
</glyph>
<glyph name="anoteleia" format="1">
  <advance width="422"/>
  <unicode hex="0387"/>
  <note>
anoteleia
</note>
  <outline>
    <contour>
      <point x="211.0" y="615.0" type="qcurve" smooth="yes"/>
      <point x="172.0" y="615.0"/>
      <point x="133.0" y="667.75"/>
      <point x="133.0" y="721.0" type="qcurve" smooth="yes"/>
      <point x="133.0" y="774.25"/>
      <point x="172.0" y="828.0"/>
      <point x="211.0" y="828.0" type="qcurve" smooth="yes"/>
      <point x="243.25" y="828.0"/>
      <point x="289.0" y="780.25"/>
      <point x="289.0" y="721.0" type="qcurve" smooth="yes"/>
      <point x="289.0" y="664.0"/>
      <point x="243.25" y="615.0"/>
    </contour>
  </outline>
</glyph>
<glyph name="Eta" format="1">
  <advance width="1026"/>
  <unicode hex="0397"/>
  <note>
Eta
</note>
  <outline>
    <component base="H"/>
    <contour>
      <point x="176" y="1461" type="move" name="topleft"/>
    </contour>
  </outline>
</glyph>
<glyph name="Theta" format="1">
  <advance width="1065"/>
  <unicode hex="0398"/>
  <note>
Theta
</note>
  <outline>
    <contour>
      <point x="532.0" y="-20.0" type="qcurve" smooth="yes"/>
      <point x="394.0" y="-20.0"/>
      <point x="206.49999999999997" y="156.24999999999997"/>
      <point x="111.0" y="493.5"/>
      <point x="111.0" y="735.0" type="qcurve" smooth="yes"/>
      <point x="111.0" y="987.0"/>
      <point x="205.08333333333334" y="1319.0"/>
      <point x="393.5" y="1483.0"/>
      <point x="535.0" y="1483.0" type="qcurve" smooth="yes"/>
      <point x="671.0" y="1483.0"/>
      <point x="857.8333333333333" y="1308.4166666666665"/>
      <point x="954.0" y="973.5"/>
      <point x="954.0" y="733.0" type="qcurve" smooth="yes"/>
      <point x="954.0" y="490.99999999999994"/>
      <point x="856.7499999999999" y="154.83333333333331"/>
      <point x="668.5" y="-20.0"/>
    </contour>
    <contour>
      <point x="532.0" y="74.0" type="qcurve" smooth="yes"/>
      <point x="688.75" y="74.0"/>
      <point x="852.0" y="403.75"/>
      <point x="852.0" y="733.0" type="qcurve" smooth="yes"/>
      <point x="852.0" y="1057.75"/>
      <point x="691.75" y="1389.0"/>
      <point x="535.0" y="1389.0" type="qcurve" smooth="yes"/>
      <point x="373.75" y="1389.0"/>
      <point x="213.0" y="1054.0"/>
      <point x="213.0" y="733.0" type="qcurve" smooth="yes"/>
      <point x="213.0" y="406.75"/>
      <point x="376.0" y="74.0"/>
    </contour>
    <contour>
      <point x="340" y="698" type="line"/>
      <point x="340" y="793" type="line"/>
      <point x="725" y="793" type="line"/>
      <point x="725" y="698" type="line"/>
    </contour>
  </outline>
</glyph>
<glyph name="Iota" format="1">
  <advance width="418"/>
  <unicode hex="0399"/>
  <note>
    Iota
  </note>
  <outline>
    <component base="I"/>
    <contour>
      <point x="170" y="1461" type="move" name="topleft"/>
    </contour>
  </outline>
</glyph>
<glyph name="Lambda" format="1">
  <advance width="813"/>
  <unicode hex="039B"/>
  <note>
Lambda
</note>
  <outline>
    <contour>
      <point x="0" y="0" type="line"/>
      <point x="352" y="1462" type="line"/>
      <point x="453" y="1462" type="line"/>
      <point x="813" y="0" type="line"/>
      <point x="713" y="0" type="line"/>
      <point x="432.0" y="1174.0" type="line" smooth="yes"/>
      <point x="427.125" y="1196.875"/>
      <point x="418.1979166666667" y="1241.5"/>
      <point x="410.3020833333333" y="1285.0"/>
      <point x="403.625" y="1327.375"/>
      <point x="401.0" y="1348.0" type="qcurve"/>
      <point x="398.5" y="1320.0"/>
      <point x="390.33333333333337" y="1262.6666666666665"/>
      <point x="379.5" y="1204.0"/>
      <point x="373" y="1174" type="qcurve" smooth="yes"/>
      <point x="102" y="0" type="line"/>
    </contour>
  </outline>
</glyph>
<glyph name="Omicron" format="1">
  <advance width="1065"/>
  <unicode hex="039F"/>
  <note>
Omicron
</note>
  <outline>
    <component base="O"/>
    <contour>
      <point x="210" y="1461" type="move" name="topleft"/>
    </contour>
  </outline>
</glyph>
<glyph name="Phi" format="1">
  <advance width="1204"/>
  <unicode hex="03A6"/>
  <note>
Phi
</note>
  <outline>
    <contour>
      <point x="553" y="-20" type="line"/>
      <point x="553" y="205" type="line"/>
      <point x="551.0" y="205.0" type="line" smooth="yes"/>
      <point x="413.0" y="205.75"/>
      <point x="213.25" y="345.75"/>
      <point x="160.0" y="474.0" type="qcurve" smooth="yes"/>
      <point x="106.0" y="601.5"/>
      <point x="106.0" y="766.0" type="qcurve" smooth="yes"/>
      <point x="106.0" y="919.0"/>
      <point x="215.0" y="1165.0"/>
      <point x="317.0" y="1234.0" type="qcurve" smooth="yes"/>
      <point x="417.5" y="1303.0"/>
      <point x="552" y="1303" type="qcurve" smooth="yes"/>
      <point x="553" y="1303" type="line"/>
      <point x="553" y="1483" type="line"/>
      <point x="651" y="1483" type="line"/>
      <point x="651" y="1304" type="line"/>
      <point x="652.0" y="1304.0" type="line" smooth="yes"/>
      <point x="820.4444444444445" y="1304.0"/>
      <point x="934.0" y="1206.0" type="qcurve" smooth="yes"/>
      <point x="1098.0" y="1065.2075471698113"/>
      <point x="1098.0" y="766.0" type="qcurve" smooth="yes"/>
      <point x="1098.0" y="450.89814814814815"/>
      <point x="931.0" y="304.0" type="qcurve" smooth="yes"/>
      <point x="819.625" y="205.0"/>
      <point x="652" y="205" type="qcurve" smooth="yes"/>
      <point x="651" y="205" type="line"/>
      <point x="651" y="-20" type="line"/>
    </contour>
    <contour>
      <point x="551" y="296" type="qcurve" smooth="yes"/>
      <point x="553" y="296" type="line"/>
      <point x="554" y="1212" type="line"/>
      <point x="553.0" y="1212.0" type="line" smooth="yes"/>
      <point x="386.5" y="1212.0"/>
      <point x="209.0" y="978.25"/>
      <point x="209.0" y="766.0" type="qcurve" smooth="yes"/>
      <point x="209.0" y="540.25"/>
      <point x="383.0" y="296.75"/>
    </contour>
    <contour>
      <point x="651" y="295" type="line"/>
      <point x="652.0" y="295.0" type="line" smooth="yes"/>
      <point x="819.25" y="295.0"/>
      <point x="995.0" y="540.25"/>
      <point x="995.0" y="766.0" type="qcurve" smooth="yes"/>
      <point x="995.0" y="1211.5021834061135"/>
      <point x="652" y="1213" type="qcurve" smooth="yes"/>
      <point x="651" y="1213" type="line"/>
    </contour>
  </outline>
</glyph>
<glyph name="Psi" format="1">
  <advance width="1180"/>
  <unicode hex="03A8"/>
  <note>
Psi
</note>
  <outline>
    <contour>
      <point x="541" y="0" type="line"/>
      <point x="541" y="451" type="line"/>
      <point x="539.0" y="451.0" type="line" smooth="yes"/>
      <point x="329.0" y="451.75"/>
      <point x="143.0" y="716.0"/>
      <point x="143" y="1004" type="qcurve" smooth="yes"/>
      <point x="143" y="1462" type="line"/>
      <point x="242" y="1462" type="line"/>
      <point x="242.0" y="1006.0" type="line" smooth="yes"/>
      <point x="242.0" y="838.75"/>
      <point x="301.75" y="638.5"/>
      <point x="364.0" y="592.0" type="qcurve" smooth="yes"/>
      <point x="394.75" y="568.75"/>
      <point x="480.5" y="545.0"/>
      <point x="539" y="545" type="qcurve" smooth="yes"/>
      <point x="541" y="545" type="line"/>
      <point x="541" y="1462" type="line"/>
      <point x="639" y="1462" type="line"/>
      <point x="639" y="545" type="line"/>
      <point x="641.0" y="545.0" type="line" smooth="yes"/>
      <point x="754.25" y="545.0"/>
      <point x="878.0" y="636.25"/>
      <point x="908.0" y="736.0" type="qcurve" smooth="yes"/>
      <point x="923.0" y="786.25"/>
      <point x="938.0" y="921.25"/>
      <point x="938" y="1006" type="qcurve" smooth="yes"/>
      <point x="938" y="1462" type="line"/>
      <point x="1036" y="1462" type="line"/>
      <point x="1036.0" y="1004.0" type="line" smooth="yes"/>
      <point x="1036.0" y="716.0"/>
      <point x="851.0" y="451.0"/>
      <point x="641" y="451" type="qcurve" smooth="yes"/>
      <point x="639" y="451" type="line"/>
      <point x="639" y="0" type="line"/>
    </contour>
  </outline>
</glyph>
<glyph name="Omega" format="1">
  <advance width="1081"/>
  <unicode hex="03A9"/>
  <note>
uni03A9
</note>
  <outline>
    <contour>
      <point x="66" y="0" type="line"/>
      <point x="66" y="94" type="line"/>
      <point x="322.0" y="94.0" type="line"/>
      <point x="280.75" y="142.75"/>
      <point x="212.25" y="273.5"/>
      <point x="186.0" y="353.0" type="qcurve" smooth="yes"/>
      <point x="154.5" y="452.0"/>
      <point x="119.0" y="684.25"/>
      <point x="119.0" y="811.0" type="qcurve" smooth="yes"/>
      <point x="119.0" y="997.75"/>
      <point x="189.0" y="1271.0"/>
      <point x="258.0" y="1355.0" type="qcurve" smooth="yes"/>
      <point x="309.75" y="1418.0"/>
      <point x="451.75" y="1483.0"/>
      <point x="541.0" y="1483.0" type="qcurve" smooth="yes"/>
      <point x="621.25" y="1483.0"/>
      <point x="754.0" y="1423.25"/>
      <point x="805.0" y="1367.0" type="qcurve" smooth="yes"/>
      <point x="881.5" y="1281.5"/>
      <point x="963.0" y="999.25"/>
      <point x="963.0" y="811.0" type="qcurve" smooth="yes"/>
      <point x="963.0" y="685.75"/>
      <point x="933.0" y="465.5"/>
      <point x="903.0" y="371.0" type="qcurve" smooth="yes"/>
      <point x="851.598694123556" y="209.23706680060272"/>
      <point x="760" y="94" type="qcurve"/>
      <point x="1016" y="94" type="line"/>
      <point x="1016" y="0" type="line"/>
      <point x="623" y="0" type="line"/>
      <point x="623.0" y="51.0" type="line"/>
      <point x="692.375" y="142.125"/>
      <point x="784.203125" y="302.9270833333333"/>
      <point x="837.546875" y="472.0729166666667"/>
      <point x="860.0" y="676.375"/>
      <point x="860.0" y="811.0" type="qcurve" smooth="yes"/>
      <point x="860.0" y="996.5"/>
      <point x="784.2499999999999" y="1254.5833333333333"/>
      <point x="641.5" y="1389.0"/>
      <point x="541.0" y="1389.0" type="qcurve" smooth="yes"/>
      <point x="437.0" y="1389.0"/>
      <point x="294.3333333333333" y="1253.3333333333333"/>
      <point x="221.0" y="995.0"/>
      <point x="221.0" y="811.0" type="qcurve" smooth="yes"/>
      <point x="221.0" y="638.5"/>
      <point x="267.0833333333333" y="372.66666666666663"/>
      <point x="371.5" y="153.5"/>
      <point x="459" y="51" type="qcurve"/>
      <point x="459" y="0" type="line"/>
    </contour>
    <contour>
      <point x="541" y="0" type="move" name="bottom"/>
    </contour>
    <contour>
      <point x="210" y="1461" type="move" name="topleft"/>
    </contour>
  </outline>
</glyph>
<glyph name="alpha" format="1">
  <advance width="907"/>
  <unicode hex="03B1"/>
  <note>
alpha
</note>
  <outline>
    <contour>
      <point x="408.0" y="-20.0" type="qcurve" smooth="yes"/>
      <point x="257.25" y="-20.0"/>
      <point x="96.0" y="256.75"/>
      <point x="96.0" y="541.0" type="qcurve" smooth="yes"/>
      <point x="96.0" y="828.25"/>
      <point x="264.25" y="1106.0"/>
      <point x="412.0" y="1106.0" type="qcurve" smooth="yes"/>
      <point x="577.0" y="1106.0"/>
      <point x="664" y="926" type="qcurve"/>
      <point x="672.0" y="926.0" type="line"/>
      <point x="675.0" y="962.0"/>
      <point x="701.75" y="1054.25"/>
      <point x="719" y="1085" type="qcurve"/>
      <point x="784.0" y="1085.0" type="line"/>
      <point x="750.0" y="984.4782608695652"/>
      <point x="750" y="737" type="qcurve" smooth="yes"/>
      <point x="750.0" y="213.0" type="line" smooth="yes"/>
      <point x="750.0" y="57.0"/>
      <point x="827.0" y="57.0" type="qcurve" smooth="yes"/>
      <point x="863.5555555555555" y="57.0"/>
      <point x="891" y="70" type="qcurve"/>
      <point x="891.0" y="-4.0" type="line"/>
      <point x="866.2727272727273" y="-20.0"/>
      <point x="823.0" y="-20.0" type="qcurve" smooth="yes"/>
      <point x="751.0" y="-20.0"/>
      <point x="673.0" y="60.75"/>
      <point x="664" y="156" type="qcurve"/>
      <point x="655.0" y="156.0" type="line"/>
      <point x="616.0" y="71.25"/>
      <point x="486.0" y="-20.0"/>
    </contour>
    <contour>
      <point x="422.0" y="66.0" type="qcurve" smooth="yes"/>
      <point x="514.2692307692307" y="66.0"/>
      <point x="572.0" y="145.0" type="qcurve" smooth="yes"/>
      <point x="655.0" y="258.1818181818182"/>
      <point x="655" y="514" type="qcurve" smooth="yes"/>
      <point x="655.0" y="541.0" type="line" smooth="yes"/>
      <point x="655.0" y="834.7586206896551"/>
      <point x="569.0" y="943.0" type="qcurve" smooth="yes"/>
      <point x="513.52" y="1016.0"/>
      <point x="414.0" y="1016.0" type="qcurve" smooth="yes"/>
      <point x="323.68" y="1016.0"/>
      <point x="272.0" y="940.0" type="qcurve" smooth="yes"/>
      <point x="231.5" y="882.25"/>
      <point x="195.0" y="680.0"/>
      <point x="195.0" y="539.0" type="qcurve" smooth="yes"/>
      <point x="195.0" y="289.48648648648646"/>
      <point x="250.0" y="178.0" type="qcurve" smooth="yes"/>
      <point x="303.76" y="66.0"/>
    </contour>
    <contour>
      <point x="454" y="1085" type="move" name="top"/>
    </contour>
  </outline>
</glyph>
<glyph name="beta" format="1">
  <advance width="889"/>
  <unicode hex="03B2"/>
  <note>
beta
</note>
  <outline>
    <contour>
      <point x="145" y="-492" type="line"/>
      <point x="145.0" y="1169.0" type="line" smooth="yes"/>
      <point x="145.0" y="1360.25"/>
      <point x="307.75" y="1567.0"/>
      <point x="451.0" y="1567.0" type="qcurve" smooth="yes"/>
      <point x="586.0" y="1567.0"/>
      <point x="739.0" y="1368.75"/>
      <point x="739.0" y="1194.0" type="qcurve" smooth="yes"/>
      <point x="739.0" y="1020.0"/>
      <point x="640.0" y="845.0"/>
      <point x="526" y="827" type="qcurve"/>
      <point x="526.0" y="819.0" type="line"/>
      <point x="666.25" y="801.0"/>
      <point x="795.0" y="595.75"/>
      <point x="795.0" y="397.0" type="qcurve" smooth="yes"/>
      <point x="795.0" y="261.5"/>
      <point x="716.3333333333334" y="75.58333333333333"/>
      <point x="567.0" y="-20.0"/>
      <point x="461.0" y="-20.0" type="qcurve" smooth="yes"/>
      <point x="398.0" y="-20.0"/>
      <point x="302.25" y="6.75"/>
      <point x="240" y="51" type="qcurve"/>
      <point x="240" y="-492" type="line"/>
    </contour>
    <contour>
      <point x="457.0" y="70.0" type="qcurve" smooth="yes"/>
      <point x="582.25" y="70.0"/>
      <point x="696.0" y="239.0"/>
      <point x="696.0" y="410.0" type="qcurve" smooth="yes"/>
      <point x="696.0" y="596.75"/>
      <point x="565.25" y="776.0"/>
      <point x="428" y="776" type="qcurve" smooth="yes"/>
      <point x="385" y="776" type="line"/>
      <point x="385" y="866" type="line"/>
      <point x="422.0" y="866.0" type="line" smooth="yes"/>
      <point x="541.25" y="866.0"/>
      <point x="645.0" y="1018.0"/>
      <point x="645.0" y="1186.0" type="qcurve" smooth="yes"/>
      <point x="645.0" y="1330.75"/>
      <point x="541.25" y="1477.0"/>
      <point x="449.0" y="1477.0" type="qcurve" smooth="yes"/>
      <point x="350.75" y="1477.0"/>
      <point x="240.0" y="1318.75"/>
      <point x="240" y="1174" type="qcurve" smooth="yes"/>
      <point x="240.0" y="147.0" type="line"/>
      <point x="285.75" y="108.75"/>
      <point x="403.0" y="70.0"/>
    </contour>
  </outline>
</glyph>
<glyph name="gamma" format="1">
  <advance width="645"/>
  <unicode hex="03B3"/>
  <note>
gamma
</note>
  <outline>
    <contour>
      <point x="225" y="-492" type="line"/>
      <point x="225.0" y="-430.0"/>
      <point x="241.33333333333331" y="-263.41666666666663"/>
      <point x="267.0" y="-94.5"/>
      <point x="281" y="-29" type="qcurve"/>
      <point x="10" y="1085" type="line"/>
      <point x="106" y="1085" type="line"/>
      <point x="236.0" y="545.0" type="line" smooth="yes"/>
      <point x="261.5" y="433.0"/>
      <point x="295.4166666666667" y="291.16666666666663"/>
      <point x="317.0" y="182.0"/>
      <point x="324" y="119" type="qcurve"/>
      <point x="332.0" y="119.0" type="line"/>
      <point x="346.25" y="218.75"/>
      <point x="387.75" y="433.5"/>
      <point x="414" y="549" type="qcurve" smooth="yes"/>
      <point x="539" y="1085" type="line"/>
      <point x="635" y="1085" type="line"/>
      <point x="397.0" y="82.0" type="line" smooth="yes"/>
      <point x="373.5" y="-20.0"/>
      <point x="338.41666666666663" y="-232.08333333333331"/>
      <point x="319.0" y="-422.5"/>
      <point x="319" y="-492" type="qcurve"/>
    </contour>
  </outline>
</glyph>
<glyph name="delta" format="1">
  <advance width="866"/>
  <unicode hex="03B4"/>
  <note>
delta
</note>
  <outline>
    <contour>
      <point x="430.0" y="-20.0" type="qcurve" smooth="yes"/>
      <point x="276.25" y="-20.0"/>
      <point x="96.0" y="229.0"/>
      <point x="96.0" y="442.0" type="qcurve" smooth="yes"/>
      <point x="96.0" y="557.5"/>
      <point x="178.58333333333331" y="758.8333333333333"/>
      <point x="325.5" y="907.5"/>
      <point x="422.0" y="944.0" type="qcurve"/>
      <point x="338.5" y="1030.5"/>
      <point x="246.91666666666669" y="1154.5833333333335"/>
      <point x="211.0" y="1257.0"/>
      <point x="211.0" y="1311.0" type="qcurve" smooth="yes"/>
      <point x="211.0" y="1421.25"/>
      <point x="366.75" y="1554.0"/>
      <point x="492.0" y="1554.0" type="qcurve" smooth="yes"/>
      <point x="570.0" y="1554.0"/>
      <point x="694.25" y="1514.25"/>
      <point x="731" y="1491" type="qcurve"/>
      <point x="690.0" y="1407.0" type="line"/>
      <point x="595.5" y="1464.0"/>
      <point x="487.0" y="1464.0" type="qcurve" smooth="yes"/>
      <point x="405.25" y="1464.0"/>
      <point x="307.0" y="1378.0"/>
      <point x="307.0" y="1309.0" type="qcurve" smooth="yes"/>
      <point x="307.0" y="1223.5"/>
      <point x="385.0" y="1123.0" type="qcurve" smooth="yes"/>
      <point x="425.85714285714283" y="1071.142857142857"/>
      <point x="530.0" y="967.0" type="qcurve" smooth="yes"/>
      <point x="663.3255813953489" y="833.6744186046511"/>
      <point x="719.0" y="715.0" type="qcurve" smooth="yes"/>
      <point x="747.5" y="652.75"/>
      <point x="772.0" y="523.75"/>
      <point x="772.0" y="451.0" type="qcurve" smooth="yes"/>
      <point x="772.0" y="228.25"/>
      <point x="588.25" y="-20.0"/>
    </contour>
    <contour>
      <point x="430.0" y="66.0" type="qcurve" smooth="yes"/>
      <point x="547.75" y="66.0"/>
      <point x="674.0" y="267.0"/>
      <point x="674.0" y="453.0" type="qcurve" smooth="yes"/>
      <point x="674.0" y="567.75"/>
      <point x="582.0" y="777.0"/>
      <point x="477.0" y="885.0" type="qcurve"/>
      <point x="357.9297355062784" y="838.8602725086829"/>
      <point x="285.0" y="738.0" type="qcurve" smooth="yes"/>
      <point x="195.0" y="612.3103448275862"/>
      <point x="195.0" y="438.0" type="qcurve" smooth="yes"/>
      <point x="195.0" y="330.5"/>
      <point x="254.58333333333337" y="162.41666666666666"/>
      <point x="360.5" y="66.0"/>
    </contour>
  </outline>
</glyph>
<glyph name="epsilon" format="1">
  <advance width="643"/>
  <unicode hex="03B5"/>
  <note>
epsilon
</note>
  <outline>
    <contour>
      <point x="356.0" y="-20.0" type="qcurve" smooth="yes"/>
      <point x="233.75" y="-20.0"/>
      <point x="86.0" y="148.75"/>
      <point x="86.0" y="295.0" type="qcurve" smooth="yes"/>
      <point x="86.0" y="403.0"/>
      <point x="184.0" y="547.25"/>
      <point x="274" y="575" type="qcurve"/>
      <point x="274.0" y="584.0" type="line"/>
      <point x="199.75" y="614.75"/>
      <point x="125.0" y="742.0"/>
      <point x="125.0" y="838.0" type="qcurve" smooth="yes"/>
      <point x="125.0" y="958.0"/>
      <point x="273.25" y="1106.0"/>
      <point x="391.0" y="1106.0" type="qcurve" smooth="yes"/>
      <point x="443.5" y="1106.0"/>
      <point x="542.75" y="1074.75"/>
      <point x="590" y="1044" type="qcurve"/>
      <point x="543.0" y="965.0" type="line"/>
      <point x="506.25" y="990.5"/>
      <point x="428.75" y="1016.0"/>
      <point x="389.0" y="1016.0" type="qcurve" smooth="yes"/>
      <point x="305.75" y="1016.0"/>
      <point x="219.0" y="917.25"/>
      <point x="219.0" y="834.0" type="qcurve" smooth="yes"/>
      <point x="219.0" y="714.7142857142857"/>
      <point x="284.0" y="659.0" type="qcurve" smooth="yes"/>
      <point x="307.25" y="638.75"/>
      <point x="368.5" y="618.0"/>
      <point x="406" y="618" type="qcurve" smooth="yes"/>
      <point x="449" y="618" type="line"/>
      <point x="449" y="532" type="line"/>
      <point x="393.0" y="532.0" type="line" smooth="yes"/>
      <point x="321.5" y="532.0"/>
      <point x="275.0" y="502.0" type="qcurve" smooth="yes"/>
      <point x="230.0" y="473.5"/>
      <point x="184.0" y="365.5"/>
      <point x="184.0" y="289.0" type="qcurve" smooth="yes"/>
      <point x="184.0" y="190.75"/>
      <point x="282.0" y="70.0"/>
      <point x="369.0" y="70.0" type="qcurve" smooth="yes"/>
      <point x="403.0" y="70.0"/>
      <point x="478.24999999999994" y="84.58333333333331"/>
      <point x="550.5" y="113.5"/>
      <point x="580" y="135" type="qcurve"/>
      <point x="580.0" y="41.0" type="line"/>
      <point x="537.25" y="11.0"/>
      <point x="431.75" y="-20.0"/>
    </contour>
    <contour>
      <point x="382" y="1085" type="move" name="top"/>
    </contour>
  </outline>
</glyph>
<glyph name="theta" format="1">
  <advance width="891"/>
  <unicode hex="03B8"/>
  <note>
theta
</note>
  <outline>
    <contour>
      <point x="442.0" y="-20.0" type="qcurve" smooth="yes"/>
      <point x="268.75" y="-20.0"/>
      <point x="96.0" y="380.25"/>
      <point x="96.0" y="780.0" type="qcurve" smooth="yes"/>
      <point x="96.0" y="926.625"/>
      <point x="127.99479166666667" y="1210.7552083333333"/>
      <point x="206.25520833333334" y="1441.4947916666667"/>
      <point x="343.625" y="1579.0"/>
      <point x="449.0" y="1579.0" type="qcurve" smooth="yes"/>
      <point x="623.0" y="1579.0"/>
      <point x="797.0" y="1180.25"/>
      <point x="797.0" y="782.0" type="qcurve" smooth="yes"/>
      <point x="797.0" y="380.75"/>
      <point x="619.75" y="-20.0"/>
    </contour>
    <contour>
      <point x="444.0" y="70.0" type="qcurve" smooth="yes"/>
      <point x="534.1904761904761" y="70.0"/>
      <point x="593.0" y="165.0" type="qcurve" smooth="yes"/>
      <point x="642.5" y="245.25"/>
      <point x="695.0" y="543.25"/>
      <point x="698" y="760" type="qcurve"/>
      <point x="195.0" y="760.0" type="line"/>
      <point x="201.0082007544694" y="379.9813022798097"/>
      <point x="276.0" y="209.0" type="qcurve" smooth="yes"/>
      <point x="306.0" y="139.25"/>
      <point x="390.75" y="70.0"/>
    </contour>
    <contour>
      <point x="195" y="846" type="qcurve"/>
      <point x="698.0" y="846.0" type="line"/>
      <point x="690.5" y="1162.5"/>
      <point x="629.0" y="1326.0" type="qcurve" smooth="yes"/>
      <point x="598.25" y="1407.75"/>
      <point x="505.5" y="1489.0"/>
      <point x="444.0" y="1489.0" type="qcurve" smooth="yes"/>
      <point x="324.0" y="1489.0"/>
      <point x="264.0" y="1327.0" type="qcurve" smooth="yes"/>
      <point x="233.25" y="1245.25"/>
      <point x="198.75" y="1005.0"/>
    </contour>
  </outline>
</glyph>
<glyph name="iota" format="1">
  <advance width="446"/>
  <unicode hex="03B9"/>
  <note>
iota
</note>
  <outline>
    <contour>
      <point x="303.0" y="-20.0" type="qcurve" smooth="yes"/>
      <point x="219.75" y="-20.0"/>
      <point x="145.0" y="95.0"/>
      <point x="145" y="221" type="qcurve" smooth="yes"/>
      <point x="145" y="1085" type="line"/>
      <point x="240" y="1085" type="line"/>
      <point x="240.0" y="221.0" type="line" smooth="yes"/>
      <point x="240.0" y="137.0"/>
      <point x="277.0" y="70.0"/>
      <point x="322.0" y="70.0" type="qcurve" smooth="yes"/>
      <point x="345.25" y="70.0"/>
      <point x="408.0" y="83.0"/>
      <point x="414" y="86" type="qcurve"/>
      <point x="414.0" y="0.0" type="line"/>
      <point x="388.5" y="-9.75"/>
      <point x="333.0" y="-20.0"/>
    </contour>
    <contour>
      <point x="223" y="1085" type="move" name="top"/>
    </contour>
  </outline>
</glyph>
<glyph name="kappa" format="1">
  <advance width="711"/>
  <unicode hex="03BA"/>
  <note>
kappa
</note>
  <outline>
    <contour>
      <point x="145" y="0" type="line"/>
      <point x="145" y="1085" type="line"/>
      <point x="240" y="1085" type="line"/>
      <point x="240.0" y="719.0" type="line" smooth="yes"/>
      <point x="240.0" y="665.75"/>
      <point x="236.75" y="574.5"/>
      <point x="233" y="537" type="qcurve"/>
      <point x="242.0" y="537.0" type="line"/>
      <point x="249.5" y="551.5"/>
      <point x="263.9166666666667" y="578.6666666666665"/>
      <point x="278.0" y="604.5"/>
      <point x="285" y="617" type="qcurve" smooth="yes"/>
      <point x="571" y="1085" type="line"/>
      <point x="674" y="1085" type="line"/>
      <point x="424" y="686" type="line"/>
      <point x="696" y="0" type="line"/>
      <point x="596" y="0" type="line"/>
      <point x="360" y="598" type="line"/>
      <point x="240" y="440" type="line"/>
      <point x="240" y="0" type="line"/>
    </contour>
  </outline>
</glyph>
<glyph name="lambda" format="1">
  <advance width="715"/>
  <unicode hex="03BB"/>
  <note>
lambda
</note>
  <outline>
    <contour>
      <point x="670.0" y="-20.0" type="qcurve" smooth="yes"/>
      <point x="597.25" y="-20.0"/>
      <point x="515.25" y="97.75"/>
      <point x="492" y="205" type="qcurve" smooth="yes"/>
      <point x="395.0" y="668.0" type="line" smooth="yes"/>
      <point x="381.5" y="729.5"/>
      <point x="360.75" y="866.75"/>
      <point x="348" y="920" type="qcurve"/>
      <point x="340.0" y="920.0" type="line"/>
      <point x="331.0" y="863.0"/>
      <point x="316" y="797" type="qcurve" smooth="yes"/>
      <point x="115" y="0" type="line"/>
      <point x="20" y="0" type="line"/>
      <point x="307" y="1090" type="line"/>
      <point x="260.0" y="1315.0" type="line" smooth="yes"/>
      <point x="241.3972602739726" y="1408.013698630137"/>
      <point x="214.0" y="1445.0" type="qcurve" smooth="yes"/>
      <point x="186.23076923076923" y="1483.0"/>
      <point x="137.0" y="1483.0" type="qcurve" smooth="yes"/>
      <point x="99.42857142857143" y="1483.0"/>
      <point x="78" y="1473" type="qcurve"/>
      <point x="78.0" y="1556.0" type="line"/>
      <point x="105.44444444444444" y="1569.0"/>
      <point x="147.0" y="1569.0" type="qcurve" smooth="yes"/>
      <point x="221.03030303030303" y="1569.0"/>
      <point x="268.0" y="1519.0" type="qcurve" smooth="yes"/>
      <point x="295.75" y="1490.5"/>
      <point x="333.25" y="1401.5"/>
      <point x="346" y="1343" type="qcurve" smooth="yes"/>
      <point x="578.0" y="233.0" type="line" smooth="yes"/>
      <point x="595.5384615384615" y="148.23076923076923"/>
      <point x="619.0" y="106.0" type="qcurve" smooth="yes"/>
      <point x="641.2222222222222" y="66.0"/>
      <point x="682.0" y="66.0" type="qcurve" smooth="yes"/>
      <point x="716.4285714285714" y="66.0"/>
      <point x="735" y="76" type="qcurve"/>
      <point x="735.0" y="-8.0" type="line"/>
      <point x="708.0" y="-20.0"/>
    </contour>
  </outline>
</glyph>
<glyph name="nu" format="1">
  <advance width="723"/>
  <unicode hex="03BD"/>
  <note>
nu
</note>
  <outline>
    <contour>
      <point x="260" y="0" type="line"/>
      <point x="31" y="1085" type="line"/>
      <point x="127" y="1085" type="line"/>
      <point x="269.0" y="393.0" type="line" smooth="yes"/>
      <point x="288.5" y="299.25"/>
      <point x="313.75" y="157.0"/>
      <point x="319" y="109" type="qcurve"/>
      <point x="328.0" y="109.0" type="line"/>
      <point x="571.0" y="503.5"/>
      <point x="571" y="1085" type="qcurve"/>
      <point x="666.0" y="1085.0" type="line"/>
      <point x="666.0" y="760.25"/>
      <point x="513.0" y="242.25"/>
      <point x="348" y="0" type="qcurve"/>
    </contour>
  </outline>
</glyph>
